RisingSun-Bold.ufo
<glyph name="exclam" format="2">
  <advance width="362"/>
  <unicode hex="0021"/>
  <outline>
    <contour>
      <point x="68" y="103" type="curve" smooth="yes"/>
      <point x="68" y="41"/>
      <point x="119" y="-10"/>
      <point x="181" y="-10" type="curve" smooth="yes"/>
      <point x="243" y="-10"/>
      <point x="294" y="41"/>
      <point x="294" y="103" type="curve" smooth="yes"/>
      <point x="294" y="165"/>
      <point x="243" y="216"/>
      <point x="181" y="216" type="curve" smooth="yes"/>
      <point x="119" y="216"/>
      <point x="68" y="165"/>
    </contour>
    <contour>
      <point x="206" y="300" type="line"/>
      <point x="276" y="550" type="line"/>
      <point x="276" y="717" type="line"/>
      <point x="86" y="717" type="line"/>
      <point x="86" y="550" type="line"/>
      <point x="156" y="300" type="line"/>
    </contour>
  </outline>
</glyph>
<glyph name="numbersign" format="2">
  <advance width="721"/>
  <unicode hex="0023"/>
  <outline>
    <contour>
      <point x="684" y="518" type="line"/>
      <point x="563" y="518" type="line"/>
      <point x="610" y="710" type="line"/>
      <point x="503" y="710" type="line"/>
      <point x="455" y="518" type="line"/>
      <point x="336" y="518" type="line"/>
      <point x="384" y="710" type="line"/>
      <point x="276" y="710" type="line"/>
      <point x="229" y="518" type="line"/>
      <point x="84" y="518" type="line"/>
      <point x="84" y="424" type="line"/>
      <point x="206" y="424" type="line"/>
      <point x="173" y="287" type="line"/>
      <point x="36" y="287" type="line"/>
      <point x="36" y="187" type="line"/>
      <point x="149" y="187" type="line"/>
      <point x="103" y="0" type="line"/>
      <point x="211" y="0" type="line"/>
      <point x="257" y="187" type="line"/>
      <point x="375" y="187" type="line"/>
      <point x="330" y="0" type="line"/>
      <point x="437" y="0" type="line"/>
      <point x="483" y="187" type="line"/>
      <point x="638" y="187" type="line"/>
      <point x="638" y="287" type="line"/>
      <point x="507" y="287" type="line"/>
      <point x="539" y="424" type="line"/>
      <point x="684" y="424" type="line"/>
    </contour>
    <contour>
      <point x="280" y="287" type="line"/>
      <point x="313" y="424" type="line"/>
      <point x="433" y="424" type="line"/>
      <point x="400" y="287" type="line"/>
    </contour>
  </outline>
</glyph>
<glyph name="dollar" format="2">
  <advance width="634"/>
  <unicode hex="0024"/>
  <outline>
    <contour>
      <point x="288" y="-117" type="line"/>
      <point x="355" y="-117" type="line"/>
      <point x="355" y="64" type="line"/>
      <point x="288" y="64" type="line"/>
    </contour>
    <contour>
      <point x="345" y="78" type="line"/>
      <point x="345" y="637" type="line"/>
      <point x="297" y="628" type="line"/>
      <point x="297" y="80" type="line"/>
    </contour>
    <contour>
      <point x="288" y="640" type="line"/>
      <point x="355" y="650" type="line"/>
      <point x="355" y="815" type="line"/>
      <point x="288" y="815" type="line"/>
    </contour>
    <contour>
      <point x="570" y="637" type="line"/>
      <point x="547" y="651"/>
      <point x="492" y="680"/>
      <point x="427" y="702"/>
      <point x="359" y="716"/>
      <point x="322" y="716" type="qcurve" smooth="yes"/>
      <point x="268" y="716"/>
      <point x="173" y="686"/>
      <point x="103" y="630"/>
      <point x="63" y="546"/>
      <point x="63" y="492" type="qcurve" smooth="yes"/>
      <point x="63" y="451"/>
      <point x="87" y="391"/>
      <point x="137" y="347"/>
      <point x="213" y="314"/>
      <point x="264" y="300" type="qcurve" smooth="yes"/>
      <point x="306" y="288"/>
      <point x="373" y="268"/>
      <point x="422" y="244"/>
      <point x="448" y="213"/>
      <point x="448" y="189" type="qcurve" smooth="yes"/>
      <point x="448" y="153"/>
      <point x="390" y="116"/>
      <point x="334" y="116" type="qcurve" smooth="yes"/>
      <point x="294" y="116"/>
      <point x="215" y="136"/>
      <point x="150" y="165"/>
      <point x="104" y="194"/>
      <point x="95" y="204" type="qcurve"/>
      <point x="33" y="84" type="line"/>
      <point x="64" y="63"/>
      <point x="135" y="28"/>
      <point x="212" y="4"/>
      <point x="292" y="-8"/>
      <point x="332" y="-8" type="qcurve" smooth="yes"/>
      <point x="384" y="-8"/>
      <point x="479" y="15"/>
      <point x="552" y="66"/>
      <point x="595" y="146"/>
      <point x="595" y="203" type="qcurve" smooth="yes"/>
      <point x="595" y="252"/>
      <point x="564" y="320"/>
      <point x="503" y="367"/>
      <point x="420" y="400"/>
      <point x="367" y="413" type="qcurve" smooth="yes"/>
      <point x="326" y="424"/>
      <point x="266" y="441"/>
      <point x="225" y="462"/>
      <point x="204" y="493"/>
      <point x="204" y="514" type="qcurve" smooth="yes"/>
      <point x="204" y="552"/>
      <point x="262" y="593"/>
      <point x="318" y="593" type="qcurve" smooth="yes"/>
      <point x="350" y="593"/>
      <point x="413" y="578"/>
      <point x="465" y="554"/>
      <point x="502" y="532"/>
      <point x="509" y="524" type="qcurve"/>
    </contour>
  </outline>
</glyph>
<glyph name="percent" format="2">
  <advance width="786"/>
  <unicode hex="0025"/>
  <outline>
    <contour>
      <point x="200" y="418" type="qcurve" smooth="yes"/>
      <point x="235" y="418"/>
      <point x="295" y="441"/>
      <point x="339" y="481"/>
      <point x="365" y="537"/>
      <point x="365" y="569" type="qcurve" smooth="yes"/>
      <point x="365" y="600"/>
      <point x="339" y="655"/>
      <point x="295" y="696"/>
      <point x="235" y="720"/>
      <point x="200" y="720" type="qcurve" smooth="yes"/>
      <point x="166" y="720"/>
      <point x="106" y="696"/>
      <point x="61" y="655"/>
      <point x="35" y="600"/>
      <point x="35" y="569" type="qcurve" smooth="yes"/>
      <point x="35" y="537"/>
      <point x="61" y="481"/>
      <point x="106" y="441"/>
      <point x="166" y="418"/>
    </contour>
    <contour>
      <point x="200" y="484" type="qcurve" smooth="yes"/>
      <point x="186" y="484"/>
      <point x="160" y="497"/>
      <point x="140" y="521"/>
      <point x="129" y="551"/>
      <point x="129" y="569" type="qcurve" smooth="yes"/>
      <point x="129" y="586"/>
      <point x="140" y="616"/>
      <point x="159" y="640"/>
      <point x="185" y="653"/>
      <point x="200" y="653" type="qcurve" smooth="yes"/>
      <point x="214" y="653"/>
      <point x="240" y="640"/>
      <point x="259" y="617"/>
      <point x="271" y="586"/>
      <point x="271" y="569" type="qcurve" smooth="yes"/>
      <point x="271" y="552"/>
      <point x="260" y="521"/>
      <point x="240" y="498"/>
      <point x="215" y="484"/>
    </contour>
    <contour>
      <point x="586" y="-10" type="qcurve" smooth="yes"/>
      <point x="621" y="-10"/>
      <point x="681" y="14"/>
      <point x="726" y="55"/>
      <point x="751" y="110"/>
      <point x="751" y="141" type="qcurve" smooth="yes"/>
      <point x="751" y="173"/>
      <point x="726" y="229"/>
      <point x="681" y="269"/>
      <point x="621" y="292"/>
      <point x="586" y="292" type="qcurve" smooth="yes"/>
      <point x="552" y="292"/>
      <point x="492" y="269"/>
      <point x="448" y="229"/>
      <point x="421" y="173"/>
      <point x="421" y="141" type="qcurve" smooth="yes"/>
      <point x="421" y="110"/>
      <point x="448" y="55"/>
      <point x="492" y="14"/>
      <point x="552" y="-10"/>
    </contour>
    <contour>
      <point x="586" y="57" type="qcurve" smooth="yes"/>
      <point x="572" y="57"/>
      <point x="546" y="70"/>
      <point x="527" y="93"/>
      <point x="515" y="124"/>
      <point x="515" y="141" type="qcurve" smooth="yes"/>
      <point x="515" y="159"/>
      <point x="527" y="189"/>
      <point x="545" y="212"/>
      <point x="572" y="226"/>
      <point x="586" y="226" type="qcurve" smooth="yes"/>
      <point x="601" y="226"/>
      <point x="626" y="213"/>
      <point x="646" y="189"/>
      <point x="657" y="159"/>
      <point x="657" y="142" type="qcurve" smooth="yes"/>
      <point x="657" y="124"/>
      <point x="646" y="94"/>
      <point x="627" y="70"/>
      <point x="601" y="57"/>
    </contour>
    <contour>
      <point x="152" y="-8" type="line"/>
      <point x="421" y="340" type="line"/>
      <point x="694" y="663" type="line"/>
      <point x="634" y="718" type="line"/>
      <point x="373" y="376" type="line"/>
      <point x="92" y="48" type="line"/>
    </contour>
  </outline>
</glyph>
<glyph name="ampersand" format="2">
  <advance width="711"/>
  <unicode hex="0026"/>
  <outline>
    <contour>
      <point x="712" y="0" type="line"/>
      <point x="307" y="425" type="line" smooth="yes"/>
      <point x="277" y="456"/>
      <point x="240" y="495"/>
      <point x="218" y="522"/>
      <point x="209" y="542"/>
      <point x="209" y="553" type="qcurve" smooth="yes"/>
      <point x="209" y="567"/>
      <point x="220" y="591"/>
      <point x="239" y="609"/>
      <point x="266" y="620"/>
      <point x="282" y="620" type="qcurve" smooth="yes"/>
      <point x="311" y="620"/>
      <point x="348" y="587"/>
      <point x="348" y="560" type="qcurve" smooth="yes"/>
      <point x="348" y="542"/>
      <point x="330" y="513"/>
      <point x="295" y="483"/>
      <point x="245" y="452"/>
      <point x="212" y="431" type="qcurve" smooth="yes"/>
      <point x="182" y="412"/>
      <point x="121" y="367"/>
      <point x="71" y="311"/>
      <point x="41" y="243"/>
      <point x="41" y="201" type="qcurve" smooth="yes"/>
      <point x="41" y="159"/>
      <point x="74" y="83"/>
      <point x="137" y="24"/>
      <point x="224" y="-10"/>
      <point x="279" y="-10" type="qcurve" smooth="yes"/>
      <point x="346" y="-10"/>
      <point x="471" y="43"/>
      <point x="568" y="146"/>
      <point x="627" y="294"/>
      <point x="627" y="389" type="qcurve"/>
      <point x="518" y="389" type="line"/>
      <point x="518" y="322"/>
      <point x="480" y="214"/>
      <point x="418" y="137"/>
      <point x="337" y="96"/>
      <point x="294" y="96" type="qcurve" smooth="yes"/>
      <point x="266" y="96"/>
      <point x="221" y="113"/>
      <point x="187" y="140"/>
      <point x="169" y="179"/>
      <point x="169" y="200" type="qcurve" smooth="yes"/>
      <point x="169" y="222"/>
      <point x="188" y="260"/>
      <point x="223" y="295"/>
      <point x="270" y="329"/>
      <point x="297" y="345" type="qcurve" smooth="yes"/>
      <point x="333" y="367"/>
      <point x="397" y="414"/>
      <point x="444" y="467"/>
      <point x="471" y="527"/>
      <point x="471" y="562" type="qcurve" smooth="yes"/>
      <point x="471" y="601"/>
      <point x="440" y="660"/>
      <point x="388" y="700"/>
      <point x="319" y="719"/>
      <point x="282" y="719" type="qcurve" smooth="yes"/>
      <point x="240" y="719"/>
      <point x="169" y="694"/>
      <point x="117" y="650"/>
      <point x="87" y="588"/>
      <point x="87" y="549" type="qcurve" smooth="yes"/>
      <point x="87" y="526"/>
      <point x="99" y="485"/>
      <point x="126" y="440"/>
      <point x="170" y="388"/>
      <point x="202" y="354" type="qcurve" smooth="yes"/>
      <point x="536" y="0" type="line"/>
    </contour>
  </outline>
</glyph>
<glyph name="quotesingle" format="2">
  <advance width="266"/>
  <unicode hex="0027"/>
  <outline>
    <contour>
      <point x="108.973" y="495" type="line"/>
      <point x="238.274" y="730" type="line"/>
      <point x="81.2739" y="730" type="line"/>
      <point x="26.9734" y="495" type="line"/>
    </contour>
  </outline>
</glyph>
<glyph name="parenleft" format="2">
  <advance width="310"/>
  <unicode hex="0028"/>
  <outline>
    <contour>
      <point x="34" y="347" type="qcurve" smooth="yes"/>
      <point x="34" y="296"/>
      <point x="58" y="193"/>
      <point x="98" y="92"/>
      <point x="153" y="-6"/>
      <point x="184" y="-52" type="qcurve"/>
      <point x="282" y="-4" type="line"/>
      <point x="255" y="42"/>
      <point x="210" y="132"/>
      <point x="178" y="220"/>
      <point x="160" y="304"/>
      <point x="160" y="344" type="qcurve" smooth="yes"/>
      <point x="160" y="395"/>
      <point x="187" y="506"/>
      <point x="226" y="607"/>
      <point x="269" y="690"/>
      <point x="285" y="714" type="qcurve"/>
      <point x="182" y="757" type="line"/>
      <point x="151" y="704"/>
      <point x="98" y="601"/>
      <point x="57" y="500"/>
      <point x="34" y="398"/>
    </contour>
  </outline>
</glyph>
<glyph name="parenright" format="2">
  <advance width="313"/>
  <unicode hex="0029"/>
  <outline>
    <contour>
      <point x="280" y="347" type="qcurve" smooth="yes"/>
      <point x="280" y="398"/>
      <point x="257" y="500"/>
      <point x="216" y="602"/>
      <point x="162" y="705"/>
      <point x="131" y="759" type="qcurve"/>
      <point x="23" y="714" type="line"/>
      <point x="38" y="691"/>
      <point x="81" y="608"/>
      <point x="121" y="507"/>
      <point x="149" y="396"/>
      <point x="149" y="344" type="qcurve" smooth="yes"/>
      <point x="149" y="304"/>
      <point x="131" y="220"/>
      <point x="98" y="133"/>
      <point x="53" y="43"/>
      <point x="26" y="-3" type="qcurve"/>
      <point x="129" y="-54" type="line"/>
      <point x="161" y="-8"/>
      <point x="215" y="91"/>
      <point x="256" y="192"/>
      <point x="280" y="296"/>
    </contour>
  </outline>
</glyph>
<glyph name="asterisk" format="2">
  <advance width="345"/>
  <unicode hex="002A"/>
  <outline>
    <contour>
      <point x="127" y="486" type="line"/>
      <point x="173" y="561" type="line"/>
      <point x="218" y="486" type="line"/>
      <point x="270" y="521" type="line"/>
      <point x="223" y="591" type="line"/>
      <point x="293" y="613" type="line"/>
      <point x="275" y="670" type="line"/>
      <point x="203" y="639" type="line"/>
      <point x="208" y="717" type="line"/>
      <point x="136" y="717" type="line"/>
      <point x="141" y="639" type="line"/>
      <point x="69" y="670" type="line"/>
      <point x="51" y="613" type="line"/>
      <point x="122" y="591" type="line"/>
      <point x="75" y="521" type="line"/>
    </contour>
  </outline>
</glyph>
<glyph name="plus" format="2">
  <advance width="421"/>
  <unicode hex="002B"/>
  <outline>
    <contour>
      <point x="271" y="408" type="line"/>
      <point x="271" y="522" type="line"/>
      <point x="151" y="522" type="line"/>
      <point x="151" y="408" type="line"/>
      <point x="47" y="408" type="line"/>
      <point x="47" y="302" type="line"/>
      <point x="151" y="302" type="line"/>
      <point x="151" y="188" type="line"/>
      <point x="271" y="188" type="line"/>
      <point x="271" y="302" type="line"/>
      <point x="374" y="302" type="line"/>
      <point x="374" y="408" type="line"/>
    </contour>
  </outline>
</glyph>
<glyph name="comma" format="2">
  <advance width="268"/>
  <unicode hex="002C"/>
  <outline>
    <contour>
      <point x="86" y="-177" type="line"/>
      <point x="212" y="89" type="line"/>
      <point x="83" y="111" type="line"/>
      <point x="23" y="-160" type="line"/>
    </contour>
  </outline>
</glyph>
<glyph name="period" format="2">
  <advance width="268"/>
  <unicode hex="002E"/>
  <outline>
    <contour>
      <point x="60" y="63" type="qcurve" smooth="yes"/>
      <point x="60" y="33"/>
      <point x="103" y="-10"/>
      <point x="133" y="-10" type="qcurve" smooth="yes"/>
      <point x="163" y="-10"/>
      <point x="206" y="33"/>
      <point x="206" y="63" type="qcurve" smooth="yes"/>
      <point x="206" y="93"/>
      <point x="163" y="137"/>
      <point x="133" y="137" type="qcurve" smooth="yes"/>
      <point x="103" y="137"/>
      <point x="60" y="93"/>
    </contour>
  </outline>
</glyph>
<glyph name="slash" format="2">
  <advance width="698"/>
  <unicode hex="002F"/>
  <outline>
    <contour>
      <point x="522" y="710" type="line"/>
      <point x="26" y="0" type="line"/>
      <point x="174" y="0" type="line"/>
      <point x="671" y="710" type="line"/>
    </contour>
  </outline>
</glyph>
<glyph name="zero.tnum" format="2">
  <advance width="586"/>
  <unicode hex="0030"/>
  <outline>
    <contour>
      <point x="293" y="-10" type="qcurve" smooth="yes"/>
      <point x="359" y="-10"/>
      <point x="461" y="54"/>
      <point x="497" y="105" type="qcurve" smooth="yes"/>
      <point x="533" y="156"/>
      <point x="570" y="284"/>
      <point x="570" y="350" type="qcurve" smooth="yes"/>
      <point x="570" y="408"/>
      <point x="536" y="534"/>
      <point x="501" y="588" type="qcurve" smooth="yes"/>
      <point x="465" y="642"/>
      <point x="363" y="710"/>
      <point x="293" y="710" type="qcurve" smooth="yes"/>
      <point x="227" y="710"/>
      <point x="126" y="646"/>
      <point x="90" y="595" type="qcurve" smooth="yes"/>
      <point x="53" y="543"/>
      <point x="16" y="414"/>
      <point x="16" y="350" type="qcurve" smooth="yes"/>
      <point x="16" y="290"/>
      <point x="50" y="164"/>
      <point x="86" y="111" type="qcurve" smooth="yes"/>
      <point x="121" y="58"/>
      <point x="224" y="-10"/>
    </contour>
    <contour>
      <point x="154" y="350" type="qcurve"/>
      <point x="154" y="388"/>
      <point x="171" y="471"/>
      <point x="188" y="506" type="qcurve" smooth="yes"/>
      <point x="205" y="542"/>
      <point x="257" y="587"/>
      <point x="293" y="587" type="qcurve" smooth="yes"/>
      <point x="328" y="587"/>
      <point x="379" y="544"/>
      <point x="397" y="510" type="qcurve" smooth="yes"/>
      <point x="415" y="476"/>
      <point x="432" y="392"/>
      <point x="432" y="350" type="qcurve" smooth="yes"/>
      <point x="432" y="312"/>
      <point x="416" y="230"/>
      <point x="399" y="194" type="qcurve" smooth="yes"/>
      <point x="382" y="158"/>
      <point x="330" y="113"/>
      <point x="293" y="113" type="qcurve" smooth="yes"/>
      <point x="258" y="113"/>
      <point x="207" y="156"/>
      <point x="190" y="190" type="qcurve" smooth="yes"/>
      <point x="172" y="224"/>
      <point x="155" y="308"/>
    </contour>
  </outline>
</glyph>
<glyph name="one.tnum" format="2">
  <advance width="586"/>
  <unicode hex="0031"/>
  <outline>
    <contour>
      <point x="360" y="120" type="line"/>
      <point x="360" y="716" type="line"/>
      <point x="237" y="716" type="line"/>
      <point x="236" y="715"/>
      <point x="209" y="684"/>
      <point x="187" y="667" type="qcurve"/>
      <point x="166" y="649"/>
      <point x="115" y="620"/>
      <point x="91" y="620" type="qcurve"/>
      <point x="91" y="496" type="line"/>
      <point x="109" y="496"/>
      <point x="154" y="514"/>
      <point x="175" y="528" type="qcurve" smooth="yes"/>
      <point x="195" y="542"/>
      <point x="229" y="571"/>
      <point x="237" y="583" type="qcurve"/>
      <point x="237" y="120" type="line"/>
      <point x="42" y="120" type="line"/>
      <point x="42" y="0" type="line"/>
      <point x="544" y="0" type="line"/>
      <point x="544" y="120" type="line"/>
    </contour>
  </outline>
</glyph>
<glyph name="two.tnum" format="2">
  <advance width="586"/>
  <unicode hex="0032"/>
  <outline>
    <contour>
      <point x="544" y="-2" type="line"/>
      <point x="544" y="125" type="line"/>
      <point x="202" y="125" type="line"/>
      <point x="209" y="143"/>
      <point x="229" y="175"/>
      <point x="266" y="210"/>
      <point x="327" y="252"/>
      <point x="375" y="278" type="qcurve" smooth="yes"/>
      <point x="408" y="297"/>
      <point x="468" y="339"/>
      <point x="514" y="393"/>
      <point x="542" y="463"/>
      <point x="542" y="507" type="qcurve" smooth="yes"/>
      <point x="542" y="553"/>
      <point x="512" y="631"/>
      <point x="452" y="687"/>
      <point x="364" y="718"/>
      <point x="306" y="718" type="qcurve" smooth="yes"/>
      <point x="255" y="718"/>
      <point x="170" y="695"/>
      <point x="100" y="657"/>
      <point x="52" y="616"/>
      <point x="37" y="600" type="qcurve"/>
      <point x="123" y="506" type="line"/>
      <point x="136" y="521"/>
      <point x="171" y="550"/>
      <point x="212" y="574"/>
      <point x="261" y="590"/>
      <point x="286" y="590" type="qcurve" smooth="yes"/>
      <point x="309" y="590"/>
      <point x="344" y="577"/>
      <point x="369" y="553"/>
      <point x="383" y="519"/>
      <point x="383" y="498" type="qcurve" smooth="yes"/>
      <point x="383" y="460"/>
      <point x="343" y="406"/>
      <point x="283" y="363"/>
      <point x="210" y="327"/>
      <point x="177" y="306" type="qcurve" smooth="yes"/>
      <point x="137" y="281"/>
      <point x="82" y="224"/>
      <point x="49" y="152"/>
      <point x="35" y="60"/>
      <point x="35" y="-2" type="qcurve"/>
    </contour>
  </outline>
</glyph>
<glyph name="five.tnum" format="2">
  <advance width="586"/>
  <unicode hex="0035"/>
  <outline>
    <contour>
      <point x="277" y="-11" type="qcurve" smooth="yes"/>
      <point x="333" y="-11"/>
      <point x="428" y="24"/>
      <point x="498" y="87"/>
      <point x="536" y="176"/>
      <point x="536" y="231" type="qcurve" smooth="yes"/>
      <point x="536" y="282"/>
      <point x="501" y="366"/>
      <point x="439" y="426"/>
      <point x="355" y="460"/>
      <point x="306" y="460" type="qcurve" smooth="yes"/>
      <point x="274" y="460"/>
      <point x="230" y="445"/>
      <point x="220" y="432" type="qcurve"/>
      <point x="245" y="582" type="line"/>
      <point x="487" y="582" type="line"/>
      <point x="487" y="711" type="line"/>
      <point x="145" y="711" type="line"/>
      <point x="65" y="284" type="line"/>
      <point x="186" y="284" type="line"/>
      <point x="201" y="309"/>
      <point x="254" y="337"/>
      <point x="285" y="337" type="qcurve" smooth="yes"/>
      <point x="307" y="337"/>
      <point x="346" y="321"/>
      <point x="375" y="291"/>
      <point x="392" y="251"/>
      <point x="392" y="227" type="qcurve" smooth="yes"/>
      <point x="392" y="201"/>
      <point x="374" y="161"/>
      <point x="344" y="131"/>
      <point x="301" y="115"/>
      <point x="276" y="115" type="qcurve" smooth="yes"/>
      <point x="233" y="115"/>
      <point x="155" y="159"/>
      <point x="127" y="198" type="qcurve"/>
      <point x="49" y="113" type="line"/>
      <point x="81" y="55"/>
      <point x="202" y="-11"/>
    </contour>
  </outline>
</glyph>
<glyph name="six.tnum" format="2">
  <advance width="586"/>
  <unicode hex="0036"/>
  <outline>
    <contour>
      <point x="551" y="238" type="curve" smooth="yes"/>
      <point x="551" y="95"/>
      <point x="437" y="-12"/>
      <point x="295" y="-12" type="curve" smooth="yes"/>
      <point x="107" y="-12"/>
      <point x="38" y="153"/>
      <point x="38" y="317" type="curve" smooth="yes"/>
      <point x="38" y="492"/>
      <point x="98" y="716"/>
      <point x="310" y="716" type="curve" smooth="yes"/>
      <point x="400" y="716"/>
      <point x="474" y="676"/>
      <point x="525" y="603" type="curve"/>
      <point x="444" y="516" type="line"/>
      <point x="415" y="565"/>
      <point x="365" y="591"/>
      <point x="308" y="591" type="curve" smooth="yes"/>
      <point x="207" y="591"/>
      <point x="171" y="485"/>
      <point x="169" y="400" type="curve"/>
      <point x="197" y="449"/>
      <point x="253" y="473"/>
      <point x="310" y="473" type="curve" smooth="yes"/>
      <point x="444" y="473"/>
      <point x="551" y="373"/>
    </contour>
    <contour>
      <point x="416" y="236" type="curve" smooth="yes"/>
      <point x="416" y="302"/>
      <point x="364" y="360"/>
      <point x="296" y="360" type="curve" smooth="yes"/>
      <point x="228" y="360"/>
      <point x="175" y="303"/>
      <point x="175" y="236" type="curve" smooth="yes"/>
      <point x="175" y="171"/>
      <point x="229" y="109"/>
      <point x="296" y="109" type="curve" smooth="yes"/>
      <point x="363" y="109"/>
      <point x="416" y="171"/>
    </contour>
  </outline>
</glyph>
<glyph name="seven" format="2">
  <advance width="586"/>
  <unicode hex="0037"/>
  <outline>
    <contour>
      <point x="70" y="1" type="line"/>
      <point x="224" y="1" type="line"/>
      <point x="563" y="711" type="line"/>
      <point x="44" y="711" type="line"/>
      <point x="44" y="582" type="line"/>
      <point x="349" y="582" type="line"/>
    </contour>
  </outline>
</glyph>
<glyph name="nine.tnum" format="2">
  <advance width="586"/>
  <unicode hex="0039"/>
  <outline>
    <contour>
      <point x="35" y="466" type="curve" smooth="yes"/>
      <point x="35" y="609"/>
      <point x="149" y="716"/>
      <point x="291" y="716" type="curve" smooth="yes"/>
      <point x="478" y="716"/>
      <point x="547" y="551"/>
      <point x="547" y="387" type="curve" smooth="yes"/>
      <point x="547" y="212"/>
      <point x="492" y="-12"/>
      <point x="277" y="-12" type="curve" smooth="yes"/>
      <point x="187" y="-12"/>
      <point x="112" y="29"/>
      <point x="61" y="101" type="curve"/>
      <point x="138" y="188" type="line"/>
      <point x="169" y="140"/>
      <point x="219" y="113"/>
      <point x="277" y="113" type="curve" smooth="yes"/>
      <point x="381" y="113"/>
      <point x="414" y="215"/>
      <point x="416" y="303" type="curve"/>
      <point x="388" y="253"/>
      <point x="334" y="230"/>
      <point x="276" y="230" type="curve" smooth="yes"/>
      <point x="143" y="230"/>
      <point x="35" y="330"/>
    </contour>
    <contour>
      <point x="291" y="595" type="curve" smooth="yes"/>
      <point x="224" y="595"/>
      <point x="170" y="533"/>
      <point x="170" y="468" type="curve" smooth="yes"/>
      <point x="170" y="402"/>
      <point x="224" y="344"/>
      <point x="291" y="344" type="curve" smooth="yes"/>
      <point x="358" y="344"/>
      <point x="411" y="401"/>
      <point x="411" y="468" type="curve" smooth="yes"/>
      <point x="411" y="533"/>
      <point x="358" y="595"/>
    </contour>
  </outline>
</glyph>
<glyph name="less" format="2">
  <advance width="515"/>
  <unicode hex="003C"/>
  <outline>
    <contour>
      <point x="32" y="224" type="line"/>
      <point x="454" y="-26" type="line"/>
      <point x="454" y="123" type="line"/>
      <point x="227" y="259" type="line"/>
      <point x="454" y="401" type="line"/>
      <point x="454" y="543" type="line"/>
      <point x="32" y="288" type="line"/>
    </contour>
  </outline>
</glyph>
<glyph name="equal" format="2">
  <advance width="436"/>
  <unicode hex="003D"/>
  <outline>
    <contour>
      <point x="375" y="143" type="line"/>
      <point x="375" y="231" type="line"/>
      <point x="62" y="231" type="line"/>
      <point x="62" y="143" type="line"/>
    </contour>
    <contour>
      <point x="375" y="321" type="line"/>
      <point x="375" y="409" type="line"/>
      <point x="62" y="409" type="line"/>
      <point x="62" y="321" type="line"/>
    </contour>
  </outline>
</glyph>
<glyph name="greater" format="2">
  <advance width="515"/>
  <unicode hex="003E"/>
  <outline>
    <contour>
      <point x="483" y="288" type="line"/>
      <point x="61" y="543" type="line"/>
      <point x="61" y="401" type="line"/>
      <point x="288" y="259" type="line"/>
      <point x="61" y="123" type="line"/>
      <point x="61" y="-26" type="line"/>
      <point x="483" y="224" type="line"/>
    </contour>
  </outline>
</glyph>
<glyph name="question" format="2">
  <advance width="487"/>
  <unicode hex="003F"/>
  <outline>
    <contour>
      <point x="190" y="236" type="line"/>
      <point x="196" y="245"/>
      <point x="205" y="256"/>
      <point x="220" y="271" type="curve"/>
      <point x="234" y="284"/>
      <point x="251" y="297"/>
      <point x="267" y="305" type="curve"/>
      <point x="308" y="327"/>
      <point x="345" y="350"/>
      <point x="375" y="375" type="curve" smooth="yes"/>
      <point x="428" y="421"/>
      <point x="452" y="468"/>
      <point x="452" y="521" type="curve" smooth="yes"/>
      <point x="452" y="639"/>
      <point x="369" y="719"/>
      <point x="244" y="719" type="curve" smooth="yes"/>
      <point x="149" y="719"/>
      <point x="69" y="670"/>
      <point x="34" y="590" type="curve"/>
      <point x="125" y="527" type="line"/>
      <point x="153" y="570"/>
      <point x="186" y="604"/>
      <point x="239" y="604" type="curve" smooth="yes"/>
      <point x="291" y="604"/>
      <point x="329" y="569"/>
      <point x="329" y="523" type="curve" smooth="yes"/>
      <point x="329" y="492"/>
      <point x="306" y="464"/>
      <point x="273" y="437" type="curve" smooth="yes"/>
      <point x="239" y="410"/>
      <point x="196" y="388"/>
      <point x="172" y="367" type="curve"/>
      <point x="143" y="344"/>
      <point x="130" y="319"/>
      <point x="129" y="289" type="curve" smooth="yes"/>
      <point x="128" y="268"/>
      <point x="139" y="252"/>
      <point x="163" y="236" type="curve"/>
    </contour>
    <contour>
      <point x="104" y="66" type="curve" smooth="yes"/>
      <point x="104" y="24"/>
      <point x="137" y="-10"/>
      <point x="179" y="-10" type="curve" smooth="yes"/>
      <point x="221" y="-10"/>
      <point x="255" y="24"/>
      <point x="255" y="66" type="curve" smooth="yes"/>
      <point x="255" y="108"/>
      <point x="221" y="142"/>
      <point x="179" y="142" type="curve" smooth="yes"/>
      <point x="137" y="142"/>
      <point x="104" y="108"/>
    </contour>
  </outline>
</glyph>
<glyph name="at" format="2">
  <advance width="845"/>
  <unicode hex="0040"/>
  <outline>
    <contour>
      <point x="422" y="603" type="qcurve" smooth="yes"/>
      <point x="347" y="603"/>
      <point x="209" y="554"/>
      <point x="105" y="457"/>
      <point x="42" y="319"/>
      <point x="42" y="231" type="qcurve" smooth="yes"/>
      <point x="42" y="146"/>
      <point x="99" y="7"/>
      <point x="198" y="-92"/>
      <point x="330" y="-146"/>
      <point x="405" y="-146" type="qcurve" smooth="yes"/>
      <point x="449" y="-146"/>
      <point x="538" y="-126"/>
      <point x="580" y="-106" type="qcurve"/>
      <point x="562" y="-54" type="line"/>
      <point x="525" y="-70"/>
      <point x="455" y="-92"/>
      <point x="407" y="-92" type="qcurve" smooth="yes"/>
      <point x="337" y="-92"/>
      <point x="224" y="-42"/>
      <point x="142" y="46"/>
      <point x="98" y="163"/>
      <point x="98" y="229" type="qcurve" smooth="yes"/>
      <point x="98" y="299"/>
      <point x="145" y="417"/>
      <point x="230" y="502"/>
      <point x="347" y="549"/>
      <point x="418" y="549" type="qcurve" smooth="yes"/>
      <point x="490" y="549"/>
      <point x="608" y="501"/>
      <point x="692" y="413"/>
      <point x="740" y="294"/>
      <point x="740" y="225" type="qcurve" smooth="yes"/>
      <point x="740" y="203"/>
      <point x="733" y="141"/>
      <point x="714" y="85"/>
      <point x="681" y="44"/>
      <point x="654" y="44" type="qcurve" smooth="yes"/>
      <point x="636" y="44"/>
      <point x="617" y="63"/>
      <point x="606" y="95"/>
      <point x="604" y="135"/>
      <point x="604" y="157" type="qcurve" smooth="yes"/>
      <point x="604" y="253" type="line" smooth="yes"/>
      <point x="604" y="287"/>
      <point x="595" y="361"/>
      <point x="560" y="422"/>
      <point x="487" y="462"/>
      <point x="422" y="462" type="qcurve" smooth="yes"/>
      <point x="374" y="462"/>
      <point x="287" y="437"/>
      <point x="250" y="412" type="qcurve"/>
      <point x="276" y="341" type="line"/>
      <point x="300" y="362"/>
      <point x="368" y="385"/>
      <point x="409" y="385" type="qcurve" smooth="yes"/>
      <point x="443" y="385"/>
      <point x="487" y="367"/>
      <point x="513" y="335"/>
      <point x="523" y="290"/>
      <point x="523" y="262" type="qcurve"/>
      <point x="508" y="269"/>
      <point x="450" y="284"/>
      <point x="410" y="284" type="qcurve" smooth="yes"/>
      <point x="376" y="284"/>
      <point x="309" y="269"/>
      <point x="256" y="235"/>
      <point x="223" y="180"/>
      <point x="223" y="138" type="qcurve" smooth="yes"/>
      <point x="223" y="76"/>
      <point x="302" y="-1"/>
      <point x="377" y="-1" type="qcurve" smooth="yes"/>
      <point x="427" y="-1"/>
      <point x="515" y="35"/>
      <point x="546" y="66" type="qcurve"/>
      <point x="548" y="52"/>
      <point x="557" y="22"/>
      <point x="579" y="-2"/>
      <point x="615" y="-16"/>
      <point x="640" y="-16" type="qcurve" smooth="yes"/>
      <point x="695" y="-16"/>
      <point x="757" y="43"/>
      <point x="788" y="121"/>
      <point x="796" y="200"/>
      <point x="796" y="221" type="qcurve" smooth="yes"/>
      <point x="796" y="314"/>
      <point x="734" y="457"/>
      <point x="630" y="553"/>
      <point x="496" y="603"/>
    </contour>
    <contour>
      <point x="471" y="86" type="qcurve" smooth="yes"/>
      <point x="452" y="77"/>
      <point x="404" y="67"/>
      <point x="385" y="67" type="qcurve" smooth="yes"/>
      <point x="365" y="67"/>
      <point x="335" y="77"/>
      <point x="315" y="97"/>
      <point x="303" y="124"/>
      <point x="303" y="140" type="qcurve" smooth="yes"/>
      <point x="303" y="162"/>
      <point x="319" y="192"/>
      <point x="348" y="211"/>
      <point x="386" y="220"/>
      <point x="410" y="220" type="qcurve" smooth="yes"/>
      <point x="429" y="220"/>
      <point x="463" y="215"/>
      <point x="492" y="208"/>
      <point x="515" y="201"/>
      <point x="522" y="199" type="qcurve"/>
      <point x="522" y="161" type="line" smooth="yes"/>
      <point x="522" y="150"/>
      <point x="517" y="129"/>
      <point x="503" y="110"/>
      <point x="485" y="93"/>
    </contour>
  </outline>
</glyph>
<glyph name="A" format="2">
  <advance width="673"/>
  <unicode hex="0041"/>
  <outline>
    <contour>
      <point x="5" y="0" type="line"/>
      <point x="147" y="0" type="line"/>
      <point x="212" y="177" type="line"/>
      <point x="460" y="177" type="line"/>
      <point x="526" y="0" type="line"/>
      <point x="668" y="0" type="line"/>
      <point x="406" y="710" type="line"/>
      <point x="266" y="710" type="line"/>
    </contour>
    <contour>
      <point x="235" y="274" type="line"/>
      <point x="336" y="567" type="line"/>
      <point x="436" y="274" type="line"/>
    </contour>
  </outline>
</glyph>
<glyph name="B" format="2">
  <advance width="680"/>
  <unicode hex="0042"/>
  <outline>
    <contour>
      <point x="646" y="182" type="qcurve" smooth="yes"/>
      <point x="646" y="218"/>
      <point x="628" y="277"/>
      <point x="593" y="323"/>
      <point x="544" y="355"/>
      <point x="514" y="364" type="qcurve"/>
      <point x="563" y="387"/>
      <point x="616" y="477"/>
      <point x="616" y="528" type="qcurve" smooth="yes"/>
      <point x="616" y="562"/>
      <point x="594" y="627"/>
      <point x="552" y="678"/>
      <point x="492" y="710"/>
      <point x="454" y="710" type="qcurve" smooth="yes"/>
      <point x="75" y="710" type="line"/>
      <point x="75" y="0" type="line"/>
      <point x="417" y="0" type="line" smooth="yes"/>
      <point x="464" y="0"/>
      <point x="547" y="23"/>
      <point x="610" y="70"/>
      <point x="646" y="139"/>
    </contour>
    <contour>
      <point x="507" y="209" type="qcurve" smooth="yes"/>
      <point x="507" y="190"/>
      <point x="492" y="156"/>
      <point x="469" y="131"/>
      <point x="436" y="117"/>
      <point x="417" y="117" type="qcurve" smooth="yes"/>
      <point x="211" y="117" type="line"/>
      <point x="211" y="305" type="line"/>
      <point x="424" y="305" type="line" smooth="yes"/>
      <point x="442" y="305"/>
      <point x="472" y="289"/>
      <point x="494" y="263"/>
      <point x="507" y="228"/>
    </contour>
    <contour>
      <point x="402" y="592" type="line" smooth="yes"/>
      <point x="418" y="592"/>
      <point x="447" y="579"/>
      <point x="467" y="556"/>
      <point x="480" y="523"/>
      <point x="480" y="503" type="qcurve" smooth="yes"/>
      <point x="480" y="482"/>
      <point x="466" y="449"/>
      <point x="444" y="426"/>
      <point x="413" y="413"/>
      <point x="396" y="413" type="qcurve" smooth="yes"/>
      <point x="211" y="413" type="line"/>
      <point x="211" y="592" type="line"/>
    </contour>
  </outline>
</glyph>
<glyph name="D" format="2">
  <advance width="716"/>
  <unicode hex="0044"/>
  <outline>
    <contour>
      <point x="333" y="0" type="line" smooth="yes"/>
      <point x="412" y="0"/>
      <point x="541" y="51"/>
      <point x="633" y="144"/>
      <point x="682" y="275"/>
      <point x="682" y="356" type="qcurve" smooth="yes"/>
      <point x="682" y="430"/>
      <point x="638" y="559"/>
      <point x="550" y="655"/>
      <point x="420" y="710"/>
      <point x="333" y="710" type="qcurve" smooth="yes"/>
      <point x="75" y="710" type="line"/>
      <point x="75" y="0" type="line"/>
    </contour>
    <contour>
      <point x="543" y="356" type="qcurve" smooth="yes"/>
      <point x="543" y="306"/>
      <point x="515" y="219"/>
      <point x="462" y="157"/>
      <point x="383" y="121"/>
      <point x="333" y="121" type="qcurve" smooth="yes"/>
      <point x="211" y="121" type="line"/>
      <point x="211" y="589" type="line"/>
      <point x="333" y="589" type="line" smooth="yes"/>
      <point x="382" y="589"/>
      <point x="461" y="554"/>
      <point x="514" y="494"/>
      <point x="543" y="407"/>
    </contour>
  </outline>
</glyph>
<glyph name="E" format="2">
  <advance width="602"/>
  <unicode hex="0045"/>
  <outline>
    <contour>
      <point x="211" y="121" type="line"/>
      <point x="211" y="306" type="line"/>
      <point x="511" y="306" type="line"/>
      <point x="511" y="418" type="line"/>
      <point x="211" y="418" type="line"/>
      <point x="211" y="589" type="line"/>
      <point x="558" y="589" type="line"/>
      <point x="558" y="710" type="line"/>
      <point x="75" y="710" type="line"/>
      <point x="75" y="0" type="line"/>
      <point x="567" y="0" type="line"/>
      <point x="567" y="121" type="line"/>
    </contour>
  </outline>
</glyph>
<glyph name="F" format="2">
  <advance width="574"/>
  <unicode hex="0046"/>
  <outline>
    <contour>
      <point x="211" y="0" type="line"/>
      <point x="211" y="294" type="line"/>
      <point x="494" y="294" type="line"/>
      <point x="494" y="406" type="line"/>
      <point x="211" y="406" type="line"/>
      <point x="211" y="589" type="line"/>
      <point x="551" y="589" type="line"/>
      <point x="551" y="710" type="line"/>
      <point x="75" y="710" type="line"/>
      <point x="75" y="0" type="line"/>
    </contour>
  </outline>
</glyph>
<glyph name="G" format="2">
  <advance width="711"/>
  <unicode hex="0047"/>
  <outline>
    <contour>
      <point x="364" y="-5" type="curve" smooth="yes"/>
      <point x="477" y="-5"/>
      <point x="553" y="10"/>
      <point x="663" y="100" type="curve"/>
      <point x="663" y="398" type="line"/>
      <point x="341" y="398" type="line"/>
      <point x="345" y="238" type="line"/>
      <point x="463" y="238" type="line"/>
      <point x="463" y="184" type="line"/>
      <point x="421" y="164"/>
      <point x="421" y="164"/>
      <point x="367" y="164" type="curve" smooth="yes"/>
      <point x="257" y="164"/>
      <point x="220" y="273"/>
      <point x="220" y="356" type="curve" smooth="yes"/>
      <point x="220" y="448"/>
      <point x="265" y="542"/>
      <point x="362" y="542" type="curve" smooth="yes"/>
      <point x="450" y="542"/>
      <point x="485" y="463"/>
      <point x="491" y="449" type="curve"/>
      <point x="646" y="570" type="line"/>
      <point x="593" y="664"/>
      <point x="496" y="715"/>
      <point x="374" y="715" type="curve" smooth="yes"/>
      <point x="153" y="715"/>
      <point x="22" y="545"/>
      <point x="22" y="355" type="curve" smooth="yes"/>
      <point x="22" y="173"/>
      <point x="142" y="-5"/>
    </contour>
  </outline>
</glyph>
<glyph name="H" format="2">
  <advance width="745"/>
  <unicode hex="0048"/>
  <outline>
    <contour>
      <point x="534" y="710" type="line"/>
      <point x="534" y="423" type="line"/>
      <point x="211" y="423" type="line"/>
      <point x="211" y="710" type="line"/>
      <point x="75" y="710" type="line"/>
      <point x="75" y="0" type="line"/>
      <point x="211" y="0" type="line"/>
      <point x="211" y="303" type="line"/>
      <point x="534" y="303" type="line"/>
      <point x="534" y="0" type="line"/>
      <point x="671" y="0" type="line"/>
      <point x="671" y="710" type="line"/>
    </contour>
  </outline>
</glyph>
<glyph name="I" format="2">
  <advance width="286"/>
  <unicode hex="0049"/>
  <outline>
    <contour>
      <point x="211" y="0" type="line"/>
      <point x="211" y="710" type="line"/>
      <point x="75" y="710" type="line"/>
      <point x="75" y="0" type="line"/>
    </contour>
  </outline>
</glyph>
<glyph name="J" format="2">
  <advance width="554"/>
  <unicode hex="004A"/>
  <outline>
    <contour>
      <point x="230" y="-7" type="qcurve" smooth="yes"/>
      <point x="191" y="-7"/>
      <point x="120" y="15"/>
      <point x="61" y="57"/>
      <point x="16" y="117"/>
      <point x="4" y="155" type="qcurve"/>
      <point x="123" y="208" type="line"/>
      <point x="130" y="188"/>
      <point x="148" y="155"/>
      <point x="174" y="128"/>
      <point x="208" y="114"/>
      <point x="231" y="114" type="qcurve" smooth="yes"/>
      <point x="264" y="114"/>
      <point x="307" y="138"/>
      <point x="333" y="177"/>
      <point x="345" y="228"/>
      <point x="345" y="256" type="qcurve" smooth="yes"/>
      <point x="345" y="710" type="line"/>
      <point x="479" y="710" type="line"/>
      <point x="479" y="232" type="line" smooth="yes"/>
      <point x="479" y="178"/>
      <point x="441" y="89"/>
      <point x="374" y="26"/>
      <point x="283" y="-7"/>
    </contour>
  </outline>
</glyph>
<glyph name="K" format="2">
  <advance width="669"/>
  <unicode hex="004B"/>
  <outline>
    <contour>
      <point x="211" y="0" type="line"/>
      <point x="211" y="212" type="line"/>
      <point x="302" y="306" type="line"/>
      <point x="523" y="0" type="line"/>
      <point x="679" y="0" type="line"/>
      <point x="389" y="394" type="line"/>
      <point x="662" y="710" type="line"/>
      <point x="510" y="710" type="line"/>
      <point x="211" y="372" type="line"/>
      <point x="211" y="710" type="line"/>
      <point x="75" y="710" type="line"/>
      <point x="75" y="0" type="line"/>
    </contour>
  </outline>
</glyph>
<glyph name="L" format="2">
  <advance width="585"/>
  <unicode hex="004C"/>
  <outline>
    <contour>
      <point x="574" y="0" type="line"/>
      <point x="574" y="121" type="line"/>
      <point x="211" y="121" type="line"/>
      <point x="211" y="710" type="line"/>
      <point x="75" y="710" type="line"/>
      <point x="75" y="0" type="line"/>
    </contour>
  </outline>
</glyph>
<glyph name="M" format="2">
  <advance width="865"/>
  <unicode hex="004D"/>
  <outline>
    <contour>
      <point x="791" y="0" type="line"/>
      <point x="791" y="710" type="line"/>
      <point x="644" y="710" type="line"/>
      <point x="433" y="306" type="line"/>
      <point x="222" y="710" type="line"/>
      <point x="75" y="710" type="line"/>
      <point x="75" y="0" type="line"/>
      <point x="211" y="0" type="line"/>
      <point x="211" y="467" type="line"/>
      <point x="394" y="119" type="line"/>
      <point x="471" y="119" type="line"/>
      <point x="653" y="467" type="line"/>
      <point x="653" y="0" type="line"/>
    </contour>
  </outline>
</glyph>
<glyph name="N" format="2">
  <advance width="763"/>
  <unicode hex="004E"/>
  <outline>
    <contour>
      <point x="574" y="0" type="line"/>
      <point x="688" y="0" type="line"/>
      <point x="688" y="710" type="line"/>
      <point x="552" y="710" type="line"/>
      <point x="552" y="243" type="line"/>
      <point x="184" y="710" type="line"/>
      <point x="75" y="710" type="line"/>
      <point x="75" y="0" type="line"/>
      <point x="211" y="0" type="line"/>
      <point x="211" y="456" type="line"/>
    </contour>
  </outline>
</glyph>
<glyph name="P" format="2">
  <advance width="623"/>
  <unicode hex="0050"/>
  <outline>
    <contour>
      <point x="211" y="0" type="line"/>
      <point x="211" y="239" type="line"/>
      <point x="380" y="239" type="line" smooth="yes"/>
      <point x="430" y="239"/>
      <point x="511" y="277"/>
      <point x="569" y="344"/>
      <point x="600" y="429"/>
      <point x="600" y="474" type="qcurve" smooth="yes"/>
      <point x="600" y="518"/>
      <point x="567" y="603"/>
      <point x="507" y="669"/>
      <point x="424" y="710"/>
      <point x="375" y="710" type="qcurve" smooth="yes"/>
      <point x="75" y="710" type="line"/>
      <point x="75" y="0" type="line"/>
    </contour>
    <contour>
      <point x="211" y="589" type="line"/>
      <point x="366" y="589" type="line" smooth="yes"/>
      <point x="385" y="589"/>
      <point x="419" y="574"/>
      <point x="445" y="544"/>
      <point x="462" y="502"/>
      <point x="462" y="474" type="qcurve" smooth="yes"/>
      <point x="462" y="449"/>
      <point x="447" y="406"/>
      <point x="424" y="375"/>
      <point x="391" y="359"/>
      <point x="372" y="359" type="qcurve" smooth="yes"/>
      <point x="211" y="359" type="line"/>
    </contour>
  </outline>
</glyph>
<glyph name="Q" format="2">
  <advance width="755"/>
  <unicode hex="0051"/>
  <outline>
    <contour>
      <point x="376" y="-5" type="qcurve" smooth="yes"/>
      <point x="452" y="-5"/>
      <point x="580" y="54"/>
      <point x="672" y="153"/>
      <point x="724" y="282"/>
      <point x="724" y="353" type="qcurve" smooth="yes"/>
      <point x="724" y="420"/>
      <point x="675" y="550"/>
      <point x="584" y="652"/>
      <point x="457" y="715"/>
      <point x="379" y="715" type="qcurve" smooth="yes"/>
      <point x="305" y="715"/>
      <point x="177" y="656"/>
      <point x="84" y="556"/>
      <point x="31" y="427"/>
      <point x="31" y="356" type="qcurve" smooth="yes"/>
      <point x="31" y="287"/>
      <point x="81" y="157"/>
      <point x="172" y="56"/>
      <point x="299" y="-5"/>
    </contour>
    <contour>
      <point x="378" y="118" type="qcurve" smooth="yes"/>
      <point x="329" y="118"/>
      <point x="252" y="157"/>
      <point x="199" y="223"/>
      <point x="171" y="309"/>
      <point x="171" y="354" type="qcurve" smooth="yes"/>
      <point x="171" y="399"/>
      <point x="198" y="484"/>
      <point x="250" y="551"/>
      <point x="327" y="592"/>
      <point x="377" y="592" type="qcurve" smooth="yes"/>
      <point x="425" y="592"/>
      <point x="502" y="553"/>
      <point x="556" y="487"/>
      <point x="585" y="401"/>
      <point x="585" y="356" type="qcurve" smooth="yes"/>
      <point x="585" y="312"/>
      <point x="558" y="227"/>
      <point x="505" y="160"/>
      <point x="428" y="118"/>
    </contour>
    <contour>
      <point x="648" y="-30" type="line"/>
      <point x="728" y="51" type="line"/>
      <point x="458" y="327" type="line"/>
      <point x="377" y="248" type="line"/>
    </contour>
  </outline>
</glyph>
<glyph name="R" format="2">
  <advance width="665"/>
  <unicode hex="0052"/>
  <outline>
    <contour>
      <point x="211" y="0" type="line"/>
      <point x="211" y="239" type="line"/>
      <point x="350" y="239" type="line"/>
      <point x="496" y="0" type="line"/>
      <point x="648" y="0" type="line"/>
      <point x="486" y="267" type="line"/>
      <point x="516" y="279"/>
      <point x="563" y="322"/>
      <point x="596" y="376"/>
      <point x="614" y="440"/>
      <point x="614" y="474" type="qcurve" smooth="yes"/>
      <point x="614" y="518"/>
      <point x="580" y="603"/>
      <point x="520" y="669"/>
      <point x="438" y="710"/>
      <point x="388" y="710" type="qcurve" smooth="yes"/>
      <point x="75" y="710" type="line"/>
      <point x="75" y="0" type="line"/>
    </contour>
    <contour>
      <point x="211" y="589" type="line"/>
      <point x="380" y="589" type="line" smooth="yes"/>
      <point x="398" y="589"/>
      <point x="432" y="572"/>
      <point x="459" y="541"/>
      <point x="475" y="499"/>
      <point x="475" y="474" type="qcurve" smooth="yes"/>
      <point x="475" y="451"/>
      <point x="460" y="408"/>
      <point x="437" y="376"/>
      <point x="404" y="359"/>
      <point x="385" y="359" type="qcurve" smooth="yes"/>
      <point x="211" y="359" type="line"/>
    </contour>
  </outline>
</glyph>
<glyph name="S" format="2">
  <advance width="612"/>
  <unicode hex="0053"/>
  <outline>
    <contour>
      <point x="558" y="637" type="line"/>
      <point x="535" y="651"/>
      <point x="480" y="680"/>
      <point x="416" y="702"/>
      <point x="348" y="716"/>
      <point x="310" y="716" type="qcurve" smooth="yes"/>
      <point x="257" y="716"/>
      <point x="161" y="686"/>
      <point x="91" y="630"/>
      <point x="51" y="546"/>
      <point x="51" y="492" type="qcurve" smooth="yes"/>
      <point x="51" y="451"/>
      <point x="75" y="391"/>
      <point x="125" y="347"/>
      <point x="201" y="314"/>
      <point x="252" y="300" type="qcurve" smooth="yes"/>
      <point x="294" y="288"/>
      <point x="361" y="268"/>
      <point x="410" y="244"/>
      <point x="436" y="213"/>
      <point x="436" y="189" type="qcurve" smooth="yes"/>
      <point x="436" y="153"/>
      <point x="379" y="116"/>
      <point x="323" y="116" type="qcurve" smooth="yes"/>
      <point x="282" y="116"/>
      <point x="203" y="136"/>
      <point x="138" y="165"/>
      <point x="92" y="194"/>
      <point x="83" y="204" type="qcurve"/>
      <point x="22" y="84" type="line"/>
      <point x="53" y="63"/>
      <point x="123" y="28"/>
      <point x="200" y="4"/>
      <point x="280" y="-8"/>
      <point x="320" y="-8" type="qcurve" smooth="yes"/>
      <point x="372" y="-8"/>
      <point x="468" y="15"/>
      <point x="540" y="66"/>
      <point x="583" y="146"/>
      <point x="583" y="203" type="qcurve" smooth="yes"/>
      <point x="583" y="252"/>
      <point x="552" y="320"/>
      <point x="492" y="367"/>
      <point x="408" y="400"/>
      <point x="355" y="413" type="qcurve"/>
      <point x="315" y="424"/>
      <point x="254" y="441"/>
      <point x="213" y="462"/>
      <point x="192" y="493"/>
      <point x="192" y="514" type="qcurve" smooth="yes"/>
      <point x="192" y="552"/>
      <point x="250" y="593"/>
      <point x="306" y="593" type="qcurve" smooth="yes"/>
      <point x="338" y="593"/>
      <point x="401" y="578"/>
      <point x="453" y="554"/>
      <point x="491" y="532"/>
      <point x="497" y="524" type="qcurve"/>
    </contour>
  </outline>
</glyph>
<glyph name="T" format="2">
  <advance width="618"/>
  <unicode hex="0054"/>
  <outline>
    <contour>
      <point x="605" y="710" type="line"/>
      <point x="14" y="710" type="line"/>
      <point x="14" y="589" type="line"/>
      <point x="241" y="589" type="line"/>
      <point x="241" y="0" type="line"/>
      <point x="378" y="0" type="line"/>
      <point x="378" y="589" type="line"/>
      <point x="605" y="589" type="line"/>
    </contour>
  </outline>
</glyph>
<glyph name="U" format="2">
  <advance width="750"/>
  <unicode hex="0055"/>
  <outline>
    <contour>
      <point x="375" y="-6" type="qcurve" smooth="yes"/>
      <point x="457" y="-6"/>
      <point x="574" y="50"/>
      <point x="650" y="147"/>
      <point x="685" y="276"/>
      <point x="685" y="348" type="qcurve" smooth="yes"/>
      <point x="685" y="710" type="line"/>
      <point x="548" y="710" type="line"/>
      <point x="548" y="348" type="line" smooth="yes"/>
      <point x="548" y="305"/>
      <point x="531" y="221"/>
      <point x="491" y="157"/>
      <point x="424" y="117"/>
      <point x="374" y="117" type="qcurve" smooth="yes"/>
      <point x="326" y="117"/>
      <point x="260" y="156"/>
      <point x="219" y="220"/>
      <point x="201" y="304"/>
      <point x="201" y="348" type="qcurve" smooth="yes"/>
      <point x="201" y="710" type="line"/>
      <point x="65" y="710" type="line"/>
      <point x="65" y="348" type="line" smooth="yes"/>
      <point x="65" y="280"/>
      <point x="97" y="151"/>
      <point x="172" y="53"/>
      <point x="290" y="-6"/>
    </contour>
  </outline>
</glyph>
<glyph name="V" format="2">
  <advance width="677"/>
  <unicode hex="0056"/>
  <outline>
    <contour>
      <point x="2" y="710" type="line"/>
      <point x="272" y="0" type="line"/>
      <point x="405" y="0" type="line"/>
      <point x="673" y="710" type="line"/>
      <point x="529" y="710" type="line"/>
      <point x="338" y="163" type="line"/>
      <point x="147" y="710" type="line"/>
    </contour>
  </outline>
</glyph>
<glyph name="W" format="2">
  <advance width="1122"/>
  <unicode hex="0057"/>
  <outline>
    <contour>
      <point x="226" y="0" type="line"/>
      <point x="404" y="0" type="line"/>
      <point x="562" y="427" type="line"/>
      <point x="723" y="1" type="line"/>
      <point x="905" y="1" type="line"/>
      <point x="1118" y="710" type="line"/>
      <point x="925" y="710" type="line"/>
      <point x="801" y="253" type="line"/>
      <point x="648" y="709" type="line"/>
      <point x="481" y="709" type="line"/>
      <point x="330" y="251" type="line"/>
      <point x="205" y="709" type="line"/>
      <point x="13" y="709" type="line"/>
    </contour>
  </outline>
</glyph>
<glyph name="X" format="2">
  <advance width="646"/>
  <unicode hex="0058"/>
  <outline>
    <contour>
      <point x="-3" y="710" type="line"/>
      <point x="243" y="350" type="line"/>
      <point x="5" y="0" type="line"/>
      <point x="155" y="0" type="line"/>
      <point x="323" y="253" type="line"/>
      <point x="491" y="0" type="line"/>
      <point x="642" y="0" type="line"/>
      <point x="404" y="350" type="line"/>
      <point x="650" y="710" type="line"/>
      <point x="499" y="710" type="line"/>
      <point x="323" y="447" type="line"/>
      <point x="147" y="710" type="line"/>
    </contour>
  </outline>
</glyph>
<glyph name="Y" format="2">
  <advance width="660"/>
  <unicode hex="0059"/>
  <outline>
    <contour>
      <point x="4" y="710" type="line"/>
      <point x="261" y="251" type="line"/>
      <point x="261" y="0" type="line"/>
      <point x="398" y="0" type="line"/>
      <point x="398" y="249" type="line"/>
      <point x="657" y="710" type="line"/>
      <point x="507" y="710" type="line"/>
      <point x="330" y="376" type="line"/>
      <point x="154" y="710" type="line"/>
    </contour>
  </outline>
</glyph>
<glyph name="Z" format="2">
  <advance width="627"/>
  <unicode hex="005A"/>
  <outline>
    <contour>
      <point x="29" y="0" type="line"/>
      <point x="592" y="0" type="line"/>
      <point x="592" y="121" type="line"/>
      <point x="207" y="121" type="line"/>
      <point x="590" y="606" type="line"/>
      <point x="590" y="710" type="line"/>
      <point x="42" y="710" type="line"/>
      <point x="42" y="589" type="line"/>
      <point x="427" y="589" type="line"/>
      <point x="29" y="104" type="line"/>
    </contour>
  </outline>
</glyph>
<glyph name="bracketleft" format="2">
  <advance width="316"/>
  <unicode hex="005B"/>
  <outline>
    <contour>
      <point x="269" y="-40" type="line"/>
      <point x="269" y="68" type="line"/>
      <point x="206" y="68" type="line"/>
      <point x="206" y="632" type="line"/>
      <point x="269" y="632" type="line"/>
      <point x="269" y="740" type="line"/>
      <point x="81" y="740" type="line"/>
      <point x="81" y="-40" type="line"/>
    </contour>
  </outline>
</glyph>
<glyph name="backslash" format="2">
  <advance width="637"/>
  <unicode hex="005C"/>
  <outline>
    <contour>
      <point x="26" y="710" type="line"/>
      <point x="462" y="0" type="line"/>
      <point x="611" y="0" type="line"/>
      <point x="176" y="710" type="line"/>
    </contour>
  </outline>
</glyph>
<glyph name="bracketright" format="2">
  <advance width="316"/>
  <unicode hex="005D"/>
  <outline>
    <contour>
      <point x="234" y="-40" type="line"/>
      <point x="234" y="740" type="line"/>
      <point x="47" y="740" type="line"/>
      <point x="47" y="632" type="line"/>
      <point x="110" y="632" type="line"/>
      <point x="110" y="68" type="line"/>
      <point x="47" y="68" type="line"/>
      <point x="47" y="-40" type="line"/>
    </contour>
  </outline>
</glyph>
<glyph name="b" format="2">
  <advance width="633"/>
  <unicode hex="0062"/>
  <outline>
    <contour>
      <point x="359" y="-10" type="qcurve" smooth="yes"/>
      <point x="412" y="-10"/>
      <point x="501" y="32"/>
      <point x="567" y="104"/>
      <point x="604" y="203"/>
      <point x="604" y="260" type="qcurve" smooth="yes"/>
      <point x="604" y="315"/>
      <point x="571" y="415"/>
      <point x="510" y="489"/>
      <point x="426" y="534"/>
      <point x="375" y="534" type="qcurve" smooth="yes"/>
      <point x="314" y="534"/>
      <point x="223" y="479"/>
      <point x="195" y="432" type="qcurve"/>
      <point x="195" y="730" type="line"/>
      <point x="61" y="730" type="line"/>
      <point x="61" y="0" type="line"/>
      <point x="178" y="0" type="line"/>
      <point x="178" y="91" type="line"/>
      <point x="191" y="68"/>
      <point x="228" y="30"/>
      <point x="275" y="4"/>
      <point x="329" y="-10"/>
    </contour>
    <contour>
      <point x="322" y="104" type="qcurve" smooth="yes"/>
      <point x="303" y="104"/>
      <point x="264" y="117"/>
      <point x="229" y="140"/>
      <point x="201" y="173"/>
      <point x="195" y="192" type="qcurve"/>
      <point x="195" y="317" type="line"/>
      <point x="204" y="339"/>
      <point x="232" y="376"/>
      <point x="267" y="404"/>
      <point x="307" y="419"/>
      <point x="330" y="419" type="qcurve" smooth="yes"/>
      <point x="360" y="419"/>
      <point x="410" y="393"/>
      <point x="447" y="349"/>
      <point x="467" y="291"/>
      <point x="467" y="260" type="qcurve" smooth="yes"/>
      <point x="467" y="228"/>
      <point x="446" y="171"/>
      <point x="407" y="128"/>
      <point x="353" y="104"/>
    </contour>
  </outline>
</glyph>
<glyph name="c" format="2">
  <advance width="564"/>
  <unicode hex="0063"/>
  <outline>
    <contour>
      <point x="305" y="-10" type="qcurve" smooth="yes"/>
      <point x="348" y="-10"/>
      <point x="422" y="11"/>
      <point x="484" y="47"/>
      <point x="529" y="97"/>
      <point x="543" y="126" type="qcurve"/>
      <point x="412" y="166" type="line"/>
      <point x="406" y="153"/>
      <point x="384" y="130"/>
      <point x="355" y="114"/>
      <point x="321" y="104"/>
      <point x="303" y="104" type="qcurve" smooth="yes"/>
      <point x="274" y="104"/>
      <point x="225" y="127"/>
      <point x="187" y="169"/>
      <point x="166" y="228"/>
      <point x="166" y="263" type="qcurve" smooth="yes"/>
      <point x="166" y="298"/>
      <point x="187" y="355"/>
      <point x="224" y="397"/>
      <point x="274" y="419"/>
      <point x="302" y="419" type="qcurve" smooth="yes"/>
      <point x="337" y="419"/>
      <point x="393" y="388"/>
      <point x="410" y="359" type="qcurve"/>
      <point x="541" y="399" type="line"/>
      <point x="510" y="459"/>
      <point x="390" y="534"/>
      <point x="304" y="534" type="qcurve" smooth="yes"/>
      <point x="239" y="534"/>
      <point x="138" y="490"/>
      <point x="66" y="416"/>
      <point x="28" y="317"/>
      <point x="28" y="263" type="qcurve" smooth="yes"/>
      <point x="28" y="208"/>
      <point x="67" y="109"/>
      <point x="139" y="35"/>
      <point x="240" y="-10"/>
    </contour>
  </outline>
</glyph>
<glyph name="e" format="2">
  <advance width="599"/>
  <unicode hex="0065"/>
  <outline>
    <contour>
      <point x="305" y="-10" type="qcurve" smooth="yes"/>
      <point x="347" y="-10"/>
      <point x="423" y="11"/>
      <point x="486" y="47"/>
      <point x="533" y="97"/>
      <point x="547" y="127" type="qcurve"/>
      <point x="433" y="159" type="line"/>
      <point x="427" y="143"/>
      <point x="401" y="116"/>
      <point x="368" y="98"/>
      <point x="328" y="87"/>
      <point x="308" y="87" type="qcurve" smooth="yes"/>
      <point x="283" y="87"/>
      <point x="235" y="106"/>
      <point x="197" y="140"/>
      <point x="173" y="189"/>
      <point x="171" y="219" type="qcurve"/>
      <point x="575" y="219" type="line"/>
      <point x="576" y="227"/>
      <point x="578" y="251"/>
      <point x="578" y="264" type="qcurve" smooth="yes"/>
      <point x="578" y="317"/>
      <point x="541" y="415"/>
      <point x="471" y="489"/>
      <point x="369" y="534"/>
      <point x="305" y="534" type="qcurve" smooth="yes"/>
      <point x="241" y="534"/>
      <point x="138" y="490"/>
      <point x="66" y="415"/>
      <point x="28" y="314"/>
      <point x="28" y="258" type="qcurve" smooth="yes"/>
      <point x="28" y="204"/>
      <point x="67" y="107"/>
      <point x="138" y="33"/>
      <point x="240" y="-10"/>
    </contour>
    <contour>
      <point x="167" y="304" type="line"/>
      <point x="170" y="333"/>
      <point x="193" y="383"/>
      <point x="229" y="417"/>
      <point x="276" y="436"/>
      <point x="304" y="436" type="qcurve" smooth="yes"/>
      <point x="331" y="436"/>
      <point x="378" y="417"/>
      <point x="415" y="383"/>
      <point x="438" y="333"/>
      <point x="441" y="304" type="qcurve"/>
    </contour>
  </outline>
</glyph>
<glyph name="f" format="2">
  <advance width="370"/>
  <unicode hex="0066"/>
  <outline>
    <contour>
      <point x="227" y="0" type="line"/>
      <point x="227" y="394" type="line"/>
      <point x="355" y="394" type="line"/>
      <point x="355" y="496" type="line"/>
      <point x="227" y="496" type="line"/>
      <point x="227" y="533" type="line" smooth="yes"/>
      <point x="227" y="579"/>
      <point x="262" y="627"/>
      <point x="297" y="627" type="qcurve" smooth="yes"/>
      <point x="314" y="627"/>
      <point x="354" y="617"/>
      <point x="370" y="608" type="qcurve"/>
      <point x="397" y="709" type="line"/>
      <point x="366" y="724"/>
      <point x="300" y="740"/>
      <point x="268" y="740" type="qcurve" smooth="yes"/>
      <point x="228" y="740"/>
      <point x="163" y="710"/>
      <point x="118" y="655"/>
      <point x="93" y="577"/>
      <point x="93" y="528" type="qcurve" smooth="yes"/>
      <point x="93" y="496" type="line"/>
      <point x="25" y="496" type="line"/>
      <point x="25" y="394" type="line"/>
      <point x="93" y="394" type="line"/>
      <point x="93" y="0" type="line"/>
    </contour>
  </outline>
</glyph>
<glyph name="g" format="2">
  <advance width="634"/>
  <unicode hex="0067"/>
  <outline>
    <contour>
      <point x="266" y="-3" type="qcurve" smooth="yes"/>
      <point x="319" y="-3"/>
      <point x="413" y="46"/>
      <point x="440" y="91" type="qcurve"/>
      <point x="440" y="25" type="line" smooth="yes"/>
      <point x="440" y="-13"/>
      <point x="414" y="-69"/>
      <point x="372" y="-105"/>
      <point x="315" y="-122"/>
      <point x="284" y="-122" type="qcurve" smooth="yes"/>
      <point x="232" y="-122"/>
      <point x="141" y="-80"/>
      <point x="111" y="-43" type="qcurve"/>
      <point x="38" y="-114" type="line"/>
      <point x="80" y="-165"/>
      <point x="197" y="-223"/>
      <point x="284" y="-223" type="qcurve" smooth="yes"/>
      <point x="346" y="-223"/>
      <point x="453" y="-189"/>
      <point x="530" y="-125"/>
      <point x="574" y="-34"/>
      <point x="574" y="25" type="qcurve" smooth="yes"/>
      <point x="574" y="524" type="line"/>
      <point x="457" y="524" type="line"/>
      <point x="457" y="432" type="line"/>
      <point x="443" y="454"/>
      <point x="404" y="492"/>
      <point x="358" y="519"/>
      <point x="304" y="534"/>
      <point x="274" y="534" type="qcurve" smooth="yes"/>
      <point x="220" y="534"/>
      <point x="130" y="491"/>
      <point x="66" y="418"/>
      <point x="30" y="318"/>
      <point x="30" y="262" type="qcurve" smooth="yes"/>
      <point x="30" y="208"/>
      <point x="64" y="112"/>
      <point x="127" y="40"/>
      <point x="214" y="-3"/>
    </contour>
    <contour>
      <point x="311" y="104" type="qcurve" smooth="yes"/>
      <point x="281" y="104"/>
      <point x="228" y="128"/>
      <point x="189" y="169"/>
      <point x="167" y="226"/>
      <point x="167" y="259" type="qcurve" smooth="yes"/>
      <point x="167" y="289"/>
      <point x="187" y="348"/>
      <point x="222" y="392"/>
      <point x="273" y="419"/>
      <point x="303" y="419" type="qcurve" smooth="yes"/>
      <point x="325" y="419"/>
      <point x="365" y="405"/>
      <point x="402" y="377"/>
      <point x="431" y="340"/>
      <point x="440" y="317" type="qcurve"/>
      <point x="440" y="193" type="line"/>
      <point x="433" y="175"/>
      <point x="407" y="142"/>
      <point x="373" y="118"/>
      <point x="333" y="104"/>
    </contour>
  </outline>
</glyph>
<glyph name="k" format="2">
  <advance width="558"/>
  <unicode hex="006B"/>
  <outline>
    <contour>
      <point x="562" y="0" type="line"/>
      <point x="352" y="301" type="line"/>
      <point x="548" y="524" type="line"/>
      <point x="406" y="524" type="line"/>
      <point x="195" y="289" type="line"/>
      <point x="195" y="730" type="line"/>
      <point x="61" y="730" type="line"/>
      <point x="61" y="0" type="line"/>
      <point x="195" y="0" type="line"/>
      <point x="195" y="156" type="line"/>
      <point x="266" y="226" type="line"/>
      <point x="419" y="0" type="line"/>
    </contour>
  </outline>
</glyph>
<glyph name="l" format="2">
  <advance width="317"/>
  <unicode hex="006C"/>
  <outline>
    <contour>
      <point x="60" y="120" type="line" smooth="yes"/>
      <point x="60" y="59"/>
      <point x="129" y="-9"/>
      <point x="192" y="-9" type="qcurve" smooth="yes"/>
      <point x="222" y="-9"/>
      <point x="293" y="7"/>
      <point x="320" y="18" type="qcurve"/>
      <point x="302" y="122" type="line"/>
      <point x="289" y="116"/>
      <point x="255" y="107"/>
      <point x="238" y="107" type="qcurve" smooth="yes"/>
      <point x="229" y="107"/>
      <point x="212" y="112"/>
      <point x="200" y="126"/>
      <point x="194" y="149"/>
      <point x="194" y="168" type="qcurve" smooth="yes"/>
      <point x="194" y="730" type="line"/>
      <point x="60" y="730" type="line"/>
    </contour>
  </outline>
</glyph>
<glyph name="m" format="2">
  <advance width="931"/>
  <unicode hex="006D"/>
  <outline>
    <contour>
      <point x="875" y="328" type="line" smooth="yes"/>
      <point x="875" y="365"/>
      <point x="862" y="439"/>
      <point x="828" y="497"/>
      <point x="767" y="534"/>
      <point x="718" y="534" type="qcurve" smooth="yes"/>
      <point x="655" y="534"/>
      <point x="557" y="477"/>
      <point x="525" y="422" type="qcurve"/>
      <point x="515" y="469"/>
      <point x="443" y="534"/>
      <point x="378" y="534" type="qcurve" smooth="yes"/>
      <point x="312" y="534"/>
      <point x="212" y="478"/>
      <point x="181" y="427" type="qcurve"/>
      <point x="181" y="524" type="line"/>
      <point x="61" y="524" type="line"/>
      <point x="61" y="0" type="line"/>
      <point x="195" y="0" type="line"/>
      <point x="195" y="306" type="line"/>
      <point x="203" y="330"/>
      <point x="229" y="370"/>
      <point x="262" y="399"/>
      <point x="300" y="415"/>
      <point x="319" y="415" type="qcurve" smooth="yes"/>
      <point x="358" y="415"/>
      <point x="401" y="358"/>
      <point x="401" y="294" type="qcurve" smooth="yes"/>
      <point x="401" y="0" type="line"/>
      <point x="535" y="0" type="line"/>
      <point x="535" y="305" type="line"/>
      <point x="542" y="329"/>
      <point x="568" y="370"/>
      <point x="602" y="399"/>
      <point x="640" y="415"/>
      <point x="660" y="415" type="qcurve" smooth="yes"/>
      <point x="698" y="415"/>
      <point x="741" y="357"/>
      <point x="741" y="294" type="qcurve" smooth="yes"/>
      <point x="741" y="0" type="line"/>
      <point x="875" y="0" type="line"/>
    </contour>
  </outline>
</glyph>
<glyph name="n" format="2">
  <advance width="604"/>
  <unicode hex="006E"/>
  <outline>
    <contour>
      <point x="548" y="328" type="line" smooth="yes"/>
      <point x="548" y="365"/>
      <point x="535" y="439"/>
      <point x="501" y="497"/>
      <point x="439" y="534"/>
      <point x="390" y="534" type="qcurve" smooth="yes"/>
      <point x="356" y="534"/>
      <point x="293" y="519"/>
      <point x="240" y="491"/>
      <point x="196" y="452"/>
      <point x="181" y="427" type="qcurve"/>
      <point x="181" y="524" type="line"/>
      <point x="61" y="524" type="line"/>
      <point x="61" y="0" type="line"/>
      <point x="195" y="0" type="line"/>
      <point x="195" y="306" type="line"/>
      <point x="203" y="330"/>
      <point x="232" y="370"/>
      <point x="269" y="399"/>
      <point x="311" y="415"/>
      <point x="331" y="415" type="qcurve" smooth="yes"/>
      <point x="370" y="415"/>
      <point x="414" y="358"/>
      <point x="414" y="294" type="qcurve" smooth="yes"/>
      <point x="414" y="0" type="line"/>
      <point x="548" y="0" type="line"/>
    </contour>
  </outline>
</glyph>
<glyph name="p" format="2">
  <advance width="633"/>
  <unicode hex="0070"/>
  <outline>
    <contour>
      <point x="375" y="-10" type="qcurve" smooth="yes"/>
      <point x="425" y="-10"/>
      <point x="509" y="32"/>
      <point x="570" y="105"/>
      <point x="604" y="206"/>
      <point x="604" y="263" type="qcurve" smooth="yes"/>
      <point x="604" y="318"/>
      <point x="567" y="417"/>
      <point x="502" y="490"/>
      <point x="412" y="534"/>
      <point x="359" y="534" type="qcurve" smooth="yes"/>
      <point x="299" y="534"/>
      <point x="208" y="480"/>
      <point x="178" y="434" type="qcurve"/>
      <point x="178" y="524" type="line"/>
      <point x="61" y="524" type="line"/>
      <point x="61" y="-213" type="line"/>
      <point x="195" y="-213" type="line"/>
      <point x="195" y="92" type="line"/>
      <point x="208" y="69"/>
      <point x="244" y="31"/>
      <point x="290" y="4"/>
      <point x="344" y="-10"/>
    </contour>
    <contour>
      <point x="330" y="104" type="qcurve" smooth="yes"/>
      <point x="308" y="104"/>
      <point x="268" y="120"/>
      <point x="233" y="147"/>
      <point x="204" y="186"/>
      <point x="195" y="208" type="qcurve"/>
      <point x="195" y="331" type="line"/>
      <point x="201" y="350"/>
      <point x="229" y="383"/>
      <point x="264" y="406"/>
      <point x="303" y="419"/>
      <point x="322" y="419" type="qcurve" smooth="yes"/>
      <point x="353" y="419"/>
      <point x="406" y="395"/>
      <point x="445" y="353"/>
      <point x="467" y="296"/>
      <point x="467" y="264" type="qcurve" smooth="yes"/>
      <point x="467" y="232"/>
      <point x="447" y="175"/>
      <point x="411" y="130"/>
      <point x="361" y="104"/>
    </contour>
  </outline>
</glyph>
<glyph name="q" format="2">
  <advance width="633"/>
  <unicode hex="0071"/>
  <outline>
    <contour>
      <point x="259" y="-10" type="qcurve" smooth="yes"/>
      <point x="318" y="-10"/>
      <point x="410" y="42"/>
      <point x="439" y="92" type="qcurve"/>
      <point x="439" y="-214" type="line"/>
      <point x="573" y="-214" type="line"/>
      <point x="573" y="524" type="line"/>
      <point x="456" y="524" type="line"/>
      <point x="456" y="433" type="line"/>
      <point x="442" y="456"/>
      <point x="404" y="492"/>
      <point x="358" y="519"/>
      <point x="305" y="534"/>
      <point x="275" y="534" type="qcurve" smooth="yes"/>
      <point x="223" y="534"/>
      <point x="133" y="491"/>
      <point x="67" y="418"/>
      <point x="30" y="319"/>
      <point x="30" y="263" type="qcurve" smooth="yes"/>
      <point x="30" y="206"/>
      <point x="64" y="107"/>
      <point x="125" y="33"/>
      <point x="209" y="-10"/>
    </contour>
    <contour>
      <point x="309" y="104" type="qcurve" smooth="yes"/>
      <point x="278" y="104"/>
      <point x="225" y="128"/>
      <point x="188" y="170"/>
      <point x="167" y="227"/>
      <point x="167" y="260" type="qcurve" smooth="yes"/>
      <point x="167" y="291"/>
      <point x="188" y="349"/>
      <point x="225" y="393"/>
      <point x="276" y="419"/>
      <point x="306" y="419" type="qcurve" smooth="yes"/>
      <point x="327" y="419"/>
      <point x="370" y="403"/>
      <point x="406" y="375"/>
      <point x="434" y="337"/>
      <point x="439" y="314" type="qcurve"/>
      <point x="439" y="190" type="line"/>
      <point x="428" y="171"/>
      <point x="401" y="139"/>
      <point x="368" y="117"/>
      <point x="331" y="104"/>
    </contour>
  </outline>
</glyph>
<glyph name="r" format="2">
  <advance width="409"/>
  <unicode hex="0072"/>
  <outline>
    <contour>
      <point x="415" y="527" type="line"/>
      <point x="402" y="531"/>
      <point x="375" y="534"/>
      <point x="351" y="534" type="curve" smooth="yes"/>
      <point x="288" y="534"/>
      <point x="227" y="489"/>
      <point x="189" y="414" type="curve"/>
      <point x="189" y="524" type="line"/>
      <point x="59" y="524" type="line"/>
      <point x="59" y="0" type="line"/>
      <point x="200" y="0" type="line"/>
      <point x="200" y="317" type="line"/>
      <point x="217" y="348"/>
      <point x="239" y="372"/>
      <point x="263" y="387" type="curve" smooth="yes"/>
      <point x="288" y="403"/>
      <point x="314" y="411"/>
      <point x="338" y="411" type="curve" smooth="yes"/>
      <point x="351" y="411"/>
      <point x="364" y="409"/>
      <point x="377" y="405" type="curve"/>
    </contour>
  </outline>
</glyph>
<glyph name="s" format="2">
  <advance width="494"/>
  <unicode hex="0073"/>
  <outline>
    <contour>
      <point x="254" y="-10" type="qcurve" smooth="yes"/>
      <point x="302" y="-10"/>
      <point x="380" y="13"/>
      <point x="435" y="55"/>
      <point x="464" y="117"/>
      <point x="464" y="156" type="qcurve" smooth="yes"/>
      <point x="464" y="192"/>
      <point x="439" y="240"/>
      <point x="389" y="274"/>
      <point x="317" y="301"/>
      <point x="270" y="315" type="qcurve" smooth="yes"/>
      <point x="246" y="322"/>
      <point x="210" y="334"/>
      <point x="186" y="348"/>
      <point x="175" y="367"/>
      <point x="175" y="381" type="qcurve" smooth="yes"/>
      <point x="175" y="396"/>
      <point x="189" y="417"/>
      <point x="210" y="430"/>
      <point x="240" y="435"/>
      <point x="256" y="435" type="qcurve" smooth="yes"/>
      <point x="293" y="435"/>
      <point x="365" y="406"/>
      <point x="404" y="375" type="qcurve"/>
      <point x="459" y="461" type="line"/>
      <point x="417" y="499"/>
      <point x="318" y="534"/>
      <point x="263" y="534" type="qcurve" smooth="yes"/>
      <point x="214" y="534"/>
      <point x="136" y="510"/>
      <point x="80" y="466"/>
      <point x="50" y="404"/>
      <point x="50" y="366" type="qcurve" smooth="yes"/>
      <point x="50" y="332"/>
      <point x="72" y="286"/>
      <point x="116" y="252"/>
      <point x="182" y="226"/>
      <point x="225" y="212" type="qcurve" smooth="yes"/>
      <point x="251" y="204"/>
      <point x="292" y="192"/>
      <point x="320" y="178"/>
      <point x="335" y="159"/>
      <point x="335" y="145" type="qcurve" smooth="yes"/>
      <point x="335" y="117"/>
      <point x="288" y="90"/>
      <point x="249" y="90" type="qcurve" smooth="yes"/>
      <point x="206" y="90"/>
      <point x="116" y="126"/>
      <point x="69" y="164" type="qcurve"/>
      <point x="21" y="77" type="line"/>
      <point x="65" y="34"/>
      <point x="187" y="-10"/>
    </contour>
  </outline>
</glyph>
<glyph name="t" format="2">
  <advance width="384"/>
  <unicode hex="0074"/>
  <outline>
    <contour>
      <point x="349" y="133" type="line"/>
      <point x="342" y="130"/>
      <point x="326" y="123"/>
      <point x="307" y="118"/>
      <point x="285" y="114"/>
      <point x="275" y="114" type="qcurve" smooth="yes"/>
      <point x="255" y="114"/>
      <point x="226" y="137"/>
      <point x="225" y="165" type="qcurve"/>
      <point x="225" y="422" type="line"/>
      <point x="336" y="422" type="line"/>
      <point x="336" y="524" type="line"/>
      <point x="225" y="524" type="line"/>
      <point x="225" y="693" type="line"/>
      <point x="91" y="693" type="line"/>
      <point x="91" y="524" type="line"/>
      <point x="22" y="524" type="line"/>
      <point x="22" y="422" type="line"/>
      <point x="91" y="422" type="line"/>
      <point x="91" y="120" type="line" smooth="yes"/>
      <point x="91" y="85"/>
      <point x="112" y="36"/>
      <point x="150" y="5"/>
      <point x="199" y="-9"/>
      <point x="227" y="-9" type="qcurve" smooth="yes"/>
      <point x="248" y="-9"/>
      <point x="290" y="-2"/>
      <point x="328" y="8"/>
      <point x="362" y="21"/>
      <point x="376" y="28" type="qcurve"/>
    </contour>
  </outline>
</glyph>
<glyph name="v" format="2">
  <advance width="549"/>
  <unicode hex="0076"/>
  <outline>
    <contour>
      <point x="347" y="0" type="line"/>
      <point x="540" y="524" type="line"/>
      <point x="413" y="524" type="line"/>
      <point x="280" y="122" type="line"/>
      <point x="148" y="524" type="line"/>
      <point x="9" y="524" type="line"/>
      <point x="202" y="0" type="line"/>
    </contour>
  </outline>
</glyph>
<glyph name="w" format="2">
  <advance width="868"/>
  <unicode hex="0077"/>
  <outline>
    <contour>
      <point x="16" y="522" type="line"/>
      <point x="195" y="0" type="line"/>
      <point x="330" y="0" type="line"/>
      <point x="436" y="337" type="line"/>
      <point x="542" y="0" type="line"/>
      <point x="677" y="0" type="line"/>
      <point x="854" y="522" type="line"/>
      <point x="729" y="522" type="line"/>
      <point x="603" y="137" type="line"/>
      <point x="493" y="522" type="line"/>
      <point x="378" y="522" type="line"/>
      <point x="268" y="137" type="line"/>
      <point x="142" y="522" type="line"/>
    </contour>
  </outline>
</glyph>
<glyph name="x" format="2">
  <advance width="531"/>
  <unicode hex="0078"/>
  <outline>
    <contour>
      <point x="7" y="524" type="line"/>
      <point x="189" y="261" type="line"/>
      <point x="4" y="0" type="line"/>
      <point x="145" y="0" type="line"/>
      <point x="257" y="163" type="line"/>
      <point x="266" y="180" type="line"/>
      <point x="275" y="163" type="line"/>
      <point x="387" y="0" type="line"/>
      <point x="528" y="0" type="line"/>
      <point x="343" y="263" type="line"/>
      <point x="525" y="524" type="line"/>
      <point x="384" y="524" type="line"/>
      <point x="275" y="360" type="line"/>
      <point x="266" y="342" type="line"/>
      <point x="257" y="360" type="line"/>
      <point x="147" y="524" type="line"/>
    </contour>
  </outline>
</glyph>
<glyph name="y" format="2">
  <advance width="550"/>
  <unicode hex="0079"/>
  <outline>
    <contour>
      <point x="413" y="524" type="line"/>
      <point x="286" y="128" type="line"/>
      <point x="144" y="524" type="line"/>
      <point x="6" y="524" type="line"/>
      <point x="213" y="0" type="line"/>
      <point x="129" y="-213" type="line"/>
      <point x="283" y="-213" type="line"/>
      <point x="538" y="524" type="line"/>
    </contour>
  </outline>
</glyph>
<glyph name="z" format="2">
  <advance width="494"/>
  <unicode hex="007A"/>
  <outline>
    <contour>
      <point x="27" y="0" type="line"/>
      <point x="463" y="0" type="line"/>
      <point x="463" y="93" type="line"/>
      <point x="172" y="93" type="line"/>
      <point x="459" y="442" type="line"/>
      <point x="459" y="524" type="line"/>
      <point x="38" y="524" type="line"/>
      <point x="38" y="430" type="line"/>
      <point x="316" y="430" type="line"/>
      <point x="27" y="82" type="line"/>
    </contour>
  </outline>
</glyph>
<glyph name="braceleft" format="2">
  <advance width="318"/>
  <unicode hex="007B"/>
  <outline>
    <contour>
      <point x="267" y="632" type="line"/>
      <point x="267" y="740" type="line"/>
      <point x="115" y="740" type="line" smooth="yes"/>
      <point x="110" y="740"/>
      <point x="92" y="728"/>
      <point x="92" y="710" type="qcurve" smooth="yes"/>
      <point x="92" y="473" type="line" smooth="yes"/>
      <point x="92" y="463"/>
      <point x="84" y="439"/>
      <point x="70" y="421"/>
      <point x="53" y="408"/>
      <point x="42" y="408" type="qcurve"/>
      <point x="42" y="314" type="line"/>
      <point x="62" y="310"/>
      <point x="92" y="274"/>
      <point x="92" y="247" type="qcurve" smooth="yes"/>
      <point x="92" y="-1" type="line" smooth="yes"/>
      <point x="92" y="-19"/>
      <point x="107" y="-31"/>
      <point x="115" y="-31" type="qcurve" smooth="yes"/>
      <point x="267" y="-31" type="line"/>
      <point x="267" y="77" type="line"/>
      <point x="212" y="77" type="line"/>
      <point x="212" y="291" type="line" smooth="yes"/>
      <point x="212" y="311"/>
      <point x="193" y="346"/>
      <point x="178" y="360" type="qcurve"/>
      <point x="194" y="374"/>
      <point x="212" y="409"/>
      <point x="212" y="429" type="qcurve" smooth="yes"/>
      <point x="212" y="632" type="line"/>
    </contour>
  </outline>
</glyph>
<glyph name="bar" format="2">
  <advance width="272"/>
  <unicode hex="007C"/>
  <outline>
    <contour>
      <point x="194" y="-130" type="line"/>
      <point x="194" y="775" type="line"/>
      <point x="79" y="775" type="line"/>
      <point x="79" y="-130" type="line"/>
    </contour>
  </outline>
</glyph>
<glyph name="braceright" format="2">
  <advance width="318"/>
  <unicode hex="007D"/>
  <outline>
    <contour>
      <point x="105" y="632" type="line"/>
      <point x="105" y="429" type="line" smooth="yes"/>
      <point x="105" y="409"/>
      <point x="124" y="374"/>
      <point x="140" y="360" type="qcurve"/>
      <point x="124" y="346"/>
      <point x="105" y="311"/>
      <point x="105" y="291" type="qcurve" smooth="yes"/>
      <point x="105" y="77" type="line"/>
      <point x="50" y="77" type="line"/>
      <point x="50" y="-31" type="line"/>
      <point x="202" y="-31" type="line" smooth="yes"/>
      <point x="209" y="-31"/>
      <point x="225" y="-19"/>
      <point x="225" y="-1" type="qcurve" smooth="yes"/>
      <point x="225" y="247" type="line" smooth="yes"/>
      <point x="225" y="274"/>
      <point x="255" y="310"/>
      <point x="276" y="314" type="qcurve"/>
      <point x="276" y="408" type="line"/>
      <point x="266" y="408"/>
      <point x="247" y="421"/>
      <point x="234" y="439"/>
      <point x="225" y="463"/>
      <point x="225" y="473" type="qcurve" smooth="yes"/>
      <point x="225" y="710" type="line" smooth="yes"/>
      <point x="225" y="728"/>
      <point x="208" y="740"/>
      <point x="202" y="740" type="qcurve" smooth="yes"/>
      <point x="50" y="740" type="line"/>
      <point x="50" y="632" type="line"/>
    </contour>
  </outline>
</glyph>
<glyph name="asciitilde" format="2">
  <advance width="568"/>
  <unicode hex="007E"/>
  <outline>
    <contour>
      <point x="56" y="227" type="qcurve"/>
      <point x="130" y="227" type="line"/>
      <point x="130" y="228"/>
      <point x="135" y="245"/>
      <point x="148" y="264"/>
      <point x="173" y="280"/>
      <point x="194" y="280" type="qcurve" smooth="yes"/>
      <point x="216" y="280"/>
      <point x="255" y="264"/>
      <point x="297" y="245"/>
      <point x="343" y="227"/>
      <point x="370" y="227" type="qcurve" smooth="yes"/>
      <point x="411" y="227"/>
      <point x="466" y="264"/>
      <point x="499" y="310"/>
      <point x="514" y="352"/>
      <point x="514" y="358" type="qcurve"/>
      <point x="440" y="358" type="line"/>
      <point x="440" y="356"/>
      <point x="434" y="339"/>
      <point x="419" y="321"/>
      <point x="392" y="306"/>
      <point x="371" y="306" type="qcurve" smooth="yes"/>
      <point x="349" y="306"/>
      <point x="308" y="323"/>
      <point x="267" y="343"/>
      <point x="222" y="360"/>
      <point x="195" y="360" type="qcurve" smooth="yes"/>
      <point x="155" y="360"/>
      <point x="102" y="326"/>
      <point x="70" y="281"/>
      <point x="56" y="236"/>
    </contour>
  </outline>
</glyph>
<glyph name="exclamdown" format="2">
  <advance width="307"/>
  <unicode hex="00A1"/>
  <outline>
    <contour>
      <point x="239" y="444" type="qcurve" smooth="yes"/>
      <point x="239" y="462"/>
      <point x="225" y="492"/>
      <point x="202" y="516"/>
      <point x="171" y="529"/>
      <point x="154" y="529" type="qcurve" smooth="yes"/>
      <point x="136" y="529"/>
      <point x="106" y="516"/>
      <point x="82" y="492"/>
      <point x="68" y="462"/>
      <point x="68" y="444" type="qcurve" smooth="yes"/>
      <point x="68" y="426"/>
      <point x="82" y="396"/>
      <point x="106" y="374"/>
      <point x="136" y="359"/>
      <point x="154" y="359" type="qcurve" smooth="yes"/>
      <point x="171" y="359"/>
      <point x="202" y="374"/>
      <point x="225" y="396"/>
      <point x="239" y="426"/>
    </contour>
    <contour>
      <point x="112" y="252" type="line"/>
      <point x="86" y="-4" type="line"/>
      <point x="86" y="-198" type="line"/>
      <point x="221" y="-198" type="line"/>
      <point x="221" y="-4" type="line"/>
      <point x="195" y="252" type="line"/>
    </contour>
  </outline>
</glyph>
<glyph name="cent" format="2">
  <advance width="592"/>
  <unicode hex="00A2"/>
  <outline>
    <contour>
      <point x="336" y="-120" type="line"/>
      <point x="336" y="-10" type="line"/>
      <point x="362" y="-10"/>
      <point x="426" y="7"/>
      <point x="487" y="41"/>
      <point x="540" y="92"/>
      <point x="555" y="126" type="qcurve"/>
      <point x="424" y="166" type="line"/>
      <point x="420" y="154"/>
      <point x="401" y="135"/>
      <point x="377" y="120"/>
      <point x="350" y="110"/>
      <point x="336" y="107" type="qcurve"/>
      <point x="336" y="415" type="line"/>
      <point x="362" y="413"/>
      <point x="408" y="384"/>
      <point x="422" y="359" type="qcurve"/>
      <point x="552" y="399" type="line"/>
      <point x="520" y="463"/>
      <point x="406" y="530"/>
      <point x="336" y="532" type="qcurve"/>
      <point x="336" y="645" type="line"/>
      <point x="276" y="645" type="line"/>
      <point x="276" y="532" type="line"/>
      <point x="218" y="523"/>
      <point x="131" y="473"/>
      <point x="71" y="400"/>
      <point x="39" y="309"/>
      <point x="39" y="258" type="qcurve" smooth="yes"/>
      <point x="39" y="210"/>
      <point x="74" y="118"/>
      <point x="137" y="44"/>
      <point x="224" y="-5"/>
      <point x="276" y="-9" type="qcurve"/>
      <point x="276" y="-120" type="line"/>
    </contour>
    <contour>
      <point x="177" y="258" type="qcurve" smooth="yes"/>
      <point x="177" y="284"/>
      <point x="190" y="335"/>
      <point x="216" y="376"/>
      <point x="252" y="404"/>
      <point x="276" y="409" type="qcurve"/>
      <point x="276" y="114" type="line"/>
      <point x="254" y="120"/>
      <point x="217" y="149"/>
      <point x="191" y="187"/>
      <point x="177" y="234"/>
    </contour>
  </outline>
</glyph>
<glyph name="sterling" format="2">
  <advance width="545"/>
  <unicode hex="00A3"/>
  <outline>
    <contour>
      <point x="56" y="280" type="line"/>
      <point x="434" y="280" type="line"/>
      <point x="434" y="381" type="line"/>
      <point x="56" y="381" type="line"/>
    </contour>
    <contour>
      <point x="80" y="-9" type="line"/>
      <point x="112" y="2"/>
      <point x="181" y="13"/>
      <point x="208" y="13" type="qcurve" smooth="yes"/>
      <point x="232" y="13"/>
      <point x="279" y="5"/>
      <point x="325" y="-6"/>
      <point x="370" y="-15"/>
      <point x="393" y="-15" type="qcurve" smooth="yes"/>
      <point x="422" y="-15"/>
      <point x="483" y="2"/>
      <point x="508" y="15" type="qcurve"/>
      <point x="475" y="115" type="line"/>
      <point x="453" y="107"/>
      <point x="418" y="99"/>
      <point x="400" y="99" type="qcurve" smooth="yes"/>
      <point x="383" y="99"/>
      <point x="350" y="105"/>
      <point x="317" y="110"/>
      <point x="282" y="116"/>
      <point x="264" y="116" type="qcurve" smooth="yes"/>
      <point x="247" y="116"/>
      <point x="210" y="110"/>
      <point x="188" y="104" type="qcurve"/>
      <point x="211" y="127"/>
      <point x="244" y="172"/>
      <point x="264" y="214"/>
      <point x="273" y="256"/>
      <point x="273" y="279" type="qcurve" smooth="yes"/>
      <point x="273" y="319"/>
      <point x="250" y="386"/>
      <point x="220" y="444"/>
      <point x="196" y="497"/>
      <point x="196" y="524" type="qcurve" smooth="yes"/>
      <point x="196" y="542"/>
      <point x="209" y="572"/>
      <point x="231" y="594"/>
      <point x="262" y="606"/>
      <point x="280" y="606" type="qcurve" smooth="yes"/>
      <point x="317" y="606"/>
      <point x="394" y="562"/>
      <point x="419" y="527" type="qcurve"/>
      <point x="490" y="610" type="line"/>
      <point x="452" y="660"/>
      <point x="343" y="715"/>
      <point x="282" y="715" type="qcurve" smooth="yes"/>
      <point x="239" y="715"/>
      <point x="164" y="687"/>
      <point x="108" y="639"/>
      <point x="75" y="575"/>
      <point x="75" y="537" type="qcurve" smooth="yes"/>
      <point x="75" y="502"/>
      <point x="102" y="438"/>
      <point x="132" y="376"/>
      <point x="158" y="310"/>
      <point x="158" y="273" type="qcurve" smooth="yes"/>
      <point x="158" y="250"/>
      <point x="144" y="202"/>
      <point x="118" y="155"/>
      <point x="78" y="109"/>
      <point x="51" y="87" type="qcurve"/>
    </contour>
  </outline>
</glyph>
<glyph name="currency" format="2">
  <advance width="552"/>
  <unicode hex="00A4"/>
  <outline>
    <contour>
      <point x="100" y="567" type="line"/>
      <point x="45" y="513" type="line"/>
      <point x="114" y="443" type="line"/>
      <point x="99" y="420"/>
      <point x="84" y="366"/>
      <point x="84" y="338" type="qcurve" smooth="yes"/>
      <point x="84" y="308"/>
      <point x="100" y="254"/>
      <point x="115" y="231" type="qcurve"/>
      <point x="45" y="161" type="line"/>
      <point x="95" y="112" type="line"/>
      <point x="167" y="180" type="line"/>
      <point x="190" y="166"/>
      <point x="245" y="151"/>
      <point x="277" y="151" type="qcurve" smooth="yes"/>
      <point x="308" y="151"/>
      <point x="362" y="166"/>
      <point x="383" y="180" type="qcurve"/>
      <point x="457" y="112" type="line"/>
      <point x="506" y="161" type="line"/>
      <point x="437" y="230" type="line"/>
      <point x="453" y="253"/>
      <point x="469" y="308"/>
      <point x="469" y="338" type="qcurve" smooth="yes"/>
      <point x="469" y="367"/>
      <point x="453" y="421"/>
      <point x="438" y="444" type="qcurve"/>
      <point x="506" y="513" type="line"/>
      <point x="452" y="567" type="line"/>
      <point x="381" y="496" type="line"/>
      <point x="359" y="510"/>
      <point x="307" y="524"/>
      <point x="277" y="524" type="qcurve" smooth="yes"/>
      <point x="246" y="524"/>
      <point x="192" y="510"/>
      <point x="170" y="496" type="qcurve"/>
    </contour>
    <contour>
      <point x="183" y="337" type="qcurve" smooth="yes"/>
      <point x="183" y="359"/>
      <point x="198" y="397"/>
      <point x="222" y="424"/>
      <point x="256" y="440"/>
      <point x="277" y="440" type="qcurve" smooth="yes"/>
      <point x="296" y="440"/>
      <point x="330" y="425"/>
      <point x="356" y="398"/>
      <point x="370" y="361"/>
      <point x="370" y="338" type="qcurve" smooth="yes"/>
      <point x="370" y="315"/>
      <point x="356" y="277"/>
      <point x="330" y="250"/>
      <point x="296" y="235"/>
      <point x="277" y="235" type="qcurve" smooth="yes"/>
      <point x="256" y="235"/>
      <point x="222" y="250"/>
      <point x="198" y="276"/>
      <point x="183" y="315"/>
    </contour>
  </outline>
</glyph>
<glyph name="yen" format="2">
  <advance width="712"/>
  <unicode hex="00A5"/>
  <outline>
    <contour>
      <point x="681" y="710" type="line"/>
      <point x="531" y="710" type="line"/>
      <point x="354" y="369" type="line"/>
      <point x="178" y="710" type="line"/>
      <point x="30" y="710" type="line"/>
      <point x="205" y="402" type="line"/>
      <point x="131" y="402" type="line"/>
      <point x="131" y="314" type="line"/>
      <point x="250" y="314" type="line"/>
      <point x="285" y="251" type="line"/>
      <point x="285" y="218" type="line"/>
      <point x="130" y="218" type="line"/>
      <point x="130" y="131" type="line"/>
      <point x="285" y="131" type="line"/>
      <point x="285" y="0" type="line"/>
      <point x="423" y="0" type="line"/>
      <point x="423" y="131" type="line"/>
      <point x="578" y="131" type="line"/>
      <point x="578" y="218" type="line"/>
      <point x="423" y="218" type="line"/>
      <point x="423" y="249" type="line"/>
      <point x="458" y="314" type="line"/>
      <point x="577" y="314" type="line"/>
      <point x="577" y="402" type="line"/>
      <point x="504" y="402" type="line"/>
    </contour>
  </outline>
</glyph>
<glyph name="brokenbar" format="2">
  <advance width="275"/>
  <unicode hex="00A6"/>
  <outline>
    <contour>
      <point x="80" y="264" type="line"/>
      <point x="80" y="-130" type="line"/>
      <point x="195" y="-130" type="line"/>
      <point x="195" y="264" type="line"/>
    </contour>
    <contour>
      <point x="80" y="775" type="line"/>
      <point x="80" y="381" type="line"/>
      <point x="195" y="381" type="line"/>
      <point x="195" y="775" type="line"/>
    </contour>
  </outline>
</glyph>
<glyph name="section" format="2">
  <advance width="533"/>
  <unicode hex="00A7"/>
  <outline>
    <contour>
      <point x="456" y="215" type="qcurve"/>
      <point x="463" y="224"/>
      <point x="477" y="268"/>
      <point x="477" y="297" type="qcurve" smooth="yes"/>
      <point x="477" y="344"/>
      <point x="437" y="407"/>
      <point x="376" y="447"/>
      <point x="299" y="465"/>
      <point x="262" y="465" type="qcurve" smooth="yes"/>
      <point x="244" y="465"/>
      <point x="214" y="471"/>
      <point x="191" y="485"/>
      <point x="178" y="509"/>
      <point x="178" y="527" type="qcurve" smooth="yes"/>
      <point x="178" y="543"/>
      <point x="191" y="568"/>
      <point x="214" y="587"/>
      <point x="245" y="596"/>
      <point x="262" y="596" type="qcurve" smooth="yes"/>
      <point x="279" y="596"/>
      <point x="309" y="589"/>
      <point x="335" y="575"/>
      <point x="356" y="556"/>
      <point x="363" y="543" type="qcurve"/>
      <point x="466" y="592" type="line"/>
      <point x="454" y="610"/>
      <point x="417" y="653"/>
      <point x="365" y="690"/>
      <point x="297" y="715"/>
      <point x="254" y="715" type="qcurve" smooth="yes"/>
      <point x="211" y="715"/>
      <point x="133" y="685"/>
      <point x="77" y="632"/>
      <point x="43" y="564"/>
      <point x="43" y="525" type="qcurve" smooth="yes"/>
      <point x="43" y="486"/>
      <point x="70" y="428"/>
      <point x="84" y="415" type="qcurve"/>
      <point x="78" y="406"/>
      <point x="65" y="370"/>
      <point x="65" y="341" type="qcurve" smooth="yes"/>
      <point x="65" y="303"/>
      <point x="93" y="240"/>
      <point x="146" y="195"/>
      <point x="222" y="167"/>
      <point x="273" y="164" type="qcurve" smooth="yes"/>
      <point x="287" y="163"/>
      <point x="314" y="158"/>
      <point x="338" y="147"/>
      <point x="352" y="125"/>
      <point x="352" y="108" type="qcurve" smooth="yes"/>
      <point x="352" y="92"/>
      <point x="337" y="65"/>
      <point x="312" y="48"/>
      <point x="280" y="39"/>
      <point x="263" y="39" type="qcurve" smooth="yes"/>
      <point x="230" y="39"/>
      <point x="169" y="66"/>
      <point x="139" y="98" type="qcurve"/>
      <point x="53" y="16" type="line"/>
      <point x="65" y="2"/>
      <point x="106" y="-34"/>
      <point x="161" y="-67"/>
      <point x="230" y="-88"/>
      <point x="268" y="-88" type="qcurve" smooth="yes"/>
      <point x="303" y="-88"/>
      <point x="382" y="-66"/>
      <point x="448" y="-18"/>
      <point x="491" y="59"/>
      <point x="491" y="113" type="qcurve" smooth="yes"/>
      <point x="491" y="151"/>
      <point x="472" y="201"/>
    </contour>
    <contour>
      <point x="195" y="323" type="qcurve" smooth="yes"/>
      <point x="195" y="336"/>
      <point x="205" y="359"/>
      <point x="211" y="366" type="qcurve"/>
      <point x="219" y="363"/>
      <point x="250" y="357"/>
      <point x="267" y="357" type="qcurve" smooth="yes"/>
      <point x="280" y="357"/>
      <point x="310" y="351"/>
      <point x="334" y="336"/>
      <point x="350" y="311"/>
      <point x="350" y="293" type="qcurve" smooth="yes"/>
      <point x="350" y="280"/>
      <point x="341" y="256"/>
      <point x="332" y="248" type="qcurve"/>
      <point x="321" y="253"/>
      <point x="292" y="255"/>
      <point x="263" y="259"/>
      <point x="233" y="265"/>
      <point x="209" y="279"/>
      <point x="195" y="304"/>
    </contour>
  </outline>
</glyph>
<glyph name="copyright" format="2">
  <advance width="841"/>
  <unicode hex="00A9"/>
  <outline>
    <contour>
      <point x="418" y="-7" type="qcurve" smooth="yes"/>
      <point x="499" y="-7"/>
      <point x="639" y="48"/>
      <point x="741" y="145"/>
      <point x="799" y="277"/>
      <point x="799" y="355" type="qcurve" smooth="yes"/>
      <point x="799" y="432"/>
      <point x="741" y="564"/>
      <point x="639" y="660"/>
      <point x="499" y="715"/>
      <point x="418" y="715" type="qcurve" smooth="yes"/>
      <point x="337" y="715"/>
      <point x="199" y="660"/>
      <point x="100" y="564"/>
      <point x="43" y="432"/>
      <point x="43" y="355" type="qcurve" smooth="yes"/>
      <point x="43" y="277"/>
      <point x="100" y="145"/>
      <point x="199" y="48"/>
      <point x="337" y="-7"/>
    </contour>
    <contour>
      <point x="418" y="46" type="qcurve" smooth="yes"/>
      <point x="350" y="46"/>
      <point x="232" y="94"/>
      <point x="148" y="177"/>
      <point x="100" y="290"/>
      <point x="100" y="355" type="qcurve" smooth="yes"/>
      <point x="100" y="419"/>
      <point x="148" y="531"/>
      <point x="233" y="615"/>
      <point x="350" y="662"/>
      <point x="418" y="662" type="qcurve" smooth="yes"/>
      <point x="487" y="662"/>
      <point x="606" y="615"/>
      <point x="692" y="531"/>
      <point x="741" y="419"/>
      <point x="741" y="354" type="qcurve" smooth="yes"/>
      <point x="741" y="286"/>
      <point x="691" y="172"/>
      <point x="604" y="91"/>
      <point x="486" y="46"/>
    </contour>
    <contour>
      <point x="427" y="120" type="qcurve" smooth="yes"/>
      <point x="467" y="120"/>
      <point x="538" y="141"/>
      <point x="593" y="177"/>
      <point x="633" y="224"/>
      <point x="644" y="249" type="qcurve"/>
      <point x="517" y="287" type="line"/>
      <point x="510" y="274"/>
      <point x="491" y="254"/>
      <point x="465" y="239"/>
      <point x="438" y="232"/>
      <point x="424" y="232" type="qcurve" smooth="yes"/>
      <point x="404" y="232"/>
      <point x="364" y="248"/>
      <point x="331" y="279"/>
      <point x="312" y="325"/>
      <point x="312" y="354" type="qcurve" smooth="yes"/>
      <point x="312" y="380"/>
      <point x="327" y="425"/>
      <point x="356" y="458"/>
      <point x="397" y="478"/>
      <point x="423" y="478" type="qcurve" smooth="yes"/>
      <point x="436" y="478"/>
      <point x="461" y="472"/>
      <point x="485" y="460"/>
      <point x="507" y="439"/>
      <point x="514" y="424" type="qcurve"/>
      <point x="641" y="464" type="line"/>
      <point x="614" y="521"/>
      <point x="502" y="589"/>
      <point x="423" y="589" type="qcurve" smooth="yes"/>
      <point x="363" y="589"/>
      <point x="270" y="550"/>
      <point x="210" y="484"/>
      <point x="178" y="400"/>
      <point x="178" y="354" type="qcurve" smooth="yes"/>
      <point x="178" y="306"/>
      <point x="214" y="220"/>
      <point x="279" y="157"/>
      <point x="371" y="120"/>
    </contour>
  </outline>
</glyph>
<glyph name="ordfeminine" format="2">
  <advance width="444"/>
  <unicode hex="00AA"/>
  <outline>
    <contour>
      <point x="161" y="339" type="qcurve" smooth="yes"/>
      <point x="198" y="339"/>
      <point x="264" y="372"/>
      <point x="288" y="404" type="qcurve"/>
      <point x="289" y="348" type="line"/>
      <point x="371" y="348" type="line"/>
      <point x="371" y="563" type="line" smooth="yes"/>
      <point x="371" y="636"/>
      <point x="285" y="713"/>
      <point x="207" y="713" type="qcurve" smooth="yes"/>
      <point x="167" y="713"/>
      <point x="93" y="690"/>
      <point x="58" y="667" type="qcurve"/>
      <point x="87" y="604" type="line"/>
      <point x="116" y="624"/>
      <point x="170" y="645"/>
      <point x="198" y="645" type="qcurve" smooth="yes"/>
      <point x="236" y="645"/>
      <point x="273" y="608"/>
      <point x="273" y="574" type="qcurve" smooth="yes"/>
      <point x="273" y="556" type="line"/>
      <point x="256" y="563"/>
      <point x="213" y="571"/>
      <point x="190" y="571" type="qcurve" smooth="yes"/>
      <point x="124" y="571"/>
      <point x="40" y="506"/>
      <point x="40" y="453" type="qcurve" smooth="yes"/>
      <point x="40" y="428"/>
      <point x="58" y="387"/>
      <point x="91" y="357"/>
      <point x="135" y="339"/>
    </contour>
    <contour>
      <point x="189" y="411" type="qcurve" smooth="yes"/>
      <point x="164" y="411"/>
      <point x="132" y="440"/>
      <point x="132" y="462" type="qcurve" smooth="yes"/>
      <point x="132" y="486"/>
      <point x="174" y="515"/>
      <point x="206" y="515" type="qcurve" smooth="yes"/>
      <point x="223" y="515"/>
      <point x="258" y="509"/>
      <point x="273" y="503" type="qcurve"/>
      <point x="273" y="464" type="line" smooth="yes"/>
      <point x="273" y="458"/>
      <point x="266" y="444"/>
      <point x="259" y="438" type="qcurve"/>
      <point x="248" y="426"/>
      <point x="210" y="411"/>
    </contour>
  </outline>
</glyph>
<glyph name="guillemotleft" format="2">
  <advance width="649"/>
  <unicode hex="00AB"/>
  <outline>
    <contour>
      <point x="36" y="224" type="line"/>
      <point x="299" y="46" type="line"/>
      <point x="299" y="156" type="line"/>
      <point x="141" y="259" type="line"/>
      <point x="299" y="368" type="line"/>
      <point x="299" y="477" type="line"/>
      <point x="36" y="288" type="line"/>
    </contour>
    <contour>
      <point x="326" y="224" type="line"/>
      <point x="590" y="46" type="line"/>
      <point x="590" y="156" type="line"/>
      <point x="433" y="259" type="line"/>
      <point x="590" y="368" type="line"/>
      <point x="590" y="477" type="line"/>
      <point x="326" y="288" type="line"/>
    </contour>
  </outline>
</glyph>
<glyph name="logicalnot" format="2">
  <advance width="612"/>
  <unicode hex="00AC"/>
  <outline>
    <contour>
      <point x="59" y="400" type="line"/>
      <point x="59" y="279" type="line"/>
      <point x="433" y="279" type="line"/>
      <point x="433" y="106" type="line"/>
      <point x="547" y="106" type="line"/>
      <point x="547" y="400" type="line"/>
    </contour>
  </outline>
</glyph>
<glyph name="softhyphen" format="2">
  <advance width="603"/>
  <unicode hex="00AD"/>
  <outline>
    <contour>
      <point x="546" y="214" type="line"/>
      <point x="546" y="335" type="line"/>
      <point x="58" y="335" type="line"/>
      <point x="58" y="214" type="line"/>
    </contour>
  </outline>
</glyph>
<glyph name="registered" format="2">
  <advance width="841"/>
  <unicode hex="00AE"/>
  <outline>
    <contour>
      <point x="419" y="-7" type="qcurve" smooth="yes"/>
      <point x="500" y="-7"/>
      <point x="639" y="48"/>
      <point x="741" y="145"/>
      <point x="799" y="277"/>
      <point x="799" y="355" type="qcurve" smooth="yes"/>
      <point x="799" y="432"/>
      <point x="741" y="564"/>
      <point x="639" y="660"/>
      <point x="500" y="715"/>
      <point x="419" y="715" type="qcurve" smooth="yes"/>
      <point x="338" y="715"/>
      <point x="199" y="660"/>
      <point x="100" y="564"/>
      <point x="43" y="432"/>
      <point x="43" y="355" type="qcurve" smooth="yes"/>
      <point x="43" y="277"/>
      <point x="100" y="145"/>
      <point x="199" y="48"/>
      <point x="338" y="-7"/>
    </contour>
    <contour>
      <point x="420" y="45" type="qcurve" smooth="yes"/>
      <point x="350" y="45"/>
      <point x="234" y="93"/>
      <point x="150" y="177"/>
      <point x="103" y="290"/>
      <point x="103" y="354" type="qcurve" smooth="yes"/>
      <point x="103" y="419"/>
      <point x="150" y="531"/>
      <point x="234" y="614"/>
      <point x="350" y="662"/>
      <point x="420" y="662" type="qcurve" smooth="yes"/>
      <point x="489" y="662"/>
      <point x="605" y="614"/>
      <point x="690" y="531"/>
      <point x="738" y="418"/>
      <point x="738" y="353" type="qcurve" smooth="yes"/>
      <point x="738" y="286"/>
      <point x="689" y="173"/>
      <point x="603" y="91"/>
      <point x="487" y="45"/>
    </contour>
    <contour>
      <point x="257" y="136" type="line"/>
      <point x="352" y="136" type="line"/>
      <point x="352" y="284" type="line"/>
      <point x="416" y="284" type="line"/>
      <point x="508" y="136" type="line"/>
      <point x="615" y="136" type="line"/>
      <point x="511" y="301" type="line"/>
      <point x="530" y="309"/>
      <point x="560" y="336"/>
      <point x="580" y="369"/>
      <point x="593" y="409"/>
      <point x="593" y="429" type="qcurve" smooth="yes"/>
      <point x="593" y="456"/>
      <point x="572" y="509"/>
      <point x="535" y="551"/>
      <point x="483" y="576"/>
      <point x="452" y="576" type="qcurve" smooth="yes"/>
      <point x="257" y="576" type="line"/>
    </contour>
    <contour>
      <point x="352" y="364" type="line"/>
      <point x="352" y="494" type="line"/>
      <point x="442" y="494" type="line" smooth="yes"/>
      <point x="453" y="494"/>
      <point x="474" y="486"/>
      <point x="489" y="470"/>
      <point x="498" y="446"/>
      <point x="498" y="430" type="qcurve" smooth="yes"/>
      <point x="498" y="413"/>
      <point x="491" y="389"/>
      <point x="477" y="372"/>
      <point x="457" y="364"/>
      <point x="444" y="364" type="qcurve" smooth="yes"/>
    </contour>
  </outline>
</glyph>
<glyph name="degree" format="2">
  <advance width="285"/>
  <unicode hex="00B0"/>
  <outline>
    <contour>
      <point x="40" y="625" type="qcurve" smooth="yes"/>
      <point x="40" y="579"/>
      <point x="97" y="519"/>
      <point x="142" y="519" type="qcurve" smooth="yes"/>
      <point x="187" y="519"/>
      <point x="245" y="577"/>
      <point x="245" y="625" type="qcurve" smooth="yes"/>
      <point x="245" y="667"/>
      <point x="187" y="724"/>
      <point x="142" y="724" type="qcurve" smooth="yes"/>
      <point x="97" y="724"/>
      <point x="40" y="667"/>
    </contour>
    <contour>
      <point x="116" y="648" type="qcurve"/>
      <point x="121" y="654"/>
      <point x="134" y="659"/>
      <point x="142" y="659" type="qcurve" smooth="yes"/>
      <point x="149" y="659"/>
      <point x="164" y="654"/>
      <point x="169" y="649" type="qcurve"/>
      <point x="174" y="643"/>
      <point x="180" y="629"/>
      <point x="180" y="621" type="qcurve" smooth="yes"/>
      <point x="180" y="615"/>
      <point x="174" y="601"/>
      <point x="169" y="596" type="qcurve"/>
      <point x="164" y="590"/>
      <point x="149" y="584"/>
      <point x="142" y="584" type="qcurve" smooth="yes"/>
      <point x="134" y="584"/>
      <point x="121" y="590"/>
      <point x="116" y="596" type="qcurve"/>
      <point x="111" y="601"/>
      <point x="104" y="614"/>
      <point x="104" y="621" type="qcurve" smooth="yes"/>
      <point x="104" y="629"/>
      <point x="111" y="643"/>
    </contour>
  </outline>
</glyph>
<glyph name="plusminus" format="2">
  <advance width="472"/>
  <unicode hex="00B1"/>
  <outline>
    <contour>
      <point x="413" y="28" type="line"/>
      <point x="413" y="136" type="line"/>
      <point x="59" y="136" type="line"/>
      <point x="59" y="28" type="line"/>
    </contour>
    <contour>
      <point x="296" y="430" type="line"/>
      <point x="296" y="556" type="line"/>
      <point x="176" y="556" type="line"/>
      <point x="176" y="430" type="line"/>
      <point x="59" y="430" type="line"/>
      <point x="59" y="323" type="line"/>
      <point x="176" y="323" type="line"/>
      <point x="176" y="197" type="line"/>
      <point x="296" y="197" type="line"/>
      <point x="296" y="323" type="line"/>
      <point x="413" y="323" type="line"/>
      <point x="413" y="430" type="line"/>
    </contour>
  </outline>
</glyph>
<glyph name="twosuperior" format="2">
  <advance width="416"/>
  <unicode hex="00B2"/>
  <outline>
    <contour>
      <point x="380" y="390" type="line"/>
      <point x="380" y="467" type="line"/>
      <point x="149" y="467" type="line"/>
      <point x="149" y="479"/>
      <point x="162" y="502"/>
      <point x="188" y="522"/>
      <point x="226" y="541"/>
      <point x="250" y="549" type="qcurve"/>
      <point x="270" y="554"/>
      <point x="316" y="574"/>
      <point x="356" y="605"/>
      <point x="383" y="653"/>
      <point x="383" y="685" type="qcurve" smooth="yes"/>
      <point x="383" y="716"/>
      <point x="362" y="763"/>
      <point x="320" y="797"/>
      <point x="258" y="815"/>
      <point x="218" y="815" type="qcurve" smooth="yes"/>
      <point x="181" y="815"/>
      <point x="121" y="802"/>
      <point x="73" y="782"/>
      <point x="41" y="757"/>
      <point x="34" y="746" type="qcurve"/>
      <point x="84" y="689" type="line"/>
      <point x="92" y="698"/>
      <point x="117" y="717"/>
      <point x="148" y="732"/>
      <point x="186" y="742"/>
      <point x="208" y="742" type="qcurve" smooth="yes"/>
      <point x="249" y="742"/>
      <point x="294" y="709"/>
      <point x="294" y="682" type="qcurve" smooth="yes"/>
      <point x="294" y="662"/>
      <point x="269" y="634"/>
      <point x="230" y="611"/>
      <point x="182" y="593"/>
      <point x="160" y="584" type="qcurve"/>
      <point x="124" y="568"/>
      <point x="74" y="532"/>
      <point x="44" y="488"/>
      <point x="31" y="429"/>
      <point x="31" y="390" type="qcurve"/>
    </contour>
  </outline>
</glyph>
<glyph name="threesuperior" format="2">
  <advance width="407"/>
  <unicode hex="00B3"/>
  <outline>
    <contour>
      <point x="195" y="383" type="qcurve" smooth="yes"/>
      <point x="230" y="383"/>
      <point x="294" y="397"/>
      <point x="344" y="427"/>
      <point x="373" y="472"/>
      <point x="373" y="503" type="qcurve" smooth="yes"/>
      <point x="373" y="543"/>
      <point x="322" y="604"/>
      <point x="277" y="611" type="qcurve"/>
      <point x="318" y="619"/>
      <point x="362" y="665"/>
      <point x="362" y="700" type="qcurve" smooth="yes"/>
      <point x="362" y="725"/>
      <point x="338" y="767"/>
      <point x="294" y="798"/>
      <point x="233" y="815"/>
      <point x="196" y="815" type="qcurve" smooth="yes"/>
      <point x="172" y="815"/>
      <point x="122" y="808"/>
      <point x="77" y="793"/>
      <point x="40" y="771"/>
      <point x="29" y="756" type="qcurve"/>
      <point x="78" y="696" type="line"/>
      <point x="95" y="716"/>
      <point x="151" y="744"/>
      <point x="191" y="744" type="qcurve" smooth="yes"/>
      <point x="206" y="744"/>
      <point x="236" y="738"/>
      <point x="259" y="726"/>
      <point x="273" y="707"/>
      <point x="273" y="693" type="qcurve" smooth="yes"/>
      <point x="273" y="667"/>
      <point x="216" y="643"/>
      <point x="157" y="643" type="qcurve" smooth="yes"/>
      <point x="133" y="643" type="line"/>
      <point x="133" y="571" type="line"/>
      <point x="157" y="571" type="line" smooth="yes"/>
      <point x="224" y="571"/>
      <point x="288" y="544"/>
      <point x="288" y="516" type="qcurve" smooth="yes"/>
      <point x="288" y="488"/>
      <point x="232" y="460"/>
      <point x="192" y="460" type="qcurve" smooth="yes"/>
      <point x="168" y="460"/>
      <point x="128" y="470"/>
      <point x="97" y="487"/>
      <point x="76" y="506"/>
      <point x="70" y="516" type="qcurve"/>
      <point x="28" y="462" type="line"/>
      <point x="43" y="424"/>
      <point x="134" y="383"/>
    </contour>
  </outline>
</glyph>
<glyph name="micro" format="2">
  <advance width="664"/>
  <unicode hex="00B5"/>
  <outline>
    <contour>
      <point x="76" y="-213" type="line"/>
      <point x="210" y="-213" type="line"/>
      <point x="203" y="49" type="line"/>
      <point x="206" y="39"/>
      <point x="219" y="19"/>
      <point x="242" y="1"/>
      <point x="273" y="-10"/>
      <point x="292" y="-10" type="qcurve" smooth="yes"/>
      <point x="319" y="-10"/>
      <point x="369" y="11"/>
      <point x="413" y="42"/>
      <point x="446" y="80"/>
      <point x="454" y="98" type="qcurve"/>
      <point x="466" y="0" type="line"/>
      <point x="567" y="0" type="line"/>
      <point x="567" y="524" type="line"/>
      <point x="434" y="524" type="line"/>
      <point x="434" y="199" type="line"/>
      <point x="422" y="175"/>
      <point x="392" y="139"/>
      <point x="357" y="115"/>
      <point x="319" y="104"/>
      <point x="301" y="104" type="qcurve" smooth="yes"/>
      <point x="255" y="104"/>
      <point x="210" y="164"/>
      <point x="210" y="224" type="qcurve" smooth="yes"/>
      <point x="210" y="524" type="line"/>
      <point x="76" y="524" type="line"/>
    </contour>
  </outline>
</glyph>
<glyph name="paragraph" format="2">
  <advance width="657"/>
  <unicode hex="00B6"/>
  <outline>
    <contour>
      <point x="34" y="456" type="qcurve" smooth="yes"/>
      <point x="34" y="400"/>
      <point x="67" y="308"/>
      <point x="127" y="244"/>
      <point x="212" y="209"/>
      <point x="263" y="208" type="qcurve"/>
      <point x="263" y="-80" type="line"/>
      <point x="377" y="-80" type="line"/>
      <point x="377" y="208" type="line"/>
      <point x="427" y="208" type="line"/>
      <point x="427" y="-80" type="line"/>
      <point x="541" y="-80" type="line"/>
      <point x="541" y="610" type="line"/>
      <point x="611" y="610" type="line"/>
      <point x="611" y="710" type="line"/>
      <point x="316" y="710" type="line" smooth="yes"/>
      <point x="182" y="710"/>
      <point x="34" y="578"/>
    </contour>
    <contour>
      <point x="146" y="459" type="qcurve" smooth="yes"/>
      <point x="146" y="525"/>
      <point x="207" y="607"/>
      <point x="263" y="610" type="qcurve"/>
      <point x="263" y="308" type="line"/>
      <point x="239" y="310"/>
      <point x="196" y="332"/>
      <point x="165" y="371"/>
      <point x="146" y="425"/>
    </contour>
    <contour>
      <point x="427" y="308" type="line"/>
      <point x="377" y="308" type="line"/>
      <point x="377" y="610" type="line"/>
      <point x="427" y="610" type="line"/>
    </contour>
  </outline>
</glyph>
<glyph name="onesuperior" format="2">
  <advance width="298"/>
  <unicode hex="00B9"/>
  <outline>
    <contour>
      <point x="207" y="469" type="line"/>
      <point x="207" y="815" type="line"/>
      <point x="126" y="815" type="line"/>
      <point x="126" y="814"/>
      <point x="108" y="796"/>
      <point x="80" y="775"/>
      <point x="47" y="758"/>
      <point x="32" y="758" type="qcurve"/>
      <point x="32" y="679" type="line"/>
      <point x="44" y="679"/>
      <point x="72" y="690"/>
      <point x="99" y="706"/>
      <point x="121" y="723"/>
      <point x="126" y="730" type="qcurve"/>
      <point x="126" y="469" type="line"/>
      <point x="48" y="469" type="line"/>
      <point x="48" y="390" type="line"/>
      <point x="277" y="390" type="line"/>
      <point x="277" y="469" type="line"/>
    </contour>
  </outline>
</glyph>
<glyph name="ordmasculine" format="2">
  <advance width="444"/>
  <unicode hex="00BA"/>
  <outline>
    <contour>
      <point x="221" y="339" type="qcurve" smooth="yes"/>
      <point x="266" y="339"/>
      <point x="335" y="370"/>
      <point x="383" y="421"/>
      <point x="408" y="488"/>
      <point x="408" y="525" type="qcurve" smooth="yes"/>
      <point x="408" y="563"/>
      <point x="383" y="632"/>
      <point x="335" y="683"/>
      <point x="266" y="713"/>
      <point x="221" y="713" type="qcurve" smooth="yes"/>
      <point x="178" y="713"/>
      <point x="109" y="683"/>
      <point x="61" y="632"/>
      <point x="36" y="563"/>
      <point x="36" y="525" type="qcurve" smooth="yes"/>
      <point x="36" y="488"/>
      <point x="61" y="421"/>
      <point x="109" y="370"/>
      <point x="178" y="339"/>
    </contour>
    <contour>
      <point x="135" y="525" type="qcurve" smooth="yes"/>
      <point x="135" y="548"/>
      <point x="148" y="586"/>
      <point x="171" y="613"/>
      <point x="204" y="628"/>
      <point x="221" y="628" type="qcurve" smooth="yes"/>
      <point x="240" y="628"/>
      <point x="271" y="614"/>
      <point x="295" y="586"/>
      <point x="308" y="549"/>
      <point x="308" y="526" type="qcurve" smooth="yes"/>
      <point x="308" y="504"/>
      <point x="295" y="466"/>
      <point x="271" y="439"/>
      <point x="240" y="423"/>
      <point x="221" y="423" type="qcurve" smooth="yes"/>
      <point x="204" y="423"/>
      <point x="171" y="439"/>
      <point x="148" y="465"/>
      <point x="135" y="504"/>
    </contour>
  </outline>
</glyph>
<glyph name="guillemotright" format="2">
  <advance width="649"/>
  <unicode hex="00BB"/>
  <outline>
    <contour>
      <point x="613" y="288" type="line"/>
      <point x="350" y="477" type="line"/>
      <point x="350" y="368" type="line"/>
      <point x="507" y="259" type="line"/>
      <point x="350" y="156" type="line"/>
      <point x="350" y="46" type="line"/>
      <point x="613" y="224" type="line"/>
    </contour>
    <contour>
      <point x="322" y="288" type="line"/>
      <point x="58" y="477" type="line"/>
      <point x="58" y="368" type="line"/>
      <point x="216" y="259" type="line"/>
      <point x="58" y="156" type="line"/>
      <point x="58" y="46" type="line"/>
      <point x="322" y="224" type="line"/>
    </contour>
  </outline>
</glyph>
<glyph name="onehalf" format="2">
  <advance width="913"/>
  <unicode hex="00BD"/>
  <outline>
    <contour>
      <point x="207" y="384" type="line"/>
      <point x="207" y="731" type="line"/>
      <point x="126" y="731" type="line"/>
      <point x="126" y="730"/>
      <point x="108" y="712"/>
      <point x="80" y="691"/>
      <point x="47" y="673"/>
      <point x="32" y="673" type="qcurve"/>
      <point x="32" y="594" type="line"/>
      <point x="44" y="594"/>
      <point x="72" y="605"/>
      <point x="99" y="621"/>
      <point x="121" y="639"/>
      <point x="126" y="645" type="qcurve"/>
      <point x="126" y="384" type="line"/>
      <point x="48" y="384" type="line"/>
      <point x="48" y="305" type="line"/>
      <point x="277" y="305" type="line"/>
      <point x="277" y="384" type="line"/>
    </contour>
    <contour>
      <point x="158" y="-8" type="line"/>
      <point x="425" y="340" type="line"/>
      <point x="700" y="663" type="line"/>
      <point x="639" y="718" type="line"/>
      <point x="378" y="376" type="line"/>
      <point x="97" y="48" type="line"/>
    </contour>
    <contour>
      <point x="876" y="0" type="line"/>
      <point x="876" y="78" type="line"/>
      <point x="646" y="78" type="line"/>
      <point x="646" y="90"/>
      <point x="659" y="112"/>
      <point x="684" y="134"/>
      <point x="721" y="152"/>
      <point x="746" y="159" type="qcurve"/>
      <point x="765" y="165"/>
      <point x="809" y="185"/>
      <point x="848" y="216"/>
      <point x="875" y="263"/>
      <point x="875" y="296" type="qcurve" smooth="yes"/>
      <point x="875" y="326"/>
      <point x="854" y="374"/>
      <point x="813" y="408"/>
      <point x="752" y="427"/>
      <point x="712" y="427" type="qcurve" smooth="yes"/>
      <point x="677" y="427"/>
      <point x="618" y="412"/>
      <point x="571" y="392"/>
      <point x="539" y="368"/>
      <point x="532" y="358" type="qcurve"/>
      <point x="581" y="300" type="line"/>
      <point x="590" y="309"/>
      <point x="613" y="328"/>
      <point x="644" y="344"/>
      <point x="681" y="353"/>
      <point x="703" y="353" type="qcurve" smooth="yes"/>
      <point x="742" y="353"/>
      <point x="788" y="320"/>
      <point x="788" y="292" type="qcurve" smooth="yes"/>
      <point x="788" y="272"/>
      <point x="763" y="244"/>
      <point x="725" y="222"/>
      <point x="678" y="204"/>
      <point x="656" y="194" type="qcurve" smooth="yes"/>
      <point x="621" y="178"/>
      <point x="572" y="144"/>
      <point x="542" y="99"/>
      <point x="529" y="40"/>
      <point x="529" y="0" type="qcurve"/>
    </contour>
  </outline>
</glyph>
<glyph name="questiondown" format="2">
  <advance width="486"/>
  <unicode hex="00BF"/>
  <outline>
    <contour>
      <point x="293" y="293" type="line"/>
      <point x="293" y="284"/>
      <point x="288" y="275"/>
      <point x="278" y="266" type="curve"/>
      <point x="215" y="213"/>
      <point x="35" y="144"/>
      <point x="35" y="4" type="curve" smooth="yes"/>
      <point x="35" y="-119"/>
      <point x="122" y="-193"/>
      <point x="242" y="-193" type="curve" smooth="yes"/>
      <point x="330" y="-193"/>
      <point x="416" y="-147"/>
      <point x="452" y="-64" type="curve"/>
      <point x="365" y="-4" type="line"/>
      <point x="338" y="-47"/>
      <point x="301" y="-84"/>
      <point x="247" y="-84" type="curve" smooth="yes"/>
      <point x="196" y="-84"/>
      <point x="152" y="-52"/>
      <point x="152" y="2" type="curve" smooth="yes"/>
      <point x="152" y="112"/>
      <point x="346" y="124"/>
      <point x="346" y="231" type="curve" smooth="yes"/>
      <point x="346" y="254"/>
      <point x="337" y="274"/>
      <point x="324" y="293" type="curve"/>
    </contour>
    <contour>
      <point x="379" y="463" type="curve" smooth="yes"/>
      <point x="379" y="503"/>
      <point x="347" y="536"/>
      <point x="307" y="536" type="curve" smooth="yes"/>
      <point x="266" y="536"/>
      <point x="233" y="504"/>
      <point x="233" y="463" type="curve" smooth="yes"/>
      <point x="233" y="422"/>
      <point x="266" y="389"/>
      <point x="307" y="389" type="curve" smooth="yes"/>
      <point x="348" y="389"/>
      <point x="379" y="423"/>
    </contour>
  </outline>
</glyph>
<glyph name="AE" format="2">
  <advance width="965"/>
  <unicode hex="00C6"/>
  <outline>
    <contour>
      <point x="-26" y="0" type="line"/>
      <point x="122" y="0" type="line"/>
      <point x="226" y="177" type="line"/>
      <point x="454" y="177" type="line"/>
      <point x="454" y="0" type="line"/>
      <point x="932" y="0" type="line"/>
      <point x="932" y="121" type="line"/>
      <point x="590" y="121" type="line"/>
      <point x="590" y="301" type="line"/>
      <point x="869" y="301" type="line"/>
      <point x="869" y="422" type="line"/>
      <point x="590" y="422" type="line"/>
      <point x="590" y="589" type="line"/>
      <point x="923" y="589" type="line"/>
      <point x="923" y="710" type="line"/>
      <point x="418" y="710" type="line"/>
    </contour>
    <contour>
      <point x="285" y="298" type="line"/>
      <point x="443" y="556" type="line"/>
      <point x="443" y="298" type="line"/>
    </contour>
  </outline>
</glyph>
<glyph name="Idieresis" format="2">
  <advance width="317"/>
  <unicode hex="00CF"/>
  <anchor x="158" y="0" name="bottom"/>
  <anchor x="256" y="0" name="ogonek"/>
  <anchor x="158" y="710" name="top"/>
  <anchor x="20" y="710" name="topleft"/>
  <outline>
    <component base="I"/>
    <contour>
      <point x="12" y="835" type="curve" smooth="yes"/>
      <point x="12" y="783"/>
      <point x="41" y="741"/>
      <point x="78" y="741" type="curve" smooth="yes"/>
      <point x="114" y="741"/>
      <point x="143" y="783"/>
      <point x="143" y="835" type="curve" smooth="yes"/>
      <point x="143" y="887"/>
      <point x="114" y="929"/>
      <point x="78" y="929" type="curve" smooth="yes"/>
      <point x="41" y="929"/>
      <point x="12" y="887"/>
    </contour>
    <contour>
      <point x="174" y="835" type="curve" smooth="yes"/>
      <point x="174" y="783"/>
      <point x="203" y="741"/>
      <point x="239" y="741" type="curve" smooth="yes"/>
      <point x="276" y="741"/>
      <point x="305" y="783"/>
      <point x="305" y="835" type="curve" smooth="yes"/>
      <point x="305" y="887"/>
      <point x="276" y="929"/>
      <point x="239" y="929" type="curve" smooth="yes"/>
      <point x="203" y="929"/>
      <point x="174" y="887"/>
    </contour>
  </outline>
</glyph>
<glyph name="Eth" format="2">
  <advance width="720"/>
  <unicode hex="00D0"/>
  <outline>
    <component base="D" xOffset="4"/>
    <contour>
      <point x="374" y="287" type="line"/>
      <point x="374" y="427" type="line"/>
      <point x="28" y="427" type="line"/>
      <point x="28" y="287" type="line"/>
    </contour>
  </outline>
</glyph>
<glyph name="multiply" format="2">
  <advance width="477"/>
  <unicode hex="00D7"/>
  <outline>
    <contour>
      <point x="322" y="276" type="line"/>
      <point x="420" y="374" type="line"/>
      <point x="337" y="458" type="line"/>
      <point x="238" y="359" type="line"/>
      <point x="140" y="458" type="line"/>
      <point x="56" y="374" type="line"/>
      <point x="154" y="275" type="line"/>
      <point x="52" y="173" type="line"/>
      <point x="135" y="89" type="line"/>
      <point x="238" y="192" type="line"/>
      <point x="341" y="89" type="line"/>
      <point x="425" y="173" type="line"/>
    </contour>
  </outline>
</glyph>
<glyph name="Thorn" format="2">
  <advance width="605"/>
  <unicode hex="00DE"/>
  <outline>
    <contour>
      <point x="358" y="582" type="qcurve" smooth="yes"/>
      <point x="211" y="582" type="line"/>
      <point x="211" y="710" type="line"/>
      <point x="75" y="710" type="line"/>
      <point x="75" y="0" type="line"/>
      <point x="211" y="0" type="line"/>
      <point x="211" y="110" type="line"/>
      <point x="364" y="110" type="line" smooth="yes"/>
      <point x="413" y="110"/>
      <point x="495" y="150"/>
      <point x="552" y="216"/>
      <point x="584" y="300"/>
      <point x="584" y="347" type="qcurve" smooth="yes"/>
      <point x="584" y="390"/>
      <point x="550" y="474"/>
      <point x="491" y="541"/>
      <point x="407" y="582"/>
    </contour>
    <contour>
      <point x="357" y="231" type="qcurve" smooth="yes"/>
      <point x="211" y="231" type="line"/>
      <point x="211" y="461" type="line"/>
      <point x="351" y="461" type="line" smooth="yes"/>
      <point x="369" y="461"/>
      <point x="404" y="444"/>
      <point x="431" y="413"/>
      <point x="446" y="371"/>
      <point x="446" y="347" type="qcurve" smooth="yes"/>
      <point x="446" y="322"/>
      <point x="434" y="280"/>
      <point x="410" y="250"/>
      <point x="377" y="231"/>
    </contour>
  </outline>
</glyph>
<glyph name="germandbls" format="2">
  <advance width="557"/>
  <unicode hex="00DF"/>
  <outline>
    <contour>
      <point x="247" y="-6" type="line"/>
      <point x="303" y="-5"/>
      <point x="406" y="20"/>
      <point x="483" y="71"/>
      <point x="530" y="153"/>
      <point x="530" y="211" type="qcurve" smooth="yes"/>
      <point x="530" y="283"/>
      <point x="456" y="384"/>
      <point x="391" y="403" type="qcurve"/>
      <point x="409" y="409"/>
      <point x="440" y="437"/>
      <point x="464" y="476"/>
      <point x="478" y="523"/>
      <point x="478" y="550" type="qcurve" smooth="yes"/>
      <point x="478" y="587"/>
      <point x="448" y="649"/>
      <point x="396" y="692"/>
      <point x="324" y="714"/>
      <point x="282" y="714" type="qcurve" smooth="yes"/>
      <point x="235" y="714"/>
      <point x="154" y="686"/>
      <point x="94" y="635"/>
      <point x="61" y="564"/>
      <point x="61" y="522" type="qcurve" smooth="yes"/>
      <point x="61" y="0" type="line"/>
      <point x="188" y="0" type="line"/>
      <point x="188" y="499" type="line" smooth="yes"/>
      <point x="188" y="516"/>
      <point x="196" y="551"/>
      <point x="216" y="581"/>
      <point x="248" y="600"/>
      <point x="272" y="600" type="qcurve" smooth="yes"/>
      <point x="284" y="600"/>
      <point x="312" y="593"/>
      <point x="336" y="576"/>
      <point x="351" y="549"/>
      <point x="351" y="527" type="qcurve" smooth="yes"/>
      <point x="351" y="511"/>
      <point x="340" y="484"/>
      <point x="321" y="464"/>
      <point x="292" y="453"/>
      <point x="274" y="453" type="qcurve" smooth="yes"/>
      <point x="254" y="453" type="line"/>
      <point x="254" y="333" type="line"/>
      <point x="275" y="333" type="line" smooth="yes"/>
      <point x="298" y="333"/>
      <point x="339" y="319"/>
      <point x="370" y="291"/>
      <point x="390" y="250"/>
      <point x="390" y="225" type="qcurve" smooth="yes"/>
      <point x="390" y="197"/>
      <point x="369" y="156"/>
      <point x="330" y="130"/>
      <point x="278" y="118"/>
      <point x="247" y="117" type="qcurve"/>
    </contour>
  </outline>
</glyph>
<glyph name="ae" format="2">
  <advance width="937"/>
  <unicode hex="00E6"/>
  <outline>
    <contour>
      <point x="203" y="-10" type="qcurve" smooth="yes"/>
      <point x="230" y="-10"/>
      <point x="291" y="2"/>
      <point x="348" y="28"/>
      <point x="399" y="70"/>
      <point x="417" y="98" type="qcurve"/>
      <point x="453" y="49"/>
      <point x="567" y="-10"/>
      <point x="642" y="-10" type="qcurve" smooth="yes"/>
      <point x="686" y="-10"/>
      <point x="762" y="11"/>
      <point x="824" y="47"/>
      <point x="871" y="97"/>
      <point x="886" y="127" type="qcurve"/>
      <point x="771" y="159" type="line"/>
      <point x="765" y="143"/>
      <point x="739" y="116"/>
      <point x="706" y="98"/>
      <point x="667" y="87"/>
      <point x="646" y="87" type="qcurve" smooth="yes"/>
      <point x="620" y="87"/>
      <point x="569" y="106"/>
      <point x="531" y="140"/>
      <point x="506" y="189"/>
      <point x="503" y="219" type="qcurve"/>
      <point x="913" y="219" type="line"/>
      <point x="914" y="227"/>
      <point x="916" y="252"/>
      <point x="916" y="262" type="qcurve" smooth="yes"/>
      <point x="916" y="317"/>
      <point x="877" y="415"/>
      <point x="807" y="490"/>
      <point x="705" y="534"/>
      <point x="640" y="534" type="qcurve" smooth="yes"/>
      <point x="582" y="534"/>
      <point x="488" y="493"/>
      <point x="455" y="459" type="qcurve"/>
      <point x="425" y="495"/>
      <point x="333" y="534"/>
      <point x="272" y="534" type="qcurve" smooth="yes"/>
      <point x="213" y="534"/>
      <point x="105" y="500"/>
      <point x="53" y="466" type="qcurve"/>
      <point x="94" y="381" type="line"/>
      <point x="138" y="410"/>
      <point x="216" y="440"/>
      <point x="259" y="440" type="qcurve" smooth="yes"/>
      <point x="312" y="440"/>
      <point x="369" y="394"/>
      <point x="374" y="349" type="qcurve"/>
      <point x="370" y="339"/>
      <point x="367" y="316"/>
      <point x="366" y="305" type="qcurve"/>
      <point x="342" y="315"/>
      <point x="280" y="325"/>
      <point x="247" y="325" type="qcurve" smooth="yes"/>
      <point x="198" y="325"/>
      <point x="117" y="300"/>
      <point x="58" y="256"/>
      <point x="25" y="193"/>
      <point x="25" y="156" type="qcurve" smooth="yes"/>
      <point x="25" y="121"/>
      <point x="53" y="60"/>
      <point x="101" y="16"/>
      <point x="165" y="-10"/>
    </contour>
    <contour>
      <point x="242" y="87" type="qcurve" smooth="yes"/>
      <point x="223" y="87"/>
      <point x="190" y="100"/>
      <point x="166" y="121"/>
      <point x="151" y="150"/>
      <point x="151" y="167" type="qcurve" smooth="yes"/>
      <point x="151" y="186"/>
      <point x="169" y="216"/>
      <point x="200" y="237"/>
      <point x="244" y="250"/>
      <point x="270" y="250" type="qcurve" smooth="yes"/>
      <point x="293" y="250"/>
      <point x="344" y="241"/>
      <point x="366" y="233" type="qcurve"/>
      <point x="367" y="218"/>
      <point x="372" y="182"/>
      <point x="376" y="168" type="qcurve"/>
      <point x="376" y="159"/>
      <point x="364" y="140"/>
      <point x="354" y="132" type="qcurve"/>
      <point x="336" y="112"/>
      <point x="276" y="87"/>
    </contour>
    <contour>
      <point x="501" y="302" type="line"/>
      <point x="503" y="332"/>
      <point x="526" y="382"/>
      <point x="562" y="417"/>
      <point x="610" y="436"/>
      <point x="638" y="436" type="qcurve" smooth="yes"/>
      <point x="667" y="436"/>
      <point x="716" y="417"/>
      <point x="753" y="382"/>
      <point x="776" y="332"/>
      <point x="778" y="302" type="qcurve"/>
    </contour>
  </outline>
</glyph>
<glyph name="idieresis" format="2">
  <advance width="286"/>
  <unicode hex="00EF"/>
  <anchor x="143" y="526" name="_top"/>
  <anchor x="143" y="721" name="top"/>
  <outline>
    <component base="idotless"/>
    <contour>
      <point x="117" y="581" type="line"/>
      <point x="117" y="721" type="line"/>
      <point x="8" y="721" type="line"/>
      <point x="8" y="581" type="line"/>
    </contour>
    <contour>
      <point x="278" y="581" type="line"/>
      <point x="278" y="721" type="line"/>
      <point x="169" y="721" type="line"/>
      <point x="169" y="581" type="line"/>
    </contour>
  </outline>
</glyph>
<glyph name="eth" format="2">
  <advance width="613"/>
  <unicode hex="00F0"/>
  <outline>
    <contour>
      <point x="581" y="291" type="qcurve" smooth="yes"/>
      <point x="581" y="350"/>
      <point x="549" y="476"/>
      <point x="483" y="593"/>
      <point x="385" y="695"/>
      <point x="317" y="730" type="qcurve"/>
      <point x="146" y="730" type="line"/>
      <point x="218" y="692"/>
      <point x="321" y="613"/>
      <point x="391" y="530"/>
      <point x="432" y="441"/>
      <point x="443" y="394" type="qcurve"/>
      <point x="430" y="412"/>
      <point x="392" y="440"/>
      <point x="348" y="461"/>
      <point x="298" y="472"/>
      <point x="273" y="472" type="qcurve" smooth="yes"/>
      <point x="222" y="472"/>
      <point x="134" y="434"/>
      <point x="69" y="370"/>
      <point x="31" y="283"/>
      <point x="31" y="234" type="qcurve" smooth="yes"/>
      <point x="31" y="181"/>
      <point x="73" y="92"/>
      <point x="146" y="27"/>
      <point x="246" y="-10"/>
      <point x="303" y="-10" type="qcurve" smooth="yes"/>
      <point x="363" y="-10"/>
      <point x="465" y="31"/>
      <point x="539" y="109"/>
      <point x="581" y="221"/>
    </contour>
    <contour>
      <point x="169" y="234" type="qcurve" smooth="yes"/>
      <point x="169" y="262"/>
      <point x="189" y="309"/>
      <point x="226" y="345"/>
      <point x="277" y="365"/>
      <point x="307" y="365" type="qcurve" smooth="yes"/>
      <point x="336" y="365"/>
      <point x="386" y="346"/>
      <point x="422" y="311"/>
      <point x="443" y="265"/>
      <point x="443" y="237" type="qcurve" smooth="yes"/>
      <point x="443" y="209"/>
      <point x="422" y="161"/>
      <point x="385" y="124"/>
      <point x="334" y="104"/>
      <point x="304" y="104" type="qcurve" smooth="yes"/>
      <point x="275" y="104"/>
      <point x="226" y="123"/>
      <point x="189" y="159"/>
      <point x="169" y="206"/>
    </contour>
    <contour>
      <point x="488" y="712" type="line"/>
      <point x="372" y="648" type="line"/>
      <point x="333" y="636" type="line"/>
      <point x="222" y="574" type="line"/>
      <point x="260" y="522" type="line"/>
      <point x="374" y="586" type="line"/>
      <point x="415" y="598" type="line"/>
      <point x="526" y="660" type="line"/>
    </contour>
  </outline>
</glyph>
<glyph name="divide" format="2">
  <advance width="511"/>
  <unicode hex="00F7"/>
  <outline>
    <contour>
      <point x="458" y="244" type="line"/>
      <point x="458" y="351" type="line"/>
      <point x="55" y="351" type="line"/>
      <point x="55" y="244" type="line"/>
    </contour>
    <contour>
      <point x="183" y="104" type="qcurve" smooth="yes"/>
      <point x="183" y="73"/>
      <point x="226" y="31"/>
      <point x="256" y="31" type="qcurve" smooth="yes"/>
      <point x="286" y="31"/>
      <point x="329" y="73"/>
      <point x="329" y="104" type="qcurve" smooth="yes"/>
      <point x="329" y="134"/>
      <point x="286" y="177"/>
      <point x="256" y="177" type="qcurve" smooth="yes"/>
      <point x="226" y="177"/>
      <point x="183" y="134"/>
    </contour>
    <contour>
      <point x="183" y="492" type="qcurve" smooth="yes"/>
      <point x="183" y="461"/>
      <point x="227" y="418"/>
      <point x="257" y="418" type="qcurve" smooth="yes"/>
      <point x="287" y="418"/>
      <point x="330" y="461"/>
      <point x="330" y="492" type="qcurve" smooth="yes"/>
      <point x="330" y="522"/>
      <point x="287" y="565"/>
      <point x="257" y="565" type="qcurve" smooth="yes"/>
      <point x="227" y="565"/>
      <point x="183" y="522"/>
    </contour>
  </outline>
</glyph>
<glyph name="oslash" format="2">
  <advance width="606"/>
  <unicode hex="00F8"/>
  <outline>
    <contour>
      <point x="302" y="-10" type="qcurve" smooth="yes"/>
      <point x="367" y="-10"/>
      <point x="469" y="35"/>
      <point x="540" y="109"/>
      <point x="578" y="208"/>
      <point x="578" y="262" type="qcurve" smooth="yes"/>
      <point x="578" y="316"/>
      <point x="540" y="415"/>
      <point x="469" y="489"/>
      <point x="367" y="534"/>
      <point x="302" y="534" type="qcurve" smooth="yes"/>
      <point x="239" y="534"/>
      <point x="137" y="489"/>
      <point x="66" y="415"/>
      <point x="28" y="316"/>
      <point x="28" y="262" type="qcurve" smooth="yes"/>
      <point x="28" y="208"/>
      <point x="66" y="109"/>
      <point x="137" y="35"/>
      <point x="238" y="-10"/>
    </contour>
    <contour>
      <point x="302" y="104" type="qcurve" smooth="yes"/>
      <point x="273" y="104"/>
      <point x="224" y="127"/>
      <point x="187" y="169"/>
      <point x="166" y="227"/>
      <point x="166" y="261" type="qcurve" smooth="yes"/>
      <point x="166" y="295"/>
      <point x="187" y="353"/>
      <point x="224" y="395"/>
      <point x="273" y="419"/>
      <point x="302" y="419" type="qcurve" smooth="yes"/>
      <point x="332" y="419"/>
      <point x="382" y="396"/>
      <point x="419" y="354"/>
      <point x="440" y="296"/>
      <point x="440" y="262" type="qcurve" smooth="yes"/>
      <point x="440" y="228"/>
      <point x="419" y="170"/>
      <point x="382" y="127"/>
      <point x="332" y="104"/>
    </contour>
    <contour>
      <point x="128" y="-4" type="line"/>
      <point x="201" y="82" type="line"/>
      <point x="145" y="123" type="line"/>
      <point x="42" y="-4" type="line"/>
    </contour>
    <contour>
      <point x="452" y="409" type="line"/>
      <point x="396" y="439" type="line"/>
      <point x="163" y="130" type="line"/>
      <point x="211" y="94" type="line"/>
    </contour>
    <contour>
      <point x="559" y="527" type="line"/>
      <point x="472" y="527" type="line"/>
      <point x="405" y="449" type="line"/>
      <point x="469" y="417" type="line"/>
    </contour>
  </outline>
</glyph>
<glyph name="thorn" format="2">
  <advance width="601"/>
  <unicode hex="00FE"/>
  <outline>
    <contour>
      <point x="574" y="256" type="qcurve"/>
      <point x="574" y="307"/>
      <point x="538" y="408"/>
      <point x="472" y="488"/>
      <point x="378" y="538"/>
      <point x="319" y="538" type="qcurve" smooth="yes"/>
      <point x="268" y="538"/>
      <point x="211" y="502"/>
      <point x="198" y="484" type="qcurve"/>
      <point x="198" y="710" type="line"/>
      <point x="61" y="710" type="line"/>
      <point x="61" y="-213" type="line"/>
      <point x="198" y="-213" type="line"/>
      <point x="198" y="27" type="line"/>
      <point x="203" y="18"/>
      <point x="223" y="0"/>
      <point x="251" y="-15"/>
      <point x="288" y="-24"/>
      <point x="311" y="-24" type="qcurve" smooth="yes"/>
      <point x="365" y="-24"/>
      <point x="460" y="22"/>
      <point x="532" y="100"/>
      <point x="573" y="200"/>
    </contour>
    <contour>
      <point x="436" y="259" type="qcurve" smooth="yes"/>
      <point x="436" y="225"/>
      <point x="417" y="166"/>
      <point x="383" y="123"/>
      <point x="335" y="97"/>
      <point x="306" y="97" type="qcurve" smooth="yes"/>
      <point x="287" y="97"/>
      <point x="249" y="111"/>
      <point x="218" y="134"/>
      <point x="198" y="162"/>
      <point x="198" y="176" type="qcurve" smooth="yes"/>
      <point x="198" y="336" type="line"/>
      <point x="207" y="353"/>
      <point x="230" y="383"/>
      <point x="257" y="405"/>
      <point x="290" y="418"/>
      <point x="311" y="418" type="qcurve" smooth="yes"/>
      <point x="341" y="418"/>
      <point x="387" y="393"/>
      <point x="419" y="349"/>
      <point x="436" y="291"/>
    </contour>
  </outline>
</glyph>
<glyph name="Dcroat" format="2">
  <advance width="721"/>
  <unicode hex="0110"/>
  <outline>
    <contour>
      <point x="357" y="307" type="line"/>
      <point x="357" y="407" type="line"/>
      <point x="31" y="407" type="line"/>
      <point x="31" y="307" type="line"/>
    </contour>
    <contour>
      <point x="338" y="0" type="line" smooth="yes"/>
      <point x="417" y="0"/>
      <point x="546" y="51"/>
      <point x="638" y="144"/>
      <point x="687" y="275"/>
      <point x="687" y="356" type="qcurve" smooth="yes"/>
      <point x="687" y="430"/>
      <point x="643" y="559"/>
      <point x="555" y="655"/>
      <point x="425" y="710"/>
      <point x="338" y="710" type="qcurve" smooth="yes"/>
      <point x="79" y="710" type="line"/>
      <point x="79" y="0" type="line"/>
    </contour>
    <contour>
      <point x="548" y="356" type="qcurve" smooth="yes"/>
      <point x="548" y="306"/>
      <point x="520" y="219"/>
      <point x="467" y="157"/>
      <point x="389" y="121"/>
      <point x="338" y="121" type="qcurve" smooth="yes"/>
      <point x="217" y="121" type="line"/>
      <point x="217" y="589" type="line"/>
      <point x="338" y="589" type="line" smooth="yes"/>
      <point x="387" y="589"/>
      <point x="466" y="554"/>
      <point x="520" y="494"/>
      <point x="548" y="407"/>
    </contour>
  </outline>
</glyph>
<glyph name="dcroat" format="2">
  <advance width="665"/>
  <unicode hex="0111"/>
  <outline>
    <component base="d"/>
    <contour>
      <point x="657" y="579" type="line"/>
      <point x="657" y="688" type="line"/>
      <point x="322" y="688" type="line"/>
      <point x="322" y="579" type="line"/>
    </contour>
  </outline>
</glyph>
<glyph name="Hbar" format="2">
  <advance width="754"/>
  <unicode hex="0126"/>
  <outline>
    <contour>
      <point x="725" y="533" type="line"/>
      <point x="725" y="609" type="line"/>
      <point x="28" y="609" type="line"/>
      <point x="28" y="533" type="line"/>
    </contour>
    <contour>
      <point x="538" y="710" type="line"/>
      <point x="538" y="423" type="line"/>
      <point x="216" y="423" type="line"/>
      <point x="216" y="710" type="line"/>
      <point x="78" y="710" type="line"/>
      <point x="78" y="0" type="line"/>
      <point x="216" y="0" type="line"/>
      <point x="216" y="303" type="line"/>
      <point x="538" y="303" type="line"/>
      <point x="538" y="0" type="line"/>
      <point x="675" y="0" type="line"/>
      <point x="675" y="710" type="line"/>
    </contour>
  </outline>
</glyph>
<glyph name="hbar" format="2">
  <advance width="621"/>
  <unicode hex="0127"/>
  <outline>
    <component base="h"/>
    <contour>
      <point x="353" y="579" type="line"/>
      <point x="353" y="688" type="line"/>
      <point x="18" y="688" type="line"/>
      <point x="18" y="579" type="line"/>
    </contour>
  </outline>
</glyph>
<glyph name="Lslash" format="2">
  <advance width="594"/>
  <unicode hex="0141"/>
  <outline>
    <contour>
      <point x="364" y="452" type="line"/>
      <point x="331" y="525" type="line"/>
      <point x="-2" y="314" type="line"/>
      <point x="32" y="242" type="line"/>
    </contour>
    <contour>
      <point x="583" y="0" type="line"/>
      <point x="583" y="121" type="line"/>
      <point x="221" y="121" type="line"/>
      <point x="221" y="710" type="line"/>
      <point x="83" y="710" type="line"/>
      <point x="83" y="0" type="line"/>
    </contour>
  </outline>
</glyph>
<glyph name="lslash" format="2">
  <advance width="387"/>
  <unicode hex="0142"/>
  <outline>
    <component base="l" xOffset="28"/>
    <contour>
      <point x="388" y="426" type="line"/>
      <point x="345" y="527" type="line"/>
      <point x="-11" y="353" type="line"/>
      <point x="32" y="252" type="line"/>
    </contour>
  </outline>
</glyph>
<glyph name="Eng" format="2">
  <advance width="750"/>
  <unicode hex="014A"/>
  <outline>
    <contour>
      <point x="541" y="28" type="line"/>
      <point x="541" y="-14" type="line" smooth="yes"/>
      <point x="541" y="-28"/>
      <point x="532" y="-53"/>
      <point x="513" y="-70"/>
      <point x="490" y="-80"/>
      <point x="476" y="-80" type="qcurve" smooth="yes"/>
      <point x="460" y="-80"/>
      <point x="429" y="-69"/>
      <point x="418" y="-58" type="qcurve"/>
      <point x="360" y="-149" type="line"/>
      <point x="388" y="-173"/>
      <point x="455" y="-196"/>
      <point x="493" y="-196" type="qcurve" smooth="yes"/>
      <point x="530" y="-196"/>
      <point x="596" y="-170"/>
      <point x="647" y="-121"/>
      <point x="675" y="-51"/>
      <point x="675" y="-9" type="qcurve" smooth="yes"/>
      <point x="675" y="709" type="line"/>
      <point x="538" y="709" type="line"/>
      <point x="538" y="250" type="line"/>
      <point x="180" y="710" type="line"/>
      <point x="75" y="710" type="line"/>
      <point x="75" y="0" type="line"/>
      <point x="211" y="0" type="line"/>
      <point x="211" y="452" type="line"/>
    </contour>
  </outline>
</glyph>
<glyph name="eng" format="2">
  <advance width="604"/>
  <unicode hex="014B"/>
  <outline>
    <contour>
      <point x="365" y="-196" type="qcurve" smooth="yes"/>
      <point x="404" y="-196"/>
      <point x="469" y="-168"/>
      <point x="519" y="-117"/>
      <point x="547" y="-46"/>
      <point x="547" y="-4" type="qcurve" smooth="yes"/>
      <point x="547" y="328" type="line" smooth="yes"/>
      <point x="547" y="365"/>
      <point x="535" y="439"/>
      <point x="501" y="497"/>
      <point x="439" y="534"/>
      <point x="390" y="534" type="qcurve" smooth="yes"/>
      <point x="356" y="534"/>
      <point x="293" y="519"/>
      <point x="240" y="491"/>
      <point x="196" y="452"/>
      <point x="181" y="427" type="qcurve"/>
      <point x="181" y="524" type="line"/>
      <point x="61" y="524" type="line"/>
      <point x="61" y="0" type="line"/>
      <point x="195" y="0" type="line"/>
      <point x="195" y="306" type="line"/>
      <point x="203" y="330"/>
      <point x="232" y="370"/>
      <point x="269" y="399"/>
      <point x="311" y="415"/>
      <point x="331" y="415" type="qcurve" smooth="yes"/>
      <point x="370" y="415"/>
      <point x="414" y="358"/>
      <point x="414" y="294" type="qcurve" smooth="yes"/>
      <point x="414" y="-14" type="line" smooth="yes"/>
      <point x="414" y="-28"/>
      <point x="404" y="-53"/>
      <point x="386" y="-70"/>
      <point x="362" y="-80"/>
      <point x="349" y="-80" type="qcurve" smooth="yes"/>
      <point x="333" y="-80"/>
      <point x="301" y="-69"/>
      <point x="290" y="-58" type="qcurve"/>
      <point x="232" y="-149" type="line"/>
      <point x="260" y="-173"/>
      <point x="328" y="-196"/>
    </contour>
  </outline>
</glyph>
<glyph name="OE" format="2">
  <advance width="1085"/>
  <unicode hex="0152"/>
  <outline>
    <contour>
      <point x="709" y="121" type="line"/>
      <point x="709" y="301" type="line"/>
      <point x="989" y="301" type="line"/>
      <point x="989" y="422" type="line"/>
      <point x="709" y="422" type="line"/>
      <point x="709" y="589" type="line"/>
      <point x="1043" y="589" type="line"/>
      <point x="1043" y="710" type="line"/>
      <point x="572" y="710" type="line"/>
      <point x="572" y="606" type="line"/>
      <point x="556" y="629"/>
      <point x="512" y="669"/>
      <point x="462" y="699"/>
      <point x="403" y="715"/>
      <point x="371" y="715" type="qcurve" smooth="yes"/>
      <point x="297" y="715"/>
      <point x="173" y="656"/>
      <point x="82" y="556"/>
      <point x="31" y="427"/>
      <point x="31" y="356" type="qcurve" smooth="yes"/>
      <point x="31" y="287"/>
      <point x="80" y="157"/>
      <point x="169" y="56"/>
      <point x="293" y="-5"/>
      <point x="368" y="-5" type="qcurve" smooth="yes"/>
      <point x="400" y="-5"/>
      <point x="459" y="12"/>
      <point x="511" y="41"/>
      <point x="555" y="81"/>
      <point x="572" y="105" type="qcurve"/>
      <point x="572" y="0" type="line"/>
      <point x="1052" y="0" type="line"/>
      <point x="1052" y="121" type="line"/>
    </contour>
    <contour>
      <point x="369" y="118" type="qcurve" smooth="yes"/>
      <point x="322" y="118"/>
      <point x="249" y="157"/>
      <point x="197" y="223"/>
      <point x="171" y="309"/>
      <point x="171" y="354" type="qcurve" smooth="yes"/>
      <point x="171" y="399"/>
      <point x="197" y="484"/>
      <point x="247" y="551"/>
      <point x="320" y="592"/>
      <point x="369" y="592" type="qcurve" smooth="yes"/>
      <point x="414" y="592"/>
      <point x="488" y="553"/>
      <point x="540" y="487"/>
      <point x="567" y="402"/>
      <point x="567" y="356" type="qcurve" smooth="yes"/>
      <point x="567" y="312"/>
      <point x="541" y="226"/>
      <point x="491" y="159"/>
      <point x="417" y="118"/>
    </contour>
  </outline>
</glyph>
<glyph name="oe" format="2">
  <advance width="1012"/>
  <unicode hex="0153"/>
  <outline>
    <contour>
      <point x="301" y="-10" type="qcurve" smooth="yes"/>
      <point x="332" y="-10"/>
      <point x="388" y="5"/>
      <point x="439" y="34"/>
      <point x="486" y="79"/>
      <point x="508" y="108" type="qcurve"/>
      <point x="531" y="79"/>
      <point x="580" y="35"/>
      <point x="633" y="5"/>
      <point x="689" y="-10"/>
      <point x="721" y="-10" type="qcurve" smooth="yes"/>
      <point x="761" y="-10"/>
      <point x="836" y="10"/>
      <point x="898" y="46"/>
      <point x="948" y="95"/>
      <point x="963" y="127" type="qcurve"/>
      <point x="852" y="159" type="line"/>
      <point x="846" y="143"/>
      <point x="821" y="116"/>
      <point x="787" y="97"/>
      <point x="747" y="85"/>
      <point x="726" y="85" type="qcurve" smooth="yes"/>
      <point x="697" y="85"/>
      <point x="647" y="105"/>
      <point x="609" y="142"/>
      <point x="585" y="191"/>
      <point x="582" y="219" type="qcurve"/>
      <point x="987" y="219" type="line"/>
      <point x="988" y="227"/>
      <point x="990" y="252"/>
      <point x="990" y="262" type="qcurve"/>
      <point x="988" y="323"/>
      <point x="946" y="422"/>
      <point x="875" y="494"/>
      <point x="777" y="534"/>
      <point x="718" y="534" type="qcurve" smooth="yes"/>
      <point x="649" y="534"/>
      <point x="546" y="472"/>
      <point x="508" y="411" type="qcurve"/>
      <point x="491" y="440"/>
      <point x="448" y="487"/>
      <point x="395" y="517"/>
      <point x="334" y="534"/>
      <point x="301" y="534" type="qcurve" smooth="yes"/>
      <point x="242" y="534"/>
      <point x="142" y="492"/>
      <point x="69" y="419"/>
      <point x="28" y="320"/>
      <point x="28" y="261" type="qcurve" smooth="yes"/>
      <point x="28" y="203"/>
      <point x="69" y="103"/>
      <point x="142" y="30"/>
      <point x="242" y="-10"/>
    </contour>
    <contour>
      <point x="302" y="104" type="qcurve" smooth="yes"/>
      <point x="273" y="104"/>
      <point x="223" y="127"/>
      <point x="186" y="169"/>
      <point x="166" y="227"/>
      <point x="166" y="261" type="qcurve" smooth="yes"/>
      <point x="166" y="295"/>
      <point x="186" y="353"/>
      <point x="223" y="395"/>
      <point x="274" y="419"/>
      <point x="303" y="419" type="qcurve" smooth="yes"/>
      <point x="333" y="419"/>
      <point x="383" y="396"/>
      <point x="419" y="353"/>
      <point x="440" y="296"/>
      <point x="440" y="262" type="qcurve" smooth="yes"/>
      <point x="440" y="228"/>
      <point x="419" y="170"/>
      <point x="383" y="127"/>
      <point x="333" y="104"/>
    </contour>
    <contour>
      <point x="579" y="302" type="line"/>
      <point x="581" y="332"/>
      <point x="603" y="382"/>
      <point x="638" y="416"/>
      <point x="686" y="436"/>
      <point x="714" y="436" type="qcurve" smooth="yes"/>
      <point x="742" y="436"/>
      <point x="790" y="416"/>
      <point x="827" y="382"/>
      <point x="850" y="332"/>
      <point x="853" y="302" type="qcurve"/>
    </contour>
  </outline>
</glyph>
<glyph name="Tbar" format="2">
  <advance width="644"/>
  <unicode hex="0166"/>
  <outline>
    <contour>
      <point x="570" y="291" type="line"/>
      <point x="570" y="366" type="line"/>
      <point x="73" y="366" type="line"/>
      <point x="73" y="291" type="line"/>
    </contour>
    <contour>
      <point x="617" y="710" type="line"/>
      <point x="27" y="710" type="line"/>
      <point x="27" y="589" type="line"/>
      <point x="253" y="589" type="line"/>
      <point x="253" y="0" type="line"/>
      <point x="391" y="0" type="line"/>
      <point x="391" y="589" type="line"/>
      <point x="617" y="589" type="line"/>
    </contour>
  </outline>
</glyph>
<glyph name="tbar" format="2">
  <advance width="385"/>
  <unicode hex="0167"/>
  <outline>
    <contour>
      <point x="325" y="252" type="line"/>
      <point x="325" y="331" type="line"/>
      <point x="32" y="331" type="line"/>
      <point x="32" y="252" type="line"/>
    </contour>
    <contour>
      <point x="350" y="133" type="line"/>
      <point x="343" y="130"/>
      <point x="327" y="123"/>
      <point x="308" y="118"/>
      <point x="286" y="114"/>
      <point x="276" y="114" type="qcurve" smooth="yes"/>
      <point x="256" y="114"/>
      <point x="227" y="137"/>
      <point x="226" y="165" type="qcurve"/>
      <point x="226" y="422" type="line"/>
      <point x="337" y="422" type="line"/>
      <point x="337" y="524" type="line"/>
      <point x="226" y="524" type="line"/>
      <point x="226" y="693" type="line"/>
      <point x="92" y="693" type="line"/>
      <point x="92" y="524" type="line"/>
      <point x="23" y="524" type="line"/>
      <point x="23" y="422" type="line"/>
      <point x="92" y="422" type="line"/>
      <point x="92" y="120" type="line" smooth="yes"/>
      <point x="92" y="85"/>
      <point x="113" y="36"/>
      <point x="151" y="5"/>
      <point x="200" y="-9"/>
      <point x="228" y="-9" type="qcurve" smooth="yes"/>
      <point x="249" y="-9"/>
      <point x="291" y="-2"/>
      <point x="329" y="8"/>
      <point x="363" y="21"/>
      <point x="377" y="28" type="qcurve"/>
    </contour>
  </outline>
</glyph>
<glyph name="uni018F" format="2">
  <advance width="746"/>
  <unicode hex="018F"/>
  <outline>
    <contour>
      <point x="369" y="-5" type="qcurve" smooth="yes"/>
      <point x="448" y="-5"/>
      <point x="574" y="55"/>
      <point x="665" y="156"/>
      <point x="714" y="288"/>
      <point x="714" y="359" type="qcurve" smooth="yes"/>
      <point x="714" y="427"/>
      <point x="664" y="555"/>
      <point x="574" y="655"/>
      <point x="448" y="714"/>
      <point x="370" y="714" type="qcurve" smooth="yes"/>
      <point x="318" y="714"/>
      <point x="223" y="687"/>
      <point x="143" y="640"/>
      <point x="80" y="572"/>
      <point x="60" y="530" type="qcurve"/>
      <point x="199" y="483" type="line"/>
      <point x="206" y="508"/>
      <point x="240" y="548"/>
      <point x="285" y="576"/>
      <point x="339" y="592"/>
      <point x="367" y="592" type="qcurve" smooth="yes"/>
      <point x="404" y="592"/>
      <point x="471" y="566"/>
      <point x="524" y="515"/>
      <point x="560" y="445"/>
      <point x="564" y="401" type="qcurve"/>
      <point x="25" y="401" type="line"/>
      <point x="23" y="390"/>
      <point x="20" y="359"/>
      <point x="20" y="344" type="qcurve" smooth="yes"/>
      <point x="20" y="279"/>
      <point x="70" y="153"/>
      <point x="162" y="55"/>
      <point x="291" y="-5"/>
    </contour>
    <contour>
      <point x="371" y="116" type="qcurve" smooth="yes"/>
      <point x="332" y="116"/>
      <point x="262" y="142"/>
      <point x="208" y="190"/>
      <point x="175" y="255"/>
      <point x="171" y="293" type="qcurve"/>
      <point x="563" y="293" type="line"/>
      <point x="559" y="254"/>
      <point x="527" y="189"/>
      <point x="477" y="142"/>
      <point x="410" y="116"/>
    </contour>
  </outline>
</glyph>
<glyph name="florin" format="2">
  <advance width="548"/>
  <unicode hex="0192"/>
  <outline>
    <contour>
      <point x="162" y="-196" type="qcurve" smooth="yes"/>
      <point x="199" y="-196"/>
      <point x="266" y="-169"/>
      <point x="315" y="-121"/>
      <point x="344" y="-52"/>
      <point x="344" y="-11" type="qcurve" smooth="yes"/>
      <point x="344" y="361" type="line"/>
      <point x="472" y="361" type="line"/>
      <point x="472" y="463" type="line"/>
      <point x="344" y="463" type="line"/>
      <point x="344" y="533" type="line" smooth="yes"/>
      <point x="344" y="579"/>
      <point x="379" y="627"/>
      <point x="414" y="627" type="qcurve" smooth="yes"/>
      <point x="431" y="627"/>
      <point x="472" y="617"/>
      <point x="487" y="608" type="qcurve"/>
      <point x="514" y="709" type="line"/>
      <point x="483" y="724"/>
      <point x="417" y="740"/>
      <point x="385" y="740" type="qcurve" smooth="yes"/>
      <point x="345" y="740"/>
      <point x="280" y="710"/>
      <point x="235" y="655"/>
      <point x="210" y="577"/>
      <point x="210" y="528" type="qcurve" smooth="yes"/>
      <point x="210" y="463" type="line"/>
      <point x="142" y="463" type="line"/>
      <point x="142" y="361" type="line"/>
      <point x="210" y="361" type="line"/>
      <point x="210" y="-14" type="line" smooth="yes"/>
      <point x="210" y="-28"/>
      <point x="200" y="-53"/>
      <point x="182" y="-70"/>
      <point x="159" y="-80"/>
      <point x="146" y="-80" type="qcurve" smooth="yes"/>
      <point x="130" y="-80"/>
      <point x="98" y="-69"/>
      <point x="87" y="-58" type="qcurve"/>
      <point x="29" y="-149" type="line"/>
      <point x="57" y="-173"/>
      <point x="125" y="-196"/>
    </contour>
  </outline>
</glyph>
<glyph name="Aringacute" format="2">
  <advance width="673"/>
  <unicode hex="01FA"/>
  <outline>
    <contour>
      <point x="5" y="0" type="line"/>
      <point x="147" y="0" type="line"/>
      <point x="212" y="177" type="line"/>
      <point x="460" y="177" type="line"/>
      <point x="526" y="0" type="line"/>
      <point x="668" y="0" type="line"/>
      <point x="406" y="710" type="line"/>
      <point x="266" y="710" type="line"/>
    </contour>
    <contour>
      <point x="235" y="274" type="line"/>
      <point x="336" y="567" type="line"/>
      <point x="436" y="274" type="line"/>
    </contour>
    <contour>
      <point x="232" y="761" type="qcurve" smooth="yes"/>
      <point x="232" y="721"/>
      <point x="289" y="672"/>
      <point x="336" y="672" type="qcurve" smooth="yes"/>
      <point x="384" y="672"/>
      <point x="442" y="721"/>
      <point x="442" y="761" type="qcurve" smooth="yes"/>
      <point x="442" y="803"/>
      <point x="384" y="852"/>
      <point x="336" y="852" type="qcurve" smooth="yes"/>
      <point x="289" y="852"/>
      <point x="232" y="803"/>
    </contour>
    <contour>
      <point x="336" y="805" type="qcurve" smooth="yes"/>
      <point x="356" y="805"/>
      <point x="381" y="781"/>
      <point x="381" y="762" type="qcurve" smooth="yes"/>
      <point x="381" y="744"/>
      <point x="355" y="719"/>
      <point x="336" y="719" type="qcurve" smooth="yes"/>
      <point x="318" y="719"/>
      <point x="293" y="744"/>
      <point x="293" y="762" type="qcurve" smooth="yes"/>
      <point x="293" y="781"/>
      <point x="318" y="805"/>
    </contour>
    <contour>
      <point x="496" y="968" type="line"/>
      <point x="372" y="968" type="line"/>
      <point x="302" y="821" type="line"/>
      <point x="369" y="821" type="line"/>
    </contour>
  </outline>
</glyph>
<glyph name="dotlessj" format="2">
  <advance width="255"/>
  <unicode hex="0237"/>
  <outline>
    <contour>
      <point x="13" y="-196" type="qcurve" smooth="yes"/>
      <point x="51" y="-196"/>
      <point x="116" y="-168"/>
      <point x="167" y="-117"/>
      <point x="195" y="-46"/>
      <point x="195" y="-4" type="qcurve" smooth="yes"/>
      <point x="195" y="524" type="line"/>
      <point x="61" y="524" type="line"/>
      <point x="61" y="-14" type="line" smooth="yes"/>
      <point x="61" y="-28"/>
      <point x="51" y="-53"/>
      <point x="32" y="-70"/>
      <point x="9" y="-80"/>
      <point x="-3" y="-80" type="qcurve" smooth="yes"/>
      <point x="-20" y="-80"/>
      <point x="-52" y="-69"/>
      <point x="-63" y="-58" type="qcurve"/>
      <point x="-120" y="-149" type="line"/>
      <point x="-93" y="-173"/>
      <point x="-25" y="-196"/>
    </contour>
  </outline>
</glyph>
<glyph name="schwa" format="2">
  <advance width="599"/>
  <unicode hex="0259"/>
  <outline>
    <contour>
      <point x="296" y="-10" type="qcurve" smooth="yes"/>
      <point x="361" y="-10"/>
      <point x="463" y="34"/>
      <point x="533" y="109"/>
      <point x="571" y="207"/>
      <point x="571" y="263" type="qcurve" smooth="yes"/>
      <point x="571" y="318"/>
      <point x="532" y="416"/>
      <point x="461" y="491"/>
      <point x="359" y="534"/>
      <point x="295" y="534" type="qcurve" smooth="yes"/>
      <point x="252" y="534"/>
      <point x="175" y="513"/>
      <point x="113" y="477"/>
      <point x="66" y="426"/>
      <point x="51" y="396" type="qcurve"/>
      <point x="166" y="364" type="line"/>
      <point x="173" y="380"/>
      <point x="198" y="406"/>
      <point x="232" y="425"/>
      <point x="271" y="435"/>
      <point x="290" y="435" type="qcurve" smooth="yes"/>
      <point x="317" y="435"/>
      <point x="365" y="417"/>
      <point x="402" y="383"/>
      <point x="427" y="335"/>
      <point x="429" y="304" type="qcurve"/>
      <point x="25" y="304" type="line"/>
      <point x="23" y="295"/>
      <point x="21" y="271"/>
      <point x="21" y="262" type="qcurve" smooth="yes"/>
      <point x="21" y="207"/>
      <point x="59" y="109"/>
      <point x="131" y="34"/>
      <point x="232" y="-10"/>
    </contour>
    <contour>
      <point x="298" y="87" type="qcurve" smooth="yes"/>
      <point x="271" y="87"/>
      <point x="223" y="106"/>
      <point x="186" y="141"/>
      <point x="163" y="190"/>
      <point x="160" y="221" type="qcurve"/>
      <point x="432" y="221" type="line"/>
      <point x="429" y="191"/>
      <point x="407" y="142"/>
      <point x="372" y="106"/>
      <point x="325" y="87"/>
    </contour>
  </outline>
</glyph>
<glyph name="uni02BE" format="2">
  <advance width="157"/>
  <unicode hex="02BE"/>
  <outline>
    <contour>
      <point x="26" y="565" type="line"/>
      <point x="74" y="565"/>
      <point x="131" y="614"/>
      <point x="131" y="655" type="qcurve" smooth="yes"/>
      <point x="131" y="697"/>
      <point x="74" y="746"/>
      <point x="26" y="746" type="qcurve"/>
      <point x="26" y="698" type="line"/>
      <point x="45" y="698"/>
      <point x="70" y="674"/>
      <point x="70" y="655" type="qcurve" smooth="yes"/>
      <point x="70" y="637"/>
      <point x="44" y="612"/>
      <point x="26" y="612" type="qcurve"/>
    </contour>
  </outline>
</glyph>
<glyph name="ringhalfleftmod" format="2">
  <advance width="157"/>
  <unicode hex="02BF"/>
  <outline>
    <contour>
      <point x="131" y="612" type="line"/>
      <point x="112" y="612"/>
      <point x="87" y="638"/>
      <point x="87" y="655" type="qcurve" smooth="yes"/>
      <point x="87" y="674"/>
      <point x="112" y="698"/>
      <point x="131" y="698" type="qcurve"/>
      <point x="131" y="746" type="line"/>
      <point x="83" y="746"/>
      <point x="26" y="697"/>
      <point x="26" y="655" type="qcurve" smooth="yes"/>
      <point x="26" y="614"/>
      <point x="83" y="565"/>
      <point x="131" y="565" type="qcurve"/>
    </contour>
  </outline>
</glyph>
<glyph name="uni02C8" format="2">
  <advance width="275"/>
  <unicode hex="02C8"/>
  <outline>
    <contour>
      <point x="80" y="775" type="line"/>
      <point x="80" y="381" type="line"/>
      <point x="195" y="381" type="line"/>
      <point x="195" y="775" type="line"/>
    </contour>
  </outline>
</glyph>
<glyph name="macronmod" format="2">
  <advance width="419"/>
  <unicode hex="02C9"/>
  <outline>
    <contour>
      <point x="360" y="633" type="line"/>
      <point x="360" y="715" type="line"/>
      <point x="59" y="715" type="line"/>
      <point x="59" y="633" type="line"/>
    </contour>
  </outline>
</glyph>
<glyph name="acutemod" format="2">
  <advance width="235"/>
  <unicode hex="02CA"/>
  <outline>
    <contour>
      <point x="140" y="498" type="line"/>
      <point x="174" y="723" type="line"/>
      <point x="61" y="723" type="line"/>
      <point x="61" y="498" type="line"/>
    </contour>
  </outline>
</glyph>
<glyph name="uni02CB" format="2">
  <advance width="235"/>
  <unicode hex="02CB"/>
  <outline>
    <contour>
      <point x="174" y="498" type="line"/>
      <point x="174" y="723" type="line"/>
      <point x="61" y="723" type="line"/>
      <point x="95" y="498" type="line"/>
    </contour>
  </outline>
</glyph>
<glyph name="uni02CC" format="2">
  <advance width="275"/>
  <unicode hex="02CC"/>
  <outline>
    <contour>
      <point x="80" y="264" type="line"/>
      <point x="80" y="-130" type="line"/>
      <point x="195" y="-130" type="line"/>
      <point x="195" y="264" type="line"/>
    </contour>
  </outline>
</glyph>
<glyph name="tilde" format="2">
  <advance width="437"/>
  <unicode hex="02DC"/>
  <outline>
    <contour>
      <point x="284" y="602" type="qcurve" smooth="yes"/>
      <point x="319" y="602"/>
      <point x="366" y="637"/>
      <point x="395" y="681"/>
      <point x="406" y="722"/>
      <point x="406" y="730" type="qcurve"/>
      <point x="333" y="730" type="line"/>
      <point x="333" y="729"/>
      <point x="330" y="713"/>
      <point x="319" y="694"/>
      <point x="297" y="680"/>
      <point x="280" y="680" type="qcurve" smooth="yes"/>
      <point x="262" y="680"/>
      <point x="234" y="695"/>
      <point x="204" y="713"/>
      <point x="170" y="727"/>
      <point x="148" y="727" type="qcurve" smooth="yes"/>
      <point x="115" y="727"/>
      <point x="70" y="694"/>
      <point x="43" y="651"/>
      <point x="31" y="608"/>
      <point x="31" y="599" type="qcurve"/>
      <point x="105" y="599" type="line"/>
      <point x="105" y="600"/>
      <point x="108" y="615"/>
      <point x="117" y="633"/>
      <point x="136" y="647"/>
      <point x="153" y="647" type="qcurve" smooth="yes"/>
      <point x="169" y="647"/>
      <point x="198" y="633"/>
      <point x="227" y="616"/>
      <point x="262" y="602"/>
    </contour>
  </outline>
</glyph>
<glyph name="gravecomb" format="2">
  <advance width="285"/>
  <unicode hex="0300"/>
  <anchor x="208" y="524" name="_top"/>
  <outline>
    <contour>
      <point x="22" y="760" type="line"/>
      <point x="160" y="600" type="line"/>
      <point x="249" y="600" type="line"/>
      <point x="191" y="760" type="line"/>
    </contour>
  </outline>
</glyph>
<glyph name="acutecomb" format="2">
  <advance width="284"/>
  <unicode hex="0301"/>
  <anchor x="105" y="526" name="_top"/>
  <anchor x="155" y="730" name="top"/>
  <outline>
    <contour>
      <point x="264" y="730" type="line"/>
      <point x="95" y="730" type="line"/>
      <point x="45" y="588" type="line"/>
      <point x="165" y="556" type="line"/>
    </contour>
  </outline>
</glyph>
<glyph name="circumflexcomb" format="2">
  <advance width="402"/>
  <unicode hex="0302"/>
  <anchor x="201" y="526" name="_top"/>
  <anchor x="201" y="730" name="top"/>
  <outline>
    <contour>
      <point x="290" y="730" type="line"/>
      <point x="121" y="730" type="line"/>
      <point x="21" y="556" type="line"/>
      <point x="111" y="556" type="line"/>
    </contour>
    <contour>
      <point x="121" y="730" type="line"/>
      <point x="300" y="556" type="line"/>
      <point x="390" y="556" type="line"/>
      <point x="290" y="730" type="line"/>
    </contour>
  </outline>
</glyph>
<glyph name="uni0302" format="2">
  <advance width="369"/>
  <unicode hex="0302"/>
  <outline>
    <contour>
      <point x="24" y="600" type="line"/>
      <point x="92" y="600" type="line"/>
      <point x="181" y="686" type="line"/>
      <point x="271" y="600" type="line"/>
      <point x="338" y="600" type="line"/>
      <point x="244" y="749" type="line"/>
      <point x="118" y="749" type="line"/>
    </contour>
  </outline>
</glyph>
<glyph name="tildecomb" format="2">
  <advance width="437"/>
  <unicode hex="0303"/>
  <outline>
    <contour>
      <point x="284" y="620" type="qcurve" smooth="yes"/>
      <point x="319" y="620"/>
      <point x="366" y="655"/>
      <point x="395" y="700"/>
      <point x="406" y="740"/>
      <point x="406" y="748" type="qcurve"/>
      <point x="333" y="748" type="line"/>
      <point x="333" y="747"/>
      <point x="330" y="731"/>
      <point x="319" y="712"/>
      <point x="297" y="698"/>
      <point x="280" y="698" type="qcurve" smooth="yes"/>
      <point x="262" y="698"/>
      <point x="234" y="712"/>
      <point x="204" y="730"/>
      <point x="170" y="745"/>
      <point x="148" y="745" type="qcurve" smooth="yes"/>
      <point x="115" y="745"/>
      <point x="70" y="712"/>
      <point x="43" y="669"/>
      <point x="31" y="626"/>
      <point x="31" y="617" type="qcurve"/>
      <point x="105" y="617" type="line"/>
      <point x="105" y="619"/>
      <point x="108" y="634"/>
      <point x="117" y="651"/>
      <point x="136" y="665"/>
      <point x="153" y="665" type="qcurve" smooth="yes"/>
      <point x="169" y="665"/>
      <point x="198" y="651"/>
      <point x="227" y="634"/>
      <point x="262" y="620"/>
    </contour>
  </outline>
</glyph>
<glyph name="macroncomb" format="2">
  <advance width="438"/>
  <unicode hex="0304"/>
  <anchor x="218" y="526" name="_top"/>
  <anchor x="219" y="720" name="top"/>
  <outline>
    <contour>
      <point x="374" y="607" type="line"/>
      <point x="374" y="720" type="line"/>
      <point x="64" y="720" type="line"/>
      <point x="64" y="607" type="line"/>
    </contour>
  </outline>
</glyph>
<glyph name="brevecomb" format="2">
  <advance width="368"/>
  <unicode hex="0306"/>
  <anchor x="184" y="526" name="_top"/>
  <anchor x="184" y="730" name="top"/>
  <outline>
    <contour>
      <point x="184" y="649" type="curve" smooth="yes"/>
      <point x="151" y="649"/>
      <point x="123" y="686"/>
      <point x="123" y="730" type="curve"/>
      <point x="25" y="730" type="line"/>
      <point x="25" y="635"/>
      <point x="90" y="568"/>
      <point x="184" y="568" type="curve" smooth="yes"/>
      <point x="278" y="568"/>
      <point x="343" y="635"/>
      <point x="343" y="730" type="curve"/>
      <point x="245" y="730" type="line"/>
      <point x="241" y="683"/>
      <point x="215" y="649"/>
    </contour>
  </outline>
</glyph>
<glyph name="dotaccentcomb" format="2">
  <advance width="270"/>
  <unicode hex="0307"/>
  <anchor x="135" y="526" name="_top"/>
  <anchor x="135" y="730" name="top"/>
  <outline>
    <contour>
      <point x="40" y="660" type="curve" smooth="yes"/>
      <point x="40" y="608"/>
      <point x="82" y="566"/>
      <point x="134" y="566" type="curve" smooth="yes"/>
      <point x="186" y="566"/>
      <point x="228" y="608"/>
      <point x="228" y="660" type="curve" smooth="yes"/>
      <point x="228" y="712"/>
      <point x="186" y="754"/>
      <point x="134" y="754" type="curve" smooth="yes"/>
      <point x="82" y="754"/>
      <point x="40" y="712"/>
    </contour>
  </outline>
</glyph>
<glyph name="uni0307" format="2">
  <advance width="221"/>
  <unicode hex="0307"/>
  <outline>
    <contour>
      <point x="37" y="668" type="qcurve" smooth="yes"/>
      <point x="37" y="637"/>
      <point x="80" y="595"/>
      <point x="110" y="595" type="qcurve" smooth="yes"/>
      <point x="140" y="595"/>
      <point x="183" y="637"/>
      <point x="183" y="668" type="qcurve" smooth="yes"/>
      <point x="183" y="698"/>
      <point x="140" y="740"/>
      <point x="110" y="740" type="qcurve" smooth="yes"/>
      <point x="80" y="740"/>
      <point x="37" y="698"/>
    </contour>
  </outline>
</glyph>
<glyph name="dieresiscomb" format="2">
  <advance width="457"/>
  <unicode hex="0308"/>
  <outline>
    <contour>
      <point x="54" y="664" type="qcurve" smooth="yes"/>
      <point x="54" y="634"/>
      <point x="97" y="590"/>
      <point x="127" y="590" type="qcurve" smooth="yes"/>
      <point x="158" y="590"/>
      <point x="200" y="634"/>
      <point x="200" y="664" type="qcurve" smooth="yes"/>
      <point x="200" y="694"/>
      <point x="158" y="737"/>
      <point x="128" y="737" type="qcurve" smooth="yes"/>
      <point x="97" y="737"/>
      <point x="54" y="694"/>
    </contour>
    <contour>
      <point x="258" y="664" type="qcurve" smooth="yes"/>
      <point x="258" y="634"/>
      <point x="301" y="590"/>
      <point x="330" y="590" type="qcurve" smooth="yes"/>
      <point x="361" y="590"/>
      <point x="404" y="634"/>
      <point x="404" y="664" type="qcurve" smooth="yes"/>
      <point x="404" y="694"/>
      <point x="361" y="737"/>
      <point x="330" y="737" type="qcurve" smooth="yes"/>
      <point x="301" y="737"/>
      <point x="258" y="694"/>
    </contour>
  </outline>
</glyph>
<glyph name="hookabovecomb" format="2">
  <advance width="600"/>
  <unicode hex="0309"/>
  <outline>
    <contour>
      <point x="256" y="687" type="line"/>
      <point x="270" y="700"/>
      <point x="290" y="711"/>
      <point x="304" y="711" type="qcurve" smooth="yes"/>
      <point x="317" y="711"/>
      <point x="333" y="695"/>
      <point x="333" y="683" type="qcurve" smooth="yes"/>
      <point x="333" y="670"/>
      <point x="317" y="647"/>
      <point x="300" y="633" type="qcurve"/>
      <point x="334" y="596" type="line"/>
      <point x="367" y="623"/>
      <point x="399" y="670"/>
      <point x="399" y="700" type="qcurve" smooth="yes"/>
      <point x="399" y="731"/>
      <point x="355" y="774"/>
      <point x="315" y="774" type="qcurve" smooth="yes"/>
      <point x="288" y="774"/>
      <point x="240" y="751"/>
      <point x="215" y="727" type="qcurve"/>
    </contour>
  </outline>
</glyph>
<glyph name="uni030A" format="2">
  <advance width="262"/>
  <unicode hex="030A"/>
  <outline>
    <contour>
      <point x="26" y="655" type="qcurve" smooth="yes"/>
      <point x="26" y="614"/>
      <point x="83" y="565"/>
      <point x="131" y="565" type="qcurve" smooth="yes"/>
      <point x="178" y="565"/>
      <point x="236" y="614"/>
      <point x="236" y="655" type="qcurve" smooth="yes"/>
      <point x="236" y="697"/>
      <point x="178" y="746"/>
      <point x="131" y="746" type="qcurve" smooth="yes"/>
      <point x="83" y="746"/>
      <point x="26" y="697"/>
    </contour>
    <contour>
      <point x="131" y="698" type="qcurve" smooth="yes"/>
      <point x="149" y="698"/>
      <point x="176" y="674"/>
      <point x="176" y="655" type="qcurve" smooth="yes"/>
      <point x="176" y="637"/>
      <point x="149" y="612"/>
      <point x="131" y="612" type="qcurve" smooth="yes"/>
      <point x="112" y="612"/>
      <point x="87" y="638"/>
      <point x="87" y="655" type="qcurve" smooth="yes"/>
      <point x="87" y="674"/>
      <point x="112" y="698"/>
    </contour>
  </outline>
</glyph>
<glyph name="caroncomb" format="2">
  <advance width="402"/>
  <unicode hex="030C"/>
  <anchor x="206" y="526" name="_top"/>
  <anchor x="206" y="760" name="top"/>
  <outline>
    <contour>
      <point x="290" y="556" type="line"/>
      <point x="111" y="730" type="line"/>
      <point x="21" y="730" type="line"/>
      <point x="121" y="556" type="line"/>
    </contour>
    <contour>
      <point x="121" y="556" type="line"/>
      <point x="290" y="556" type="line"/>
      <point x="390" y="730" type="line"/>
      <point x="300" y="730" type="line"/>
    </contour>
  </outline>
</glyph>
<glyph name="uni030C" format="2">
  <advance width="369"/>
  <unicode hex="030C"/>
  <outline>
    <contour>
      <point x="24" y="749" type="line"/>
      <point x="118" y="600" type="line"/>
      <point x="244" y="600" type="line"/>
      <point x="338" y="749" type="line"/>
      <point x="271" y="749" type="line"/>
      <point x="181" y="664" type="line"/>
      <point x="92" y="749" type="line"/>
    </contour>
  </outline>
</glyph>
<glyph name="dblgravecomb" format="2">
  <advance width="399"/>
  <unicode hex="030F"/>
  <anchor x="222" y="525" name="_top"/>
  <outline>
    <contour>
      <point x="116" y="556" type="line"/>
      <point x="206" y="556" type="line"/>
      <point x="146" y="730" type="line"/>
      <point x="-23" y="730" type="line"/>
    </contour>
    <contour>
      <point x="324" y="556" type="line"/>
      <point x="414" y="556" type="line"/>
      <point x="354" y="730" type="line"/>
      <point x="185" y="730" type="line"/>
    </contour>
  </outline>
</glyph>
<glyph name="uni0311" format="2">
  <advance width="328"/>
  <unicode hex="0311"/>
  <outline>
    <contour>
      <point x="164" y="670" type="qcurve" smooth="yes"/>
      <point x="186" y="670"/>
      <point x="220" y="628"/>
      <point x="223" y="596" type="qcurve"/>
      <point x="295" y="596" type="line"/>
      <point x="295" y="626"/>
      <point x="275" y="674"/>
      <point x="240" y="710"/>
      <point x="193" y="730"/>
      <point x="164" y="730" type="qcurve" smooth="yes"/>
      <point x="135" y="730"/>
      <point x="88" y="710"/>
      <point x="53" y="674"/>
      <point x="33" y="626"/>
      <point x="33" y="596" type="qcurve"/>
      <point x="106" y="596" type="line"/>
      <point x="106" y="626"/>
      <point x="141" y="670"/>
    </contour>
  </outline>
</glyph>
<glyph name="commaturnedabovecomb" format="2">
  <advance width="221"/>
  <unicode hex="0312"/>
  <outline>
    <contour>
      <point x="15" y="579" type="line"/>
      <point x="161" y="579" type="line"/>
      <point x="224" y="744" type="line"/>
      <point x="145" y="744" type="line"/>
    </contour>
  </outline>
</glyph>
<glyph name="uni0312" format="2">
  <advance width="201"/>
  <unicode hex="0312"/>
  <outline>
    <contour>
      <point x="18" y="582" type="line"/>
      <point x="142" y="582" type="line"/>
      <point x="208" y="738" type="line"/>
      <point x="140" y="738" type="line"/>
    </contour>
  </outline>
</glyph>
<glyph name="uni031B" format="2">
  <advance width="306"/>
  <unicode hex="031B"/>
  <outline>
    <contour>
      <point x="50" y="483" type="line"/>
      <point x="75" y="483"/>
      <point x="123" y="490"/>
      <point x="167" y="503"/>
      <point x="201" y="521"/>
      <point x="213" y="533" type="qcurve" smooth="yes"/>
      <point x="227" y="547"/>
      <point x="244" y="580"/>
      <point x="252" y="614"/>
      <point x="255" y="648"/>
      <point x="256" y="664" type="qcurve"/>
      <point x="158" y="664" type="line"/>
      <point x="157" y="644"/>
      <point x="152" y="612"/>
      <point x="141" y="598" type="qcurve"/>
      <point x="129" y="586"/>
      <point x="87" y="575"/>
      <point x="52" y="575" type="qcurve"/>
    </contour>
  </outline>
</glyph>
<glyph name="dotbelowcomb" format="2">
  <advance width="221"/>
  <unicode hex="0323"/>
  <outline>
    <contour>
      <point x="37" y="-138" type="qcurve" smooth="yes"/>
      <point x="37" y="-168"/>
      <point x="80" y="-211"/>
      <point x="110" y="-211" type="qcurve" smooth="yes"/>
      <point x="141" y="-211"/>
      <point x="183" y="-168"/>
      <point x="183" y="-138" type="qcurve" smooth="yes"/>
      <point x="183" y="-108"/>
      <point x="141" y="-64"/>
      <point x="111" y="-64" type="qcurve" smooth="yes"/>
      <point x="80" y="-64"/>
      <point x="37" y="-108"/>
    </contour>
  </outline>
</glyph>
<glyph name="dieresisbelowcomb" format="2">
  <advance width="566"/>
  <unicode hex="0324"/>
  <anchor x="283" y="0" name="_bottom"/>
  <anchor x="283" y="-214" name="bottom"/>
  <outline>
    <contour>
      <point x="304" y="-144" type="curve" smooth="yes"/>
      <point x="304" y="-196"/>
      <point x="346" y="-238"/>
      <point x="398" y="-238" type="curve" smooth="yes"/>
      <point x="450" y="-238"/>
      <point x="492" y="-196"/>
      <point x="492" y="-144" type="curve" smooth="yes"/>
      <point x="492" y="-92"/>
      <point x="450" y="-50"/>
      <point x="398" y="-50" type="curve" smooth="yes"/>
      <point x="346" y="-50"/>
      <point x="304" y="-92"/>
    </contour>
    <contour>
      <point x="73" y="-144" type="curve" smooth="yes"/>
      <point x="73" y="-196"/>
      <point x="115" y="-238"/>
      <point x="167" y="-238" type="curve" smooth="yes"/>
      <point x="219" y="-238"/>
      <point x="261" y="-196"/>
      <point x="261" y="-144" type="curve" smooth="yes"/>
      <point x="261" y="-92"/>
      <point x="219" y="-50"/>
      <point x="167" y="-50" type="curve" smooth="yes"/>
      <point x="115" y="-50"/>
      <point x="73" y="-92"/>
    </contour>
  </outline>
</glyph>
<glyph name="commaaccentcomb" format="2">
  <advance width="241"/>
  <unicode hex="0326"/>
  <anchor x="146" y="0" name="_bottom"/>
  <outline>
    <contour>
      <point x="167" y="-213" type="line"/>
      <point x="221" y="-152" type="line"/>
      <point x="221" y="-46" type="line"/>
      <point x="64" y="-46" type="line"/>
      <point x="64" y="-152" type="line"/>
      <point x="121" y="-152" type="line"/>
      <point x="85" y="-213" type="line"/>
    </contour>
  </outline>
</glyph>
<glyph name="uni0326" format="2">
  <advance width="201"/>
  <unicode hex="0326"/>
  <outline>
    <contour>
      <point x="93" y="-264" type="line"/>
      <point x="185" y="-47" type="line"/>
      <point x="69" y="-47" type="line"/>
      <point x="33" y="-264" type="line"/>
    </contour>
  </outline>
</glyph>
<glyph name="cedillacomb" format="2">
  <advance width="336"/>
  <unicode hex="0327"/>
  <outline>
    <contour>
      <point x="61" y="-205" type="line"/>
      <point x="132" y="-153"/>
      <point x="186" y="-101"/>
      <point x="228" y="-44" type="curve"/>
      <point x="80" y="-28" type="line"/>
      <point x="60" y="-83"/>
      <point x="23" y="-150"/>
      <point x="-18" y="-191" type="curve"/>
    </contour>
  </outline>
</glyph>
<glyph name="uni0327" format="2">
  <advance width="325"/>
  <unicode hex="0327"/>
  <outline>
    <contour>
      <point x="42" y="-181" type="qcurve"/>
      <point x="66" y="-194"/>
      <point x="121" y="-201"/>
      <point x="149" y="-201" type="qcurve" smooth="yes"/>
      <point x="169" y="-201"/>
      <point x="215" y="-193"/>
      <point x="252" y="-173"/>
      <point x="278" y="-139"/>
      <point x="278" y="-113" type="qcurve" smooth="yes"/>
      <point x="278" y="-75"/>
      <point x="225" y="-43"/>
      <point x="192" y="-43" type="qcurve" smooth="yes"/>
      <point x="184" y="-43"/>
      <point x="167" y="-44"/>
      <point x="160" y="-46" type="qcurve"/>
      <point x="195" y="7" type="line"/>
      <point x="192" y="8"/>
      <point x="178" y="13"/>
      <point x="161" y="18"/>
      <point x="146" y="22"/>
      <point x="142" y="23" type="qcurve"/>
      <point x="82" y="-96" type="line"/>
      <point x="103" y="-92"/>
      <point x="143" y="-85"/>
      <point x="163" y="-85" type="qcurve" smooth="yes"/>
      <point x="181" y="-85"/>
      <point x="214" y="-96"/>
      <point x="214" y="-117" type="qcurve" smooth="yes"/>
      <point x="214" y="-128"/>
      <point x="203" y="-141"/>
      <point x="186" y="-149"/>
      <point x="166" y="-151"/>
      <point x="157" y="-151" type="qcurve" smooth="yes"/>
      <point x="137" y="-151"/>
      <point x="87" y="-142"/>
      <point x="69" y="-132" type="qcurve"/>
      <point x="68" y="-134"/>
      <point x="59" y="-148"/>
      <point x="49" y="-164"/>
      <point x="42" y="-178"/>
    </contour>
  </outline>
</glyph>
<glyph name="ogonekcomb" format="2">
  <advance width="290"/>
  <unicode hex="0328"/>
  <outline>
    <contour>
      <point x="63" y="-110" type="qcurve" smooth="yes"/>
      <point x="63" y="-125"/>
      <point x="77" y="-155"/>
      <point x="107" y="-179"/>
      <point x="158" y="-196"/>
      <point x="196" y="-200" type="qcurve"/>
      <point x="222" y="-124" type="line"/>
      <point x="186" y="-123"/>
      <point x="149" y="-105"/>
      <point x="149" y="-87" type="qcurve" smooth="yes"/>
      <point x="149" y="-69"/>
      <point x="185" y="-26"/>
      <point x="223" y="1" type="qcurve"/>
      <point x="207" y="21" type="line"/>
      <point x="165" y="21" type="line"/>
      <point x="113" y="-9"/>
      <point x="63" y="-76"/>
    </contour>
  </outline>
</glyph>
<glyph name="brevebelowcomb" format="2">
  <advance width="328"/>
  <unicode hex="032E"/>
  <outline>
    <contour>
      <point x="164" y="-127" type="qcurve" smooth="yes"/>
      <point x="141" y="-127"/>
      <point x="106" y="-83"/>
      <point x="106" y="-53" type="qcurve"/>
      <point x="33" y="-53" type="line"/>
      <point x="33" y="-82"/>
      <point x="53" y="-131"/>
      <point x="88" y="-167"/>
      <point x="135" y="-187"/>
      <point x="164" y="-187" type="qcurve" smooth="yes"/>
      <point x="193" y="-187"/>
      <point x="240" y="-167"/>
      <point x="275" y="-131"/>
      <point x="295" y="-82"/>
      <point x="295" y="-53" type="qcurve"/>
      <point x="223" y="-53" type="line"/>
      <point x="220" y="-85"/>
      <point x="186" y="-127"/>
    </contour>
  </outline>
</glyph>
<glyph name="macronbelowcomb" format="2">
  <advance width="419"/>
  <unicode hex="0331"/>
  <outline>
    <contour>
      <point x="360" y="-163" type="line"/>
      <point x="360" y="-80" type="line"/>
      <point x="59" y="-80" type="line"/>
      <point x="59" y="-163" type="line"/>
    </contour>
  </outline>
</glyph>
<glyph name="strokeshortcomb" format="2">
  <advance width="441"/>
  <unicode hex="0335"/>
  <anchor x="221" y="282" name="_center"/>
  <outline>
    <contour>
      <point x="391" y="227" type="line"/>
      <point x="391" y="336" type="line"/>
      <point x="50" y="336" type="line"/>
      <point x="50" y="227" type="line"/>
    </contour>
  </outline>
</glyph>
<glyph name="uni0335" format="2">
  <advance width="393"/>
  <unicode hex="0335"/>
  <outline>
    <contour>
      <point x="343" y="252" type="line"/>
      <point x="343" y="331" type="line"/>
      <point x="50" y="331" type="line"/>
      <point x="50" y="252" type="line"/>
    </contour>
  </outline>
</glyph>
<glyph name="tonos" format="2">
  <advance width="203"/>
  <unicode hex="0384"/>
  <outline>
    <contour>
      <point x="68" y="819" type="line"/>
      <point x="42" y="580" type="line"/>
      <point x="113" y="569" type="line"/>
      <point x="163" y="799" type="line"/>
    </contour>
  </outline>
</glyph>
<glyph name="dieresistonos" format="2">
  <advance width="616"/>
  <unicode hex="0385"/>
  <anchor x="308" y="528" name="_top"/>
  <outline>
    <component base="tonos" xOffset="206" yOffset="2"/>
    <contour>
      <point x="42" y="660" type="curve" smooth="yes"/>
      <point x="42" y="608"/>
      <point x="82" y="568"/>
      <point x="134" y="568" type="curve" smooth="yes"/>
      <point x="188" y="568"/>
      <point x="226" y="608"/>
      <point x="226" y="660" type="curve" smooth="yes"/>
      <point x="226" y="714"/>
      <point x="188" y="752"/>
      <point x="134" y="752" type="curve" smooth="yes"/>
      <point x="82" y="752"/>
      <point x="42" y="714"/>
    </contour>
    <contour>
      <point x="390" y="660" type="curve"/>
      <point x="392" y="608"/>
      <point x="432" y="568"/>
      <point x="484" y="568" type="curve" smooth="yes"/>
      <point x="536" y="568"/>
      <point x="576" y="608"/>
      <point x="576" y="660" type="curve" smooth="yes"/>
      <point x="576" y="714"/>
      <point x="536" y="752"/>
      <point x="484" y="752" type="curve" smooth="yes"/>
      <point x="432" y="752"/>
      <point x="392" y="714"/>
    </contour>
  </outline>
</glyph>
<glyph name="Alphatonos" format="2">
  <advance width="673"/>
  <unicode hex="0386"/>
  <outline>
    <contour>
      <point x="5" y="0" type="line"/>
      <point x="147" y="0" type="line"/>
      <point x="212" y="177" type="line"/>
      <point x="460" y="177" type="line"/>
      <point x="526" y="0" type="line"/>
      <point x="668" y="0" type="line"/>
      <point x="406" y="710" type="line"/>
      <point x="266" y="710" type="line"/>
    </contour>
    <contour>
      <point x="235" y="274" type="line"/>
      <point x="336" y="567" type="line"/>
      <point x="436" y="274" type="line"/>
    </contour>
    <contour>
      <point x="161" y="900" type="line"/>
      <point x="69" y="672" type="line"/>
      <point x="141" y="641" type="line"/>
      <point x="262" y="828" type="line"/>
    </contour>
  </outline>
</glyph>
<glyph name="Gamma" format="2">
  <advance width="500"/>
  <unicode hex="0393"/>
  <outline>
    <contour>
      <point x="564" y="708" type="line"/>
      <point x="564" y="589" type="line"/>
      <point x="208" y="589" type="line"/>
      <point x="208" y="10" type="line"/>
      <point x="74" y="10" type="line"/>
      <point x="74" y="708" type="line"/>
    </contour>
  </outline>
</glyph>
<glyph name="Delta" format="2">
  <advance width="651"/>
  <unicode hex="0394"/>
  <outline>
    <contour>
      <point x="11" y="0" type="line"/>
      <point x="641" y="0" type="line"/>
      <point x="641" y="22" type="line"/>
      <point x="407" y="708" type="line"/>
      <point x="245" y="708" type="line"/>
      <point x="11" y="22" type="line"/>
    </contour>
    <contour>
      <point x="161" y="107" type="line"/>
      <point x="257" y="379" type="line"/>
      <point x="324" y="599" type="line"/>
      <point x="328" y="599" type="line"/>
      <point x="397" y="379" type="line"/>
      <point x="489" y="107" type="line"/>
    </contour>
  </outline>
</glyph>
<glyph name="Theta" format="2">
  <advance width="765"/>
  <unicode hex="0398"/>
  <outline>
    <component base="O" xScale="0.983271" yScale="0.983271"/>
    <contour>
      <point x="277" y="276" type="line"/>
      <point x="479" y="276" type="line"/>
      <point x="479" y="436" type="line"/>
      <point x="277" y="436" type="line"/>
    </contour>
  </outline>
</glyph>
<glyph name="Lambda" format="2">
  <advance width="678"/>
  <unicode hex="039B"/>
  <outline>
    <contour>
      <point x="13" y="0" type="line"/>
      <point x="142" y="0" type="line"/>
      <point x="268" y="375" type="line"/>
      <point x="338" y="589" type="line"/>
      <point x="342" y="589" type="line"/>
      <point x="411" y="373" type="line"/>
      <point x="534" y="0" type="line"/>
      <point x="665" y="0" type="line"/>
      <point x="423" y="708" type="line"/>
      <point x="257" y="708" type="line"/>
    </contour>
  </outline>
</glyph>
<glyph name="Xi" format="2">
  <advance width="646"/>
  <unicode hex="039E"/>
  <outline>
    <contour>
      <point x="65" y="0" type="line"/>
      <point x="581" y="0" type="line"/>
      <point x="581" y="107" type="line"/>
      <point x="65" y="107" type="line"/>
    </contour>
    <contour>
      <point x="136" y="301" type="line"/>
      <point x="508" y="301" type="line"/>
      <point x="508" y="407" type="line"/>
      <point x="136" y="407" type="line"/>
    </contour>
    <contour>
      <point x="65" y="599" type="line"/>
      <point x="581" y="599" type="line"/>
      <point x="581" y="707" type="line"/>
      <point x="65" y="707" type="line"/>
    </contour>
  </outline>
</glyph>
<glyph name="Pi" format="2">
  <advance width="659"/>
  <unicode hex="03A0"/>
  <outline>
    <contour>
      <point x="75" y="0" type="line"/>
      <point x="202" y="0" type="line"/>
      <point x="202" y="599" type="line"/>
      <point x="457" y="599" type="line"/>
      <point x="457" y="0" type="line"/>
      <point x="584" y="0" type="line"/>
      <point x="584" y="707" type="line"/>
      <point x="75" y="707" type="line"/>
    </contour>
  </outline>
</glyph>
<glyph name="Sigma" format="2">
  <advance width="580"/>
  <unicode hex="03A3"/>
  <outline>
    <contour>
      <point x="50" y="0" type="line"/>
      <point x="532" y="0" type="line"/>
      <point x="532" y="146" type="line"/>
      <point x="286" y="146" type="line"/>
      <point x="444" y="360" type="line"/>
      <point x="288" y="558" type="line"/>
      <point x="518" y="558" type="line"/>
      <point x="518" y="704" type="line"/>
      <point x="52" y="704" type="line"/>
      <point x="52" y="598" type="line"/>
      <point x="262" y="356" type="line"/>
      <point x="50" y="104" type="line"/>
    </contour>
  </outline>
</glyph>
<glyph name="Upsilon" format="2">
  <advance width="634"/>
  <unicode hex="03A5"/>
  <outline>
    <contour>
      <point x="253" y="0" type="line"/>
      <point x="381" y="0" type="line"/>
      <point x="381" y="232" type="line" smooth="yes"/>
      <point x="381" y="301"/>
      <point x="422" y="415"/>
      <point x="486" y="514"/>
      <point x="565" y="601"/>
      <point x="605" y="643" type="qcurve"/>
      <point x="511" y="712" type="line"/>
      <point x="468" y="670"/>
      <point x="404" y="601"/>
      <point x="359" y="535"/>
      <point x="328" y="469"/>
      <point x="318" y="429" type="qcurve"/>
      <point x="314" y="429" type="line"/>
      <point x="304" y="469"/>
      <point x="274" y="536"/>
      <point x="229" y="602"/>
      <point x="166" y="671"/>
      <point x="123" y="712" type="qcurve"/>
      <point x="30" y="643" type="line"/>
      <point x="67" y="603"/>
      <point x="146" y="518"/>
      <point x="212" y="418"/>
      <point x="254" y="302"/>
      <point x="253" y="232" type="qcurve"/>
    </contour>
  </outline>
</glyph>
<glyph name="Phi" format="2">
  <advance width="746"/>
  <unicode hex="03A6"/>
  <outline>
    <contour>
      <point x="351" y="177" type="line"/>
      <point x="310" y="177"/>
      <point x="241" y="204"/>
      <point x="191" y="251"/>
      <point x="162" y="316"/>
      <point x="162" y="355" type="qcurve" smooth="yes"/>
      <point x="162" y="395"/>
      <point x="191" y="459"/>
      <point x="241" y="506"/>
      <point x="310" y="532"/>
      <point x="351" y="532" type="qcurve"/>
      <point x="351" y="638" type="line"/>
      <point x="283" y="638"/>
      <point x="170" y="597"/>
      <point x="88" y="523"/>
      <point x="44" y="418"/>
      <point x="44" y="355" type="qcurve" smooth="yes"/>
      <point x="44" y="292"/>
      <point x="88" y="189"/>
      <point x="170" y="114"/>
      <point x="283" y="73"/>
      <point x="351" y="73" type="qcurve"/>
    </contour>
    <contour>
      <point x="433" y="-31" type="line"/>
      <point x="433" y="738" type="line"/>
      <point x="315" y="738" type="line"/>
      <point x="315" y="-31" type="line"/>
    </contour>
    <contour>
      <point x="400" y="73" type="line"/>
      <point x="469" y="73"/>
      <point x="581" y="114"/>
      <point x="661" y="189"/>
      <point x="704" y="292"/>
      <point x="704" y="355" type="qcurve" smooth="yes"/>
      <point x="704" y="418"/>
      <point x="661" y="523"/>
      <point x="581" y="597"/>
      <point x="469" y="638"/>
      <point x="400" y="638" type="qcurve"/>
      <point x="400" y="532" type="line"/>
      <point x="442" y="532"/>
      <point x="509" y="506"/>
      <point x="558" y="459"/>
      <point x="585" y="395"/>
      <point x="585" y="355" type="qcurve" smooth="yes"/>
      <point x="585" y="316"/>
      <point x="558" y="251"/>
      <point x="509" y="204"/>
      <point x="442" y="177"/>
      <point x="400" y="177" type="qcurve"/>
    </contour>
  </outline>
</glyph>
